<?xml version="1.0" standalone="no"?>
<!DOCTYPE svg PUBLIC "-//W3C//DTD SVG 20010904//EN"
 "http://www.w3.org/TR/2001/REC-SVG-20010904/DTD/svg10.dtd">
<svg version="1.0" xmlns="http://www.w3.org/2000/svg"
 width="1600.000000pt" height="1200.000000pt" viewBox="0 0 1600.000000 1200.000000"
 preserveAspectRatio="xMidYMid meet">
<metadata>
Created by potrace 1.16, written by Peter Selinger 2001-2019
</metadata>
<g transform="translate(0.000000,1200.000000) scale(0.100000,-0.100000)"
fill="#000000" stroke="none">
<path d="M0 9789 c0 -2100 1 -2210 18 -2205 9 2 62 16 117 30 55 14 226 57
380 96 154 40 413 105 575 145 759 189 768 191 875 194 22 1 35 5 29 9 -7 4
11 8 40 8 53 2 148 26 194 50 15 8 43 14 63 14 20 0 62 9 95 20 61 21 112 23
62 2 -16 -6 -28 -17 -28 -23 0 -8 -4 -8 -13 -1 -9 8 -24 8 -50 1 -44 -12 -57
-28 -19 -23 15 2 20 1 12 -2 -8 -4 -20 -12 -26 -20 -6 -8 -22 -15 -34 -17 -30
-5 -39 -27 -11 -27 12 0 21 -4 21 -10 0 -5 -10 -10 -22 -10 -11 0 -37 -12 -56
-26 -21 -16 -47 -27 -64 -26 -17 0 -46 -8 -66 -18 -26 -14 -69 -21 -144 -26
-83 -5 -108 -10 -108 -21 0 -8 5 -11 12 -7 6 4 8 3 5 -3 -14 -22 -127 -83
-165 -89 -23 -4 -42 -10 -42 -15 0 -5 -12 -9 -27 -9 -22 0 -25 -2 -13 -10 12
-8 10 -10 -8 -10 -13 0 -20 -4 -17 -10 4 -6 -21 -10 -67 -10 -48 -1 -80 -6
-92 -15 -11 -8 -30 -15 -43 -15 -13 0 -23 -4 -23 -9 0 -9 -8 -12 -62 -27 -12
-4 -18 0 -19 13 0 12 -5 7 -14 -13 -12 -27 -21 -33 -60 -38 -25 -4 -65 -4 -90
-1 -34 6 -48 3 -60 -9 -9 -9 -22 -16 -28 -16 -7 0 -25 -12 -40 -26 -25 -23
-35 -26 -73 -20 -26 3 -44 2 -44 -4 0 -6 -10 -10 -23 -10 -13 0 -27 -3 -31 -7
-8 -8 -21 -11 -91 -23 -112 -19 -205 -39 -222 -48 -10 -5 -23 -7 -30 -5 -7 2
-18 -5 -25 -16 -7 -12 -19 -21 -26 -21 -7 0 -15 -6 -18 -14 -3 -9 -31 -16 -80
-21 -50 -5 -77 -11 -81 -21 -3 -8 -14 -14 -24 -14 -10 0 -19 -4 -19 -9 0 -13
-32 -23 -39 -13 -10 15 -49 24 -56 12 -3 -5 -21 -10 -40 -10 -18 0 -40 -3 -49
-6 -15 -6 -16 -338 -16 -3670 l0 -3664 1694 0 c1346 0 1695 3 1699 13 6 16 90
40 114 33 28 -8 190 -8 265 0 63 6 68 5 91 -20 l24 -26 617 0 c339 0 616 2
616 5 0 15 -62 130 -85 157 -37 44 -91 155 -112 229 -15 54 -27 71 -90 136
-40 40 -79 84 -87 96 -20 30 -46 175 -46 253 0 35 -4 64 -9 64 -12 0 -35 -96
-26 -109 3 -7 0 -8 -9 -5 -17 7 -76 91 -76 109 0 7 -7 18 -15 25 -8 7 -17 27
-21 46 -5 27 -11 34 -28 33 -17 -1 -17 -2 -3 -6 18 -5 24 -33 7 -33 -5 0 -10
5 -10 10 0 6 -6 9 -12 8 -7 -2 -12 3 -10 10 1 8 -2 11 -7 8 -5 -4 -15 0 -23 7
-7 7 -26 22 -41 32 -15 10 -26 20 -23 22 2 3 -11 29 -30 58 -19 30 -35 60 -35
67 -1 7 -4 -3 -8 -22 l-6 -34 -27 26 c-14 15 -29 41 -33 58 -4 16 -13 30 -21
30 -8 0 -14 5 -14 10 0 20 -62 50 -81 39 -26 -13 -33 -11 -19 6 6 8 9 19 5 25
-4 6 -1 18 6 27 11 13 10 17 -6 30 -11 7 -20 19 -20 25 0 7 -11 15 -25 18 -32
8 -50 43 -50 103 0 50 12 61 30 27 6 -11 15 -18 21 -14 5 3 16 0 24 -6 8 -6
19 -9 25 -5 13 8 13 42 0 50 -6 4 -8 14 -6 23 4 11 -8 31 -29 54 -35 37 -44
58 -25 58 6 0 10 14 10 31 l0 32 53 -5 c28 -3 46 -3 39 -1 -13 5 -17 53 -4 53
4 0 17 -7 28 -15 12 -8 44 -23 72 -34 43 -17 51 -18 56 -6 3 8 15 15 26 15 11
0 20 5 20 10 0 18 30 11 30 -7 1 -17 1 -17 14 0 7 9 18 17 25 17 15 0 14 -27
-2 -37 -18 -10 -28 -51 -15 -59 6 -4 13 -2 17 3 9 14 41 24 41 13 0 -6 5 -10
10 -10 6 0 10 9 10 20 0 11 7 20 15 20 29 0 14 -31 -42 -86 -31 -31 -62 -57
-69 -58 -26 -4 -84 -41 -84 -55 0 -20 64 -8 92 19 12 11 34 23 48 26 34 7 100
37 100 46 0 4 15 2 32 -3 41 -11 41 -11 32 3 -5 8 -2 9 11 5 9 -4 23 -3 29 2
7 6 41 6 86 1 126 -15 150 -13 150 11 0 18 4 20 29 14 17 -4 38 -1 49 6 16 10
27 9 58 -6 43 -20 74 -50 74 -72 0 -7 11 -13 26 -13 17 0 28 -6 31 -19 3 -10
19 -23 36 -28 25 -7 33 -15 35 -36 4 -31 -13 -37 -21 -6 -5 18 -8 19 -26 7
-23 -14 -26 -35 -11 -90 11 -39 75 -111 94 -105 6 2 17 -2 24 -10 8 -7 23 -11
37 -7 19 5 24 1 27 -17 2 -12 10 -25 18 -29 8 -4 25 -12 36 -18 29 -14 134 -4
134 14 0 7 11 21 25 32 30 23 34 69 8 74 -16 3 -15 6 4 16 19 11 22 10 17 -3
-4 -8 -1 -15 5 -15 6 0 11 5 11 12 0 6 3 9 6 6 3 -4 1 -16 -6 -27 -9 -17 -8
-21 5 -21 11 0 14 -9 12 -34 -1 -19 -4 -33 -5 -31 -2 2 -18 -10 -34 -27 -27
-28 -29 -33 -14 -43 9 -7 16 -19 16 -26 0 -8 10 -19 22 -24 12 -6 31 -27 42
-48 12 -23 27 -37 38 -37 12 0 24 -12 33 -34 15 -36 92 -99 108 -89 6 3 7 1 4
-4 -7 -12 34 -43 55 -43 7 0 19 -9 26 -20 6 -11 18 -17 26 -14 8 3 17 -3 21
-14 8 -26 94 -104 106 -96 5 3 9 -4 9 -15 0 -15 4 -19 17 -14 13 5 15 2 10
-11 -4 -9 -3 -15 2 -11 6 3 14 -2 19 -12 9 -14 12 -15 26 -4 14 12 16 11 10
-4 -5 -12 -4 -16 3 -12 14 9 130 -119 226 -249 30 -42 38 -76 12 -54 -13 11
-14 10 -10 -2 4 -9 16 -15 28 -14 21 1 22 6 24 95 1 52 6 97 11 100 11 8 32
46 32 60 0 21 -26 11 -42 -16 l-17 -28 -1 35 c0 65 27 150 66 208 l39 57 6
-100 c5 -64 3 -102 -3 -106 -13 -8 0 -69 14 -69 6 0 8 -7 4 -15 -3 -8 -1 -15
4 -15 16 0 22 21 9 36 -6 8 -10 17 -7 19 12 13 68 -109 68 -149 1 -38 84 -338
125 -446 l13 -35 271 -3 c234 -2 271 0 271 13 0 8 -27 42 -60 77 -33 34 -60
66 -60 70 0 4 -4 8 -10 8 -5 0 -10 9 -10 21 0 11 -5 19 -12 17 -19 -7 -116
101 -103 114 3 3 -1 25 -9 49 -21 59 -21 59 20 59 45 0 74 15 74 39 0 22 -23
44 -35 33 -4 -4 -6 0 -3 8 7 22 40 22 66 0 22 -18 23 -24 14 -65 -5 -25 -6
-45 -1 -45 5 0 9 -10 9 -22 1 -26 22 -58 39 -58 16 0 13 30 -4 36 -8 4 -15 15
-15 25 0 10 -4 19 -10 19 -5 0 -10 11 -10 25 0 23 4 25 41 25 40 0 41 -1 37
-29 -3 -23 -1 -27 14 -23 13 3 18 14 18 43 0 33 -3 39 -21 39 -12 0 -34 11
-50 24 l-29 24 30 7 c16 4 34 3 41 0 18 -12 49 31 49 70 l0 35 58 2 c49 1 51
2 15 5 -40 4 -43 6 -43 34 0 27 2 29 40 29 35 0 40 -3 40 -24 0 -15 7 -26 20
-29 21 -5 25 -30 20 -130 -1 -34 2 -47 12 -47 9 0 12 -14 11 -50 -1 -27 3 -50
8 -50 5 0 9 -16 9 -36 0 -28 3 -35 15 -30 10 4 15 -1 15 -15 0 -11 -4 -17 -10
-14 -6 4 -10 -6 -10 -22 0 -22 -2 -25 -10 -13 -7 11 -8 5 -4 -20 8 -42 14 -51
14 -21 0 12 4 19 10 16 6 -3 10 -21 10 -38 0 -25 -3 -29 -11 -17 -8 11 -8 9
-2 -10 4 -14 8 -44 8 -67 0 -23 3 -45 8 -49 4 -4 7 -17 8 -28 0 -21 1 -21 9
-1 7 17 9 17 9 3 1 -17 39 -18 654 -18 516 1 648 3 631 13 -11 7 -36 24 -55
38 -51 40 -205 119 -214 111 -4 -4 -4 16 0 43 5 28 8 60 8 72 -1 18 3 20 21
13 11 -5 54 -19 95 -31 41 -12 91 -31 110 -42 58 -33 140 -106 183 -163 22
-30 45 -54 50 -54 32 0 -111 156 -192 208 -45 29 -51 36 -35 42 16 6 16 7 2
13 -8 3 -17 2 -19 -4 -2 -5 -23 -3 -52 7 -35 12 -44 19 -35 26 10 7 7 7 -8 3
-12 -3 -38 1 -57 9 -29 12 -36 20 -36 43 1 26 2 26 14 10 13 -17 39 -19 64 -4
6 5 12 6 12 3 0 -2 25 2 55 9 30 6 56 9 57 5 2 -4 14 -11 27 -15 20 -6 23 -4
18 9 -4 9 -2 16 3 16 5 0 7 7 4 15 -5 11 -22 15 -64 15 -101 0 -142 61 -85
128 25 30 86 52 144 52 33 0 75 35 64 54 -4 7 -2 7 6 0 17 -16 84 4 77 23 -11
27 44 57 59 32 4 -6 13 -8 21 -5 8 3 13 2 12 -2 -3 -8 67 -78 98 -98 23 -16
74 -15 74 1 0 5 4 4 8 -3 5 -7 17 -14 28 -17 10 -2 56 -13 102 -25 46 -11 87
-20 92 -20 5 0 12 15 16 32 14 67 56 148 75 148 24 0 24 4 -6 -64 -27 -61 -32
-96 -14 -96 8 0 10 -12 6 -34 -3 -19 0 -39 6 -45 17 -17 -13 -42 -59 -48 -27
-3 -53 1 -79 13 l-40 18 68 9 c61 9 67 12 67 34 0 27 -9 29 -36 8 -21 -16 -80
-19 -136 -6 -44 10 -45 8 -18 -21 10 -11 22 -42 25 -67 4 -25 9 -55 11 -66 3
-13 0 -11 -7 5 -36 80 -60 114 -94 132 -15 9 -13 4 8 -21 27 -33 35 -61 17
-61 -5 0 -10 6 -10 13 0 8 -9 22 -20 32 -17 15 -20 16 -20 3 0 -9 7 -18 15
-22 19 -7 19 -40 0 -60 -19 -19 -45 -10 -45 15 0 21 -59 113 -68 105 -3 -3 3
-15 13 -26 10 -11 19 -32 21 -47 1 -15 8 -29 13 -31 17 -6 13 -48 -5 -63 -20
-17 -49 0 -50 30 -2 32 -14 39 -14 8 0 -14 5 -29 10 -32 12 -8 3 -46 -14 -58
-6 -4 -19 -5 -28 -3 -13 3 -18 -2 -18 -18 0 -12 -5 -27 -12 -34 -7 -7 -8 -12
-2 -12 5 0 9 -16 9 -35 -1 -20 4 -47 11 -60 7 -13 10 -26 7 -29 -3 -3 -2 -21
1 -40 l7 -35 444 -1 c307 0 446 3 450 11 4 6 13 8 21 5 8 -3 14 1 14 9 0 8 8
15 17 15 13 0 12 5 -8 26 -13 14 -24 38 -25 54 l-2 29 27 -19 c26 -20 118 -47
179 -53 18 -2 32 -7 32 -10 0 -4 0 -14 0 -22 0 -8 -9 -15 -20 -15 -11 0 -20 5
-20 12 0 6 -3 9 -6 6 -3 -4 -1 -16 6 -27 10 -20 17 -21 265 -21 l255 0 0 23
c1 26 22 57 40 57 9 0 10 10 5 37 -13 69 -17 118 -18 200 -1 46 -5 83 -10 83
-5 0 3 14 17 30 14 17 28 46 32 65 3 20 12 35 20 35 17 0 18 17 2 23 -10 4
-10 6 0 6 20 1 14 28 -20 97 l-32 65 -15 -28 c-8 -15 -15 -37 -16 -48 -1 -12
-9 -20 -21 -20 -10 0 -30 -10 -44 -22 -14 -13 -28 -23 -32 -23 -5 0 -8 -6 -8
-14 0 -13 -35 -47 -139 -136 -29 -25 -66 -63 -81 -85 -15 -22 -41 -55 -58 -73
l-29 -33 -52 21 c-59 23 -61 23 -61 11 0 -6 23 -22 50 -37 28 -15 50 -30 50
-34 0 -31 -111 -51 -195 -35 -43 9 -85 41 -85 65 0 13 1 13 10 0 5 -8 12 -12
15 -8 9 9 96 -20 117 -39 22 -20 23 -7 3 41 -19 44 -125 169 -163 192 -24 13
-52 61 -52 86 0 6 127 -19 141 -28 5 -3 9 0 9 6 0 6 -15 17 -32 25 -56 23 -78
56 -89 129 -5 36 -9 81 -8 99 0 17 -2 44 -6 60 -6 23 -5 26 9 21 9 -4 15 -9
12 -12 -3 -2 -1 -13 5 -24 8 -15 14 -17 24 -8 13 11 13 47 0 88 -7 22 -25 31
-25 11 0 -5 -5 -7 -10 -4 -6 4 -8 11 -5 16 4 5 2 9 -4 9 -15 0 -25 90 -13 122
6 16 6 26 1 22 -5 -3 -9 5 -9 18 0 18 2 20 9 9 12 -19 3 64 -11 101 -5 15 -7
32 -3 37 7 13 75 15 75 3 0 -4 9 -8 20 -9 11 -1 20 2 20 8 0 5 -4 9 -10 9 -14
0 -12 27 2 36 7 4 28 10 47 13 26 5 42 17 66 51 27 38 30 50 25 85 -7 50 -2
75 15 75 17 0 45 -38 45 -61 0 -18 163 -156 215 -182 17 -8 46 -18 65 -22 19
-4 49 -18 66 -31 31 -23 32 -23 49 -4 11 12 16 29 13 45 -6 27 -1 30 22 15 19
-12 30 5 30 51 0 45 26 62 32 21 2 -15 1 -43 -2 -62 -3 -19 -2 -53 2 -75 19
-106 -3 -305 -34 -305 -4 0 -8 -14 -8 -30 0 -18 -6 -33 -15 -36 -19 -8 -48
-65 -37 -76 5 -5 21 3 36 17 15 14 31 25 36 25 4 0 11 6 13 13 3 6 6 0 6 -15
2 -48 19 -36 84 58 40 59 77 128 77 146 0 27 72 157 115 205 55 63 182 168
216 178 34 11 124 59 155 84 14 11 42 25 62 32 20 6 49 22 64 35 15 12 58 32
95 44 37 12 79 33 94 46 14 13 35 24 47 24 37 0 124 50 167 96 31 33 45 41 65
38 16 -3 35 3 53 18 l28 23 -68 1 c-37 0 -81 4 -98 7 -16 4 -50 10 -75 13 -25
4 -50 13 -57 20 -7 7 -30 15 -52 19 -22 3 -42 13 -45 21 -3 8 -15 14 -26 14
-18 0 -19 -2 -8 -13 7 -7 24 -18 38 -24 14 -6 18 -12 10 -12 -8 -1 -28 8 -45
19 -16 11 -38 20 -48 20 -19 0 -97 39 -110 55 -6 7 -10 7 -13 0 -7 -18 -71 -9
-103 14 -17 13 -37 20 -44 18 -7 -3 -5 -6 5 -6 9 -1 21 -7 25 -15 4 -8 49 -37
98 -65 50 -28 83 -51 74 -51 -26 0 -136 39 -187 67 -66 36 -166 96 -172 102
-3 4 -31 23 -62 44 -42 27 -58 43 -58 60 0 21 -1 21 -24 -5 -13 -16 -27 -28
-32 -28 -18 0 -100 86 -96 99 3 9 0 11 -8 6 -10 -6 -11 6 -6 59 5 42 4 66 -3
66 -5 0 -9 12 -9 28 0 15 -9 48 -21 75 -11 26 -17 47 -13 47 4 0 39 5 77 10
91 13 115 26 115 62 0 15 5 28 10 28 6 0 10 -23 10 -51 0 -31 -4 -48 -10 -44
-6 4 -10 -10 -10 -34 0 -23 2 -41 3 -41 7 0 47 38 47 44 0 10 43 66 50 66 3 0
37 -36 76 -80 55 -64 75 -80 96 -80 27 0 25 3 -35 63 -34 35 -75 78 -92 96
l-30 32 33 29 c18 16 33 32 32 35 -1 4 17 27 40 53 l41 47 64 -70 c36 -38 111
-121 167 -185 152 -171 169 -188 189 -193 27 -7 24 6 -8 34 -16 14 -62 63
-103 109 -41 45 -82 90 -90 99 -8 9 -28 32 -44 51 -15 19 -58 66 -94 104 l-65
69 39 33 c22 18 42 33 45 34 3 0 33 -30 65 -67 99 -111 124 -138 124 -127 0 9
-33 49 -112 137 -52 58 -58 85 -25 112 15 11 27 25 27 31 0 28 23 33 61 13 21
-10 56 -19 78 -19 35 0 43 -4 56 -30 8 -16 42 -58 75 -92 33 -34 60 -66 60
-71 0 -5 32 -41 72 -81 54 -54 89 -103 146 -201 40 -71 89 -156 109 -188 57
-94 32 -87 -30 8 -71 110 -75 98 -5 -16 28 -46 64 -109 79 -139 27 -57 44
-120 31 -120 -28 0 -254 225 -367 364 -106 131 -237 277 -243 271 -3 -3 8 -20
25 -38 26 -28 128 -156 218 -272 89 -116 199 -232 315 -333 23 -20 31 -35 28
-53 -3 -26 -6 -25 75 -12 l38 6 -22 23 c-12 13 -31 24 -40 24 -13 0 -16 5 -12
16 6 17 25 15 80 -7 29 -12 35 -11 49 3 15 15 15 18 -9 40 -13 12 -35 30 -47
38 -12 8 -22 24 -23 35 -2 18 3 20 42 16 37 -2 43 -1 38 14 -5 12 2 20 25 29
l31 13 -53 14 c-28 7 -59 23 -69 34 -9 12 -36 34 -59 50 -32 21 -42 34 -38 48
3 14 1 17 -11 13 -13 -5 -14 -1 -9 24 3 19 2 29 -4 25 -6 -4 -13 2 -16 12 -16
49 -39 83 -93 141 -68 74 -80 105 -44 121 33 15 43 14 43 -5 0 -11 5 -14 17
-10 14 6 14 3 -3 -15 l-19 -22 33 6 c18 4 32 2 32 -3 0 -6 -5 -10 -12 -10 -20
0 26 -29 47 -30 11 0 35 -9 53 -20 18 -11 83 -39 145 -61 62 -23 166 -67 232
-99 66 -31 172 -81 235 -110 63 -30 134 -67 158 -83 23 -16 68 -40 100 -55
102 -46 262 -159 262 -185 0 -7 24 -33 53 -57 64 -54 152 -151 218 -240 26
-36 55 -72 64 -80 59 -55 74 -74 102 -131 24 -49 33 -83 37 -144 4 -44 11
-114 18 -156 6 -42 8 -87 5 -101 -8 -32 -50 -75 -112 -115 -28 -18 -55 -37
-61 -42 -7 -5 -14 -8 -17 -5 -3 3 -24 -5 -47 -18 -108 -59 -126 -68 -142 -68
-10 0 -18 -5 -18 -12 0 -6 -3 -8 -7 -5 -3 4 -14 0 -23 -8 -10 -9 -30 -17 -46
-19 -16 -2 -56 -14 -89 -26 -33 -12 -67 -23 -75 -24 -8 -1 -33 -7 -55 -13 -22
-6 -67 -12 -100 -13 -33 0 -64 -5 -70 -11 -5 -5 -20 -9 -33 -9 -15 0 -21 -4
-16 -12 5 -8 -2 -9 -24 -5 -20 4 -32 2 -32 -4 0 -6 -8 -8 -18 -5 -10 4 -38 -1
-62 -9 -23 -8 -53 -15 -66 -15 -13 0 -24 -4 -24 -10 0 -5 -13 -10 -29 -10 -16
0 -36 -6 -43 -14 -14 -14 -168 -44 -248 -49 l-45 -2 65 -21 65 -21 -30 -12
c-38 -16 -249 -9 -287 9 -23 11 -29 10 -43 -4 -9 -9 -25 -16 -35 -16 -31 0
-33 -18 -3 -22 47 -5 40 -33 -16 -57 -27 -11 -58 -21 -69 -21 -10 0 -24 -11
-30 -25 -7 -14 -24 -31 -39 -38 -39 -17 -57 -36 -58 -61 0 -28 -22 -24 -87 19
-29 19 -56 35 -61 35 -4 0 -19 11 -33 25 -24 24 -44 32 -44 18 0 -16 55 -76
91 -98 39 -25 64 -75 41 -83 -7 -2 -12 -12 -12 -22 0 -33 -19 -32 -79 4 -32
20 -62 36 -67 36 -15 0 11 -19 70 -49 l58 -31 2124 0 2124 0 0 3931 c0 3087
-3 3929 -12 3923 -7 -5 -48 -9 -91 -10 -71 -3 -82 0 -130 28 -29 17 -53 29
-55 28 -2 -1 -62 17 -134 41 -93 31 -132 49 -136 61 -2 10 -12 18 -21 18 -9 0
-21 4 -27 10 -6 6 -33 6 -74 0 -101 -15 -120 -13 -120 10 0 13 -12 25 -35 34
-33 14 -122 32 -138 28 -4 -1 -26 7 -48 18 -23 10 -60 19 -83 18 -23 0 -52 5
-63 13 -18 11 -30 10 -73 -4 -68 -22 -150 -23 -150 -2 0 11 -12 15 -50 15 -28
0 -65 7 -82 16 -32 17 -112 12 -123 -7 -4 -5 -17 -9 -30 -9 -20 0 -25 -7 -31
-37 -10 -52 -30 -72 -68 -66 -17 2 -75 -4 -128 -15 -54 -11 -105 -18 -115 -16
-10 3 -26 -1 -37 -9 -16 -12 -22 -10 -49 15 -20 18 -42 28 -62 28 -17 0 -35 4
-40 9 -22 20 -110 41 -185 45 -47 2 -81 13 -91 29 -4 5 -27 12 -53 14 -26 3
-49 10 -52 14 -3 5 -23 9 -44 9 -21 0 -41 4 -45 10 -3 5 -13 6 -21 3 -9 -3
-20 0 -24 7 -4 7 -26 13 -49 13 -29 0 -41 4 -41 14 0 9 -6 13 -15 9 -8 -3 -14
0 -12 6 1 7 -20 15 -52 20 -32 5 -68 18 -87 33 -18 14 -40 25 -48 25 -9 0 -16
5 -16 10 0 6 -6 10 -13 10 -29 0 -77 65 -83 112 -6 41 -3 52 25 93 17 25 31
50 31 54 0 13 65 68 89 76 23 7 29 25 9 25 -15 0 -88 -50 -88 -61 0 -4 -8 -10
-19 -14 -10 -3 -29 -30 -42 -60 -13 -30 -31 -56 -41 -58 -10 -3 -22 -16 -27
-30 -5 -13 -26 -34 -45 -45 -20 -12 -36 -27 -36 -34 0 -26 -163 -67 -258 -65
-55 2 -66 5 -82 27 l-20 25 0 -35 c0 -25 -3 -31 -9 -21 -5 8 -18 16 -28 18
-21 4 -134 6 -148 2 -6 -1 -27 1 -48 6 -21 4 -59 8 -85 10 -48 2 -115 12 -142
22 -8 3 -29 6 -46 7 -17 1 -47 12 -67 23 -20 12 -58 26 -84 31 -26 5 -55 12
-64 16 -9 4 -25 -2 -38 -13 -27 -24 -48 -18 -64 18 l-11 26 -4 -33 c-3 -26 -7
-32 -21 -27 -9 3 -159 7 -332 8 -240 3 -322 7 -346 17 -18 8 -33 18 -33 23 0
4 -4 5 -10 2 -6 -3 -10 -14 -10 -24 0 -24 -28 -47 -40 -35 -14 14 -41 154 -34
177 3 11 9 15 13 10 11 -17 49 -33 78 -33 33 0 118 29 88 30 -11 0 -27 5 -35
10 -13 9 -13 11 0 20 12 7 12 10 1 10 -7 0 -11 6 -7 15 3 8 2 14 -2 13 -4 -1
-34 11 -67 26 -51 24 -57 30 -40 37 13 5 -17 8 -80 7 -74 -1 -108 -6 -131 -19
-23 -13 -35 -14 -43 -6 -14 14 -14 2 -1 -24 8 -15 7 -19 -5 -19 -8 0 -15 -4
-15 -10 0 -5 -4 -10 -10 -10 -5 0 -10 6 -10 14 0 17 -139 38 -158 23 -9 -7
-20 -6 -35 1 -12 7 -31 12 -42 11 -32 -1 -118 12 -135 20 -20 10 -133 6 -190
-6 -53 -12 -100 -33 -100 -45 0 -4 -7 -8 -15 -8 -14 0 -37 -31 -34 -47 6 -37
-52 -49 -70 -14 -8 15 -5 20 15 30 21 9 24 14 14 26 -7 8 -17 12 -22 9 -6 -4
-14 -1 -18 5 -8 13 -175 18 -272 7 -31 -3 -60 -1 -63 4 -3 5 -51 7 -107 6 -56
-2 -131 0 -167 4 -74 7 -114 3 -104 -13 4 -6 -4 -7 -23 -2 -27 8 -127 8 -184
1 -14 -2 -43 -4 -64 -5 -22 0 -36 -4 -33 -8 4 -3 -3 -11 -16 -18 -18 -9 -22
-18 -19 -53 l2 -42 -46 0 -47 0 7 41 c7 44 -1 70 -15 48 -6 -10 -11 -11 -20
-2 -8 8 -6 13 10 18 30 9 26 22 -6 23 -16 0 -48 1 -73 2 -116 3 -343 -9 -349
-18 -8 -14 -44 -10 -54 6 -10 15 -39 16 -55 0 -9 -9 -27 -8 -79 1 -54 11 -84
11 -147 1 -49 -7 -113 -9 -171 -5 -63 5 -105 3 -129 -5 -41 -13 -41 -12 -21
-50 14 -27 14 -30 0 -30 -11 0 -14 -6 -9 -25 5 -19 2 -25 -10 -25 -25 0 -31 4
-28 18 2 6 -3 12 -11 12 -9 0 -14 11 -14 30 0 16 -7 38 -17 49 -15 17 -28 18
-114 14 -57 -3 -100 -10 -104 -16 -6 -9 -8 -9 -8 0 0 9 -27 11 -97 8 -54 -2
-170 -7 -258 -11 -188 -7 -300 -8 -312 -1 -4 2 -48 5 -98 6 -49 1 -100 5 -112
8 -21 5 -23 1 -23 -31 0 -29 -4 -36 -19 -36 -23 0 -36 16 -21 25 5 3 8 16 5
28 -8 34 8 52 33 38 31 -16 63 -14 56 4 -4 9 0 15 10 15 9 0 16 -4 16 -9 0 -5
22 -8 49 -8 27 1 47 5 45 9 -7 11 20 16 43 7 13 -5 25 -4 28 2 4 5 25 10 48 9
168 -1 265 6 290 23 32 21 34 45 6 76 -16 17 -18 25 -9 36 7 9 9 30 5 59 -4
25 -4 54 0 63 23 53 6 99 -39 107 -42 7 -197 -1 -205 -11 -3 -4 -27 -9 -53
-11 -40 -2 -50 1 -72 25 -14 15 -26 22 -26 16 0 -6 -8 -11 -17 -11 -10 0 -22
-1 -28 -2 -16 -5 -60 16 -49 23 6 3 56 7 112 9 62 2 101 7 99 13 -2 6 -26 9
-53 8 l-49 -2 50 9 c31 6 51 6 53 0 2 -6 9 -7 15 -3 13 8 35 10 187 18 218 12
240 12 240 6 0 -4 30 -6 68 -4 37 2 61 0 55 -3 -7 -3 -13 -10 -13 -15 0 -6 9
-5 21 2 13 7 52 9 98 7 55 -3 81 -1 90 9 6 7 20 13 31 13 10 0 22 5 25 11 4 6
9 79 12 163 4 128 2 154 -10 165 -9 7 -58 14 -118 17 -57 3 -108 9 -115 15 -7
5 -16 9 -20 8 -27 -5 -64 2 -59 11 4 6 -2 7 -17 1 -13 -5 -53 -11 -90 -15 -37
-3 -78 -11 -92 -18 -21 -9 -29 -8 -43 5 -15 13 -41 15 -170 10 -106 -3 -153
-1 -153 6 0 6 8 11 18 12 14 0 14 2 -3 9 -11 5 -14 9 -7 9 7 1 10 6 6 12 -4 8
3 9 22 5 16 -3 46 -7 67 -8 21 -1 41 -6 43 -10 3 -4 11 -8 17 -8 7 0 6 4 -3
10 -23 15 -9 18 53 11 43 -5 61 -4 69 6 8 10 14 11 22 3 13 -13 29 -13 20 1
-4 8 0 8 15 0 18 -10 22 -9 28 6 4 10 11 21 16 24 12 9 10 83 -4 149 -6 30
-12 77 -12 103 0 27 -3 44 -6 39 -3 -5 -14 6 -23 24 -10 19 -13 34 -8 34 6 0
10 4 10 10 0 5 -7 6 -17 3 -11 -4 -14 -3 -9 5 5 8 2 10 -8 6 -9 -3 -14 -9 -12
-13 3 -4 -30 -7 -72 -8 -42 0 -65 2 -49 4 15 2 27 8 27 13 0 4 -9 6 -20 3 -11
-3 -27 2 -36 11 -15 15 -13 16 27 11 24 -3 61 -5 83 -5 87 1 111 -1 120 -10 7
-7 6 -10 -3 -10 -8 0 -10 -8 -6 -22 5 -18 4 -19 -4 -8 -5 8 -13 11 -17 7 -5
-4 4 -20 19 -35 l27 -27 0 25 c0 15 4 20 9 15 5 -6 11 -56 14 -111 5 -127 17
-146 102 -168 73 -19 126 -24 325 -31 246 -9 447 -7 468 4 16 8 21 7 26 -6 5
-13 16 -14 64 -8 100 13 117 14 129 3 7 -6 14 -7 15 -2 0 5 2 14 3 19 2 6 3
18 4 29 1 15 4 16 16 6 8 -7 15 -8 15 -2 0 5 -7 15 -15 22 -8 7 -15 22 -14 34
0 11 3 15 6 8 2 -6 9 -10 14 -6 16 10 10 24 -11 24 -15 0 -20 7 -20 25 0 32
32 135 42 135 4 0 8 5 8 11 0 16 -20 -1 -30 -25 -8 -20 -8 -20 -19 8 -6 16 -9
37 -5 48 4 15 2 19 -13 17 -10 -2 -24 0 -30 4 -9 6 -11 3 -6 -9 4 -11 2 -15
-6 -13 -7 3 -12 9 -12 14 1 14 -51 26 -63 15 -16 -13 -138 -7 -161 8 -16 11
-17 12 -2 8 10 -3 20 0 23 8 8 21 201 12 226 -11 10 -9 21 -13 25 -10 3 4 0 7
-7 7 -28 0 3 15 33 16 18 1 67 5 110 9 76 8 77 8 77 -15 0 -17 -3 -20 -13 -12
-19 16 -105 13 -111 -4 -3 -8 0 -14 6 -14 7 0 7 -4 -1 -14 -8 -9 -8 -16 -2
-20 6 -4 7 -16 2 -29 -7 -18 -7 -172 0 -172 1 0 3 -16 4 -35 2 -19 8 -48 15
-65 7 -16 12 -34 11 -40 -2 -5 0 -7 4 -3 4 4 18 3 31 -3 19 -7 26 -5 31 7 4
12 14 14 43 9 23 -4 41 -2 45 4 8 13 45 15 45 2 0 -5 11 -11 24 -13 17 -4 23
-1 19 9 -9 24 24 13 35 -12 11 -24 10 -25 -21 -27 -57 -2 -62 -4 -59 -17 1 -7
-2 -10 -7 -6 -6 3 -25 -2 -42 -11 -21 -10 -42 -14 -63 -9 -53 11 -298 17 -356
8 -30 -5 -95 -6 -145 -2 -86 5 -235 -6 -264 -20 -21 -10 -24 -264 -3 -313 9
-21 22 -38 29 -38 8 0 16 -7 19 -15 4 -8 10 -15 16 -15 5 0 7 4 4 8 -3 5 34
14 82 21 113 17 171 20 177 11 2 -4 16 -5 30 -2 15 2 25 0 25 -7 0 -16 41 -13
64 4 10 8 24 11 30 7 18 -11 45 -12 51 -3 3 6 18 6 37 0 17 -5 34 -7 36 -4 3
3 11 0 17 -5 9 -7 14 -6 18 4 4 9 14 12 26 9 12 -3 18 -10 15 -15 -4 -7 2 -7
17 -2 31 10 201 5 215 -7 6 -5 65 -9 130 -9 143 -1 154 -2 150 -9 -2 -3 -29
-6 -60 -5 -32 0 -53 -3 -49 -9 3 -5 -11 -6 -36 -2 -26 4 -41 3 -41 -4 0 -6 23
-9 63 -7 34 2 71 0 82 -5 21 -8 -142 -14 -293 -11 -51 2 -81 -1 -77 -7 3 -6
-6 -6 -26 -1 -26 8 -35 6 -46 -8 -9 -11 -16 -13 -19 -6 -3 6 -16 9 -30 6 -17
-3 -30 2 -39 14 -14 18 -14 18 -15 -2 0 -12 5 -36 11 -53 9 -24 9 -35 0 -44
-16 -16 -14 -68 4 -110 8 -20 15 -50 15 -66 0 -52 7 -59 51 -54 27 4 50 0 73
-12 31 -17 34 -17 68 -1 30 15 56 17 160 12 68 -3 137 -10 154 -16 23 -8 43
-8 75 1 24 7 98 13 164 14 66 1 141 5 168 10 36 5 53 3 72 -9 23 -15 26 -15
45 1 11 10 20 23 20 30 0 7 3 12 8 12 19 -3 33 2 27 10 -3 5 4 12 15 16 18 6
27 36 21 69 -1 6 0 20 4 33 7 30 24 21 18 -10 -3 -14 2 -29 11 -36 14 -11 16
-11 16 3 0 10 -5 14 -10 11 -6 -3 -10 3 -10 14 0 24 15 23 42 -1 22 -22 23
-32 3 -24 -8 3 -15 2 -15 -3 0 -5 10 -11 21 -14 18 -5 21 -12 17 -46 -2 -23 1
-42 6 -44 5 -2 7 -11 3 -21 -5 -13 -11 -15 -24 -7 -13 6 -22 5 -31 -5 -12 -13
-8 -18 10 -15 4 0 5 -5 2 -13 -7 -17 30 -28 45 -13 7 7 73 11 184 12 136 0
179 4 207 17 47 22 80 28 80 16 0 -6 7 -8 15 -5 8 4 17 2 20 -3 4 -6 1 -10 -4
-10 -6 0 -11 -4 -11 -10 0 -5 7 -10 15 -10 8 0 15 5 15 12 0 6 3 8 7 5 3 -4
12 -2 18 3 7 5 81 12 166 15 85 3 169 8 187 11 18 2 31 0 28 -5 -3 -4 6 -6 19
-3 14 2 25 8 25 13 0 5 10 9 23 9 18 0 19 -2 7 -10 -15 -10 -14 -10 83 -14 15
-1 27 2 27 6 0 5 12 7 28 6 48 -3 82 2 82 12 0 6 -11 10 -24 10 -14 0 -28 5
-32 11 -4 6 -6 67 -5 135 l1 123 -38 10 c-20 6 -51 11 -69 11 -26 0 -31 -3
-26 -16 5 -14 3 -14 -16 -2 -23 14 -37 50 -26 68 3 5 11 7 18 3 6 -3 27 -8 46
-9 66 -4 131 -17 137 -25 3 -5 13 -9 22 -9 15 0 15 2 2 10 -10 6 -11 10 -2 10
23 0 27 -2 24 -12 -1 -5 6 -7 17 -3 16 5 18 2 14 -15 -3 -11 -9 -23 -14 -26
-16 -9 -11 -111 6 -118 8 -3 12 -12 9 -20 -3 -8 -1 -17 4 -20 5 -3 7 -17 5
-31 -7 -33 33 -49 107 -41 33 3 49 2 40 -4 -14 -9 156 -7 235 3 155 18 341 30
490 31 61 1 115 4 122 9 6 4 18 4 26 1 17 -6 59 34 51 48 -3 4 2 11 10 14 21
8 20 33 0 55 -9 10 -13 23 -8 30 5 9 10 7 15 -7 5 -12 8 -1 8 34 1 46 -1 52
-19 52 -11 0 -20 5 -20 10 0 6 -7 10 -16 10 -12 0 -15 -7 -12 -30 5 -34 -11
-54 -36 -44 -20 8 -21 24 -1 24 18 0 17 -3 6 38 -7 24 -7 32 3 32 8 0 27 3 44
6 22 4 30 2 29 -7 -1 -8 3 -14 8 -14 6 0 9 6 9 13 -3 20 24 14 31 -8 10 -31
33 -24 41 12 l7 33 15 -23 c8 -12 23 -22 33 -22 27 0 49 -52 28 -66 -6 -4 -6
-10 0 -17 6 -8 4 -17 -6 -26 -13 -12 -14 -11 -8 8 6 20 -2 26 -27 22 -5 0 -8
9 -8 21 0 19 -2 20 -10 8 -13 -19 -13 -53 -1 -45 6 3 15 -5 22 -17 11 -21 11
-22 -4 -9 -14 11 -18 11 -23 -2 -10 -27 0 -72 16 -72 8 0 16 -5 16 -10 1 -6
-2 -9 -7 -7 -5 1 -9 -8 -9 -19 0 -21 3 -22 68 -16 38 4 72 4 76 -1 8 -7 28 -9
160 -12 55 -2 81 1 86 10 4 7 15 10 25 7 9 -4 14 -3 10 3 -3 6 3 10 14 10 12
0 21 -7 21 -16 0 -8 5 -12 10 -9 6 3 10 1 10 -5 0 -7 12 -9 35 -4 29 5 98 8
395 14 14 0 36 3 50 6 l25 6 -25 10 c-13 5 -42 6 -63 2 -28 -4 -37 -3 -33 5 4
6 16 11 27 11 10 0 19 3 19 8 0 4 19 8 42 9 23 2 46 7 51 12 5 5 -3 6 -18 4
-30 -6 -60 24 -44 44 7 8 4 15 -11 23 -11 6 -18 15 -15 21 4 5 1 9 -5 9 -15 0
-40 25 -40 39 0 7 10 9 28 5 36 -9 43 -14 37 -24 -6 -9 18 -20 46 -20 10 0 19
-4 19 -10 0 -5 -5 -10 -10 -10 -6 0 -5 -6 2 -14 7 -8 15 -12 17 -10 2 2 13 -3
25 -11 30 -21 36 -19 36 15 0 17 -5 30 -12 30 -9 0 -8 4 2 10 8 5 11 10 6 10
-6 0 -3 6 6 13 17 13 31 57 19 57 -8 0 -11 18 -11 56 0 18 -7 23 -41 26 -22 2
-43 0 -45 -4 -3 -5 -13 -4 -22 1 -25 13 -94 10 -88 -4 7 -20 -9 -34 -32 -28
-12 3 -22 9 -22 14 0 5 -10 9 -22 8 l-23 0 23 -9 c12 -5 22 -15 22 -23 0 -19
-35 -15 -59 7 -15 14 -24 16 -33 8 -17 -13 -91 -22 -205 -25 -84 -2 -90 -3
-82 -19 12 -23 -9 -24 -37 -3 -10 8 -29 15 -41 15 -13 0 -23 4 -23 9 0 4 12 6
26 3 22 -4 25 -2 22 19 -3 21 -9 24 -48 25 -51 2 -92 8 -107 17 -10 6 -93 -11
-106 -23 -4 -3 -33 -3 -65 2 -31 4 -70 5 -86 2 -22 -5 -27 -3 -20 7 7 12 5 12
-9 1 -9 -8 -31 -13 -49 -12 -86 5 -145 3 -162 -5 -16 -7 -18 -5 -13 8 3 9 2
17 -3 17 -6 0 -10 -4 -10 -9 0 -5 -19 -7 -42 -4 -23 4 -39 2 -36 -3 4 -5 -14
-9 -38 -10 -41 0 -44 2 -43 25 1 17 3 20 6 9 5 -18 33 -25 33 -9 0 6 43 9 99
8 63 -2 97 1 95 8 -2 5 10 11 26 12 17 1 29 -1 26 -5 -4 -6 131 -8 144 -2 3 2
-11 6 -30 10 -24 6 -2 8 65 7 55 -1 109 2 119 7 14 7 17 6 12 -2 -5 -8 1 -12
18 -12 14 0 27 4 30 9 4 5 -4 7 -16 3 -15 -4 -19 -2 -14 7 6 9 31 10 94 5 139
-12 171 -6 172 31 0 11 -623 0 -1135 -21 -456 -19 -531 -20 -544 -10 -10 8
-12 38 -7 146 3 74 8 270 11 435 3 165 8 343 10 395 3 52 9 277 15 500 5 223
12 484 15 580 3 96 8 287 11 423 l7 248 -126 -2 c-121 -1 -126 -2 -147 -26
-16 -19 -19 -28 -10 -33 9 -5 9 -9 1 -14 -7 -5 -11 -40 -10 -94 1 -48 0 -89
-1 -92 -6 -18 -8 -175 -2 -220 6 -44 11 -54 25 -52 24 4 21 -15 -3 -21 -20 -5
-29 -47 -10 -47 6 0 10 10 10 23 0 16 3 18 9 9 6 -10 12 -5 20 19 10 29 9 36
-5 46 -15 11 -15 13 0 28 11 12 16 35 16 78 0 83 17 56 19 -30 1 -36 4 -69 7
-74 3 -5 0 -9 -6 -9 -6 0 -9 -8 -6 -17 8 -28 8 -103 0 -288 -4 -93 -8 -220 -8
-281 -1 -100 -3 -110 -18 -106 -10 2 -18 8 -18 13 0 14 -28 11 -33 -3 -3 -7
-6 1 -6 18 -1 19 -11 39 -27 55 l-25 24 5 160 c3 88 8 300 12 470 3 171 8 327
9 348 4 43 -1 44 -48 17 -90 -53 -448 -156 -711 -205 -50 -9 -97 -20 -106 -25
-9 -5 -53 -11 -98 -15 -126 -8 -136 -15 -139 -95 -6 -179 -5 -719 2 -729 4 -8
24 -10 58 -7 74 8 772 19 1005 17 28 -1 52 -5 52 -11 0 -5 -13 -10 -29 -10
-17 0 -33 -5 -36 -10 -5 -8 -11 -8 -20 0 -9 8 -14 8 -17 -1 -5 -14 -212 -13
-238 1 -9 5 -33 5 -57 0 -24 -6 -53 -6 -71 0 -18 4 -34 5 -37 0 -12 -19 -236
-43 -274 -29 -13 5 -29 6 -35 1 -6 -4 -45 -8 -86 -7 -41 0 -78 -4 -82 -10 -5
-7 -11 -7 -15 0 -11 15 -117 19 -142 5 -20 -10 -21 -9 -16 13 4 14 2 28 -4 31
-7 5 -11 -2 -11 -18 0 -23 -63 -106 -82 -106 -4 0 -8 208 -8 461 l0 462 -77
-7 c-43 -3 -89 -8 -103 -10 -69 -12 -147 -21 -315 -35 -61 -6 -122 -14 -136
-19 -14 -6 -38 -8 -53 -5 -22 5 -27 3 -21 -7 6 -10 2 -12 -16 -7 -13 3 -39 0
-58 -7 -31 -11 -24 -13 90 -24 87 -8 142 -9 184 -2 33 5 88 10 122 10 34 0 65
5 68 10 3 6 14 10 23 9 11 0 13 -2 4 -6 -10 -4 -10 -8 -2 -18 10 -12 5 -13
-26 -8 -26 4 -35 3 -30 -5 4 -7 -6 -15 -26 -21 l-33 -9 37 -1 c41 -1 51 -10
37 -31 -7 -13 -9 -12 -9 3 0 9 -4 17 -9 17 -13 0 -22 -43 -11 -54 15 -15 12
-72 -5 -86 -12 -10 -16 -9 -21 4 -9 22 5 34 16 16 8 -13 10 -12 10 3 0 9 -5
17 -11 17 -6 0 -8 9 -4 20 4 11 2 20 -4 20 -6 0 -13 -11 -17 -25 -7 -29 -27
-28 -33 0 -2 13 1 16 13 12 11 -5 16 -1 16 14 0 11 5 29 10 40 7 11 7 19 1 19
-5 0 -12 -6 -14 -12 -3 -7 -6 -2 -6 12 -1 18 -4 21 -10 11 -5 -7 -13 -11 -19
-8 -5 4 -34 0 -63 -7 -36 -10 -56 -11 -60 -4 -4 6 -9 5 -12 -3 -4 -11 -6 -11
-6 -1 -1 7 -6 10 -11 7 -17 -10 -117 -18 -198 -16 -39 1 -80 -3 -90 -8 -13 -7
-22 -7 -29 0 -8 8 -17 8 -31 0 -25 -13 -353 -13 -407 1 -37 9 -38 11 -20 24
25 18 36 18 29 -1 -4 -8 -1 -15 5 -15 18 0 25 31 10 41 -14 9 2 11 105 13 22
1 41 6 43 12 8 24 -62 33 -312 38 -143 3 -341 13 -440 22 -99 9 -200 17 -225
18 -26 1 -50 5 -56 8 -5 4 -38 14 -73 23 -160 41 -222 82 -224 149 -1 24 6 43
22 60 27 29 131 85 214 116 31 12 57 26 57 31 0 5 8 9 18 9 10 0 22 4 28 9 5
6 32 14 59 19 32 6 -1197 10 -3407 11 l-3458 1 0 -2211z m7805 1207 c72 1 141
4 155 8 24 6 24 6 3 -3 -13 -6 -23 -12 -23 -13 0 -3 74 -6 279 -9 125 -2 145
0 156 14 15 21 29 22 21 2 -4 -11 1 -15 17 -14 12 0 16 3 9 6 -23 9 -1 23 36
22 37 -1 37 -1 7 -8 -51 -12 -2 -19 107 -17 104 2 147 -8 84 -20 -26 -4 -34
-9 -25 -15 22 -13 3 -22 -21 -9 -12 6 -28 9 -35 6 -7 -2 -16 -2 -20 2 -8 9
-127 3 -137 -7 -5 -4 -43 -3 -85 1 -102 10 -150 3 -170 -28 -17 -27 -33 -31
-33 -9 0 9 -9 15 -25 15 -31 0 -31 7 -2 32 l22 20 -25 -4 c-19 -2 -26 -11 -32
-38 -4 -19 -5 -42 -1 -50 3 -8 8 -44 9 -80 2 -36 7 -98 12 -137 8 -72 2 -91
-17 -55 -13 25 -36 176 -35 242 0 30 -4 58 -9 61 -4 3 -3 16 2 30 5 13 10 18
10 12 1 -15 21 -18 21 -3 0 15 -72 31 -86 19 -7 -6 -18 -8 -23 -4 -6 3 -27 1
-47 -4 -21 -6 -42 -7 -48 -3 -16 9 -70 2 -78 -11 -4 -8 -10 -8 -20 0 -21 17
-87 25 -183 24 -82 -2 -88 -1 -70 13 14 10 32 13 59 9 29 -4 37 -3 32 6 -6 8
4 9 36 4 24 -5 102 -7 173 -7z m473 -438 c9 -9 12 -9 12 0 0 18 31 15 45 -5
12 -16 24 -14 57 9 15 11 20 9 33 -10 15 -20 23 -22 111 -21 52 1 98 -1 101
-5 3 -3 -8 -6 -25 -6 -24 0 -32 -5 -32 -17 0 -10 -4 -14 -8 -8 -8 12 -102 14
-102 3 0 -5 -18 -8 -39 -8 -22 0 -43 -4 -46 -10 -9 -15 -58 -12 -83 6 -12 8
-27 12 -33 9 -21 -14 -99 -17 -99 -4 0 8 -4 8 -15 -1 -20 -16 -75 -23 -89 -11
-7 6 -29 10 -51 11 -22 1 -53 2 -70 3 -16 1 -45 -2 -62 -7 -26 -6 -33 -4 -33
7 0 28 27 36 146 40 77 3 128 9 143 18 19 11 25 11 28 2 4 -10 10 -9 26 2 26
18 68 20 85 3z m-668 -57 c0 -14 2 -14 10 -1 7 11 36 15 114 18 91 4 106 2
106 -11 0 -20 -8 -25 -59 -33 -36 -6 -41 -4 -35 10 8 20 -18 22 -49 2 -27 -17
-156 -28 -196 -16 -17 4 -40 6 -51 3 -21 -6 -21 -9 -17 -177 4 -175 0 -217
-20 -223 -8 -3 -12 12 -12 44 0 26 -3 111 -7 187 -5 103 -4 137 5 132 15 -10
13 5 -4 28 -14 19 -15 18 -16 -10 -1 -28 -1 -28 -8 -4 -6 21 -13 25 -41 23
-19 -1 -36 -7 -38 -13 -3 -9 -7 -9 -13 1 -8 12 -10 12 -18 0 -8 -12 -13 -12
-35 2 -14 9 -31 17 -38 17 -9 0 -9 -3 2 -10 12 -8 10 -10 -10 -11 -23 0 -23
-1 -5 -9 13 -6 -7 -9 -62 -9 -45 -1 -88 -3 -96 -6 -7 -3 -25 3 -38 14 l-24 20
25 -5 c20 -5 22 -4 10 5 -12 9 -6 11 25 8 22 -2 95 1 162 7 84 8 124 8 128 1
3 -6 7 -5 11 3 3 6 24 12 47 13 23 0 62 4 87 8 25 5 71 8 103 8 45 0 57 -4 57
-16z m1280 -266 c7 -9 18 -14 24 -12 6 2 21 0 33 -4 14 -5 23 -4 27 4 3 9 8 7
18 -4 7 -9 19 -14 26 -11 7 2 20 -2 28 -9 9 -7 24 -14 33 -14 63 -5 67 -6 46
-15 -19 -9 -19 -9 3 -16 30 -9 28 -20 -5 -29 l-28 -8 25 -7 c14 -3 34 -2 46 3
13 5 38 5 65 -1 32 -7 37 -10 17 -11 -15 -1 -29 -5 -32 -10 -8 -13 56 -42 70
-31 6 5 46 9 90 9 43 0 120 2 169 6 50 3 154 6 233 6 85 0 140 4 137 10 -4 5
10 9 29 9 35 0 48 -13 24 -23 -7 -3 3 -6 22 -6 28 -1 36 -5 37 -21 2 -23 13
-22 -167 -18 -74 1 -164 3 -200 3 -36 0 -70 3 -76 7 -6 4 -25 3 -43 -2 -17 -5
-71 -6 -120 -3 -82 5 -201 -4 -174 -14 10 -4 9 -11 -2 -32 -17 -35 -28 -151
-13 -151 6 0 4 -7 -3 -17 -10 -12 -13 -40 -11 -101 3 -73 7 -88 27 -108 20
-20 28 -22 50 -14 33 13 38 13 30 0 -5 -7 11 -9 47 -4 29 3 64 6 78 5 135 -5
254 -1 260 9 5 8 10 8 14 2 3 -5 31 -10 61 -10 44 1 55 4 51 15 -4 9 -2 11 7
6 6 -4 49 -6 95 -4 70 3 82 1 82 -13 0 -10 -10 -17 -27 -18 -81 -4 -138 -19
-138 -35 0 -6 -3 -15 -7 -19 -5 -4 -8 -3 -8 2 0 13 -61 16 -418 15 -277 0
-323 2 -318 15 3 8 1 14 -4 14 -6 0 -10 -5 -10 -11 0 -5 -4 -8 -9 -5 -5 4 -22
1 -37 -4 -16 -6 -30 -7 -33 -2 -10 15 -61 20 -74 8 -19 -18 -87 -19 -87 -1 0
8 -10 17 -22 20 -17 4 -23 14 -24 35 -1 20 3 27 12 23 8 -3 14 -10 14 -15 0
-7 5 -6 14 1 9 7 29 9 56 5 35 -6 46 -4 56 11 12 16 17 16 65 4 34 -9 54 -20
57 -31 5 -19 22 -25 22 -8 0 6 8 10 18 10 13 0 14 -2 3 -9 -9 -6 -10 -11 -2
-15 16 -10 31 2 24 19 -3 9 1 15 11 15 9 0 16 5 16 12 0 6 7 19 16 29 9 10 13
23 9 29 -10 15 -12 140 -3 146 11 7 10 51 -1 58 -4 3 -7 25 -5 49 5 55 -12 64
-108 59 -65 -4 -68 -5 -68 -29 0 -21 -2 -23 -15 -13 -18 15 -35 5 -35 -20 0
-19 -44 -39 -57 -26 -4 3 1 6 10 6 22 0 22 13 0 32 -26 22 -49 28 -62 15 -8
-8 -11 -6 -11 6 0 20 -42 40 -51 24 -4 -5 -14 -7 -23 -4 -22 9 -23 95 -1 103
8 4 15 15 15 26 0 11 5 28 10 39 7 13 7 19 0 19 -5 0 -10 7 -10 16 0 13 3 14
14 5 10 -9 16 -8 26 4 7 8 19 15 27 15 8 0 11 5 8 10 -10 16 21 11 35 -5z
m1782 -1661 c10 -17 21 -58 24 -92 l7 -61 -32 9 c-18 5 -74 9 -125 9 -52 0
-105 6 -120 12 -27 13 -36 49 -12 49 29 0 27 21 -3 31 -44 16 -39 36 7 30 6
-1 12 3 12 10 0 7 10 9 30 6 17 -4 30 -2 30 3 0 15 47 12 54 -2 4 -7 4 -3 2
10 -4 22 -2 23 52 20 51 -3 58 -6 74 -34z m-8463 -178 c6 -7 9 -20 6 -29 -8
-20 45 -29 166 -28 l96 1 10 -42 c6 -24 12 -49 14 -57 3 -9 -43 -27 -164 -63
-93 -27 -170 -48 -172 -46 -5 4 -35 236 -34 258 0 8 7 2 14 -15 l14 -30 7 33
c7 34 24 41 43 18z m2318 -307 c26 8 35 6 52 -13 12 -12 18 -25 15 -28 -8 -9
6 -48 17 -48 6 0 7 5 4 10 -3 6 3 10 14 10 32 0 36 -1 34 -11 -2 -5 1 -9 6 -9
5 0 11 -9 14 -20 3 -11 1 -20 -4 -20 -5 0 -9 -7 -9 -15 0 -10 10 -15 28 -15
32 0 43 -7 59 -37 17 -31 6 -53 -26 -53 -19 0 -32 -8 -44 -29 -16 -27 -19 -28
-48 -18 -25 10 -33 9 -43 -3 -17 -22 -53 -40 -68 -35 -7 3 -14 23 -15 45 -1
34 2 40 20 40 17 0 18 3 9 12 -10 10 -17 10 -33 0 -17 -11 -25 -11 -44 2 -13
9 -42 18 -65 22 -24 4 -45 14 -51 25 -5 11 -16 16 -24 13 -24 -10 -8 20 23 43
15 10 35 22 46 26 16 7 17 9 3 30 -17 27 -8 38 46 58 20 7 37 18 37 24 0 5 4
4 8 -2 6 -9 17 -10 39 -4z m-504 -156 c53 -11 102 -24 108 -30 13 -13 -8 -61
-31 -68 -19 -6 -40 -46 -40 -75 0 -10 -4 -21 -8 -24 -4 -2 -7 -20 -7 -38 1
-30 4 -33 33 -36 17 -2 71 -23 119 -46 106 -52 158 -70 183 -63 16 4 18 1 13
-25 -5 -28 -4 -30 16 -23 12 3 38 9 59 11 20 3 40 10 45 17 6 8 7 7 4 -5 -4
-12 2 -18 24 -23 34 -8 56 6 61 38 3 21 7 23 38 14 8 -2 12 -2 8 0 -5 3 -8 9
-8 15 0 26 27 -15 28 -42 0 -17 5 -45 11 -63 5 -18 11 -45 13 -62 3 -28 1 -30
-32 -32 -148 -8 -198 -12 -214 -15 -24 -4 -36 34 -24 77 9 35 -2 51 -28 37
-30 -16 -57 -25 -89 -29 -86 -10 -95 -14 -170 -87 -41 -40 -75 -79 -75 -87 0
-8 -6 -26 -14 -41 -11 -22 -12 -29 -2 -37 10 -8 17 -1 29 29 8 22 20 40 26 40
18 0 23 -21 8 -38 -7 -9 -17 -25 -20 -34 -4 -10 -13 -18 -21 -18 -8 0 -24 -15
-35 -34 -25 -40 -74 -64 -95 -47 -10 9 -16 9 -21 1 -4 -6 -13 -9 -21 -6 -7 3
-16 1 -19 -4 -4 -6 -15 -10 -26 -10 -10 0 -19 -5 -19 -11 0 -8 -5 -8 -15 1
-12 10 -15 10 -15 -3 0 -8 5 -17 10 -19 6 -2 11 -26 12 -53 1 -28 7 -57 14
-65 6 -8 15 -25 18 -37 4 -13 12 -23 17 -23 5 0 9 -11 9 -24 0 -14 4 -27 9
-31 10 -6 6 -179 -5 -196 -3 -5 -14 -7 -24 -4 -13 4 -19 -1 -22 -19 -3 -14 0
-30 6 -36 8 -8 7 -10 -4 -5 -9 3 -20 14 -25 24 -6 10 -25 43 -43 72 -45 75
-62 141 -61 234 0 44 -4 104 -10 133 -15 76 -26 242 -15 242 5 0 22 -41 37
-90 15 -50 32 -90 37 -90 6 0 10 7 10 15 0 31 -53 225 -61 225 -5 0 -9 -7 -9
-16 0 -8 -4 -13 -9 -9 -5 3 -12 1 -15 -4 -9 -13 -57 -6 -67 10 -10 17 -57 165
-65 209 -5 22 -3 30 6 28 8 -2 19 22 29 67 13 50 20 65 26 55 5 -8 10 -19 11
-25 0 -5 2 -16 2 -22 1 -7 11 -13 23 -13 11 0 18 -4 14 -10 -3 -5 -11 -7 -18
-4 -7 2 -19 -7 -27 -21 -16 -29 -5 -73 20 -85 8 -4 26 -13 40 -20 21 -11 23
-11 14 1 -13 16 -9 70 6 100 8 13 7 25 0 39 -9 16 -8 20 5 20 12 0 14 4 5 19
-22 42 -3 55 33 24 18 -17 20 -17 34 2 10 14 13 32 8 58 -3 21 -2 43 1 49 4 6
9 25 10 42 2 17 6 45 8 61 3 17 5 42 5 57 1 43 48 45 224 11z m3234 -65 c4 -7
8 -21 8 -32 0 -22 68 -46 107 -39 19 4 27 -2 41 -31 9 -20 20 -35 24 -34 5 0
20 -4 36 -10 25 -11 32 -23 27 -47 -18 -93 -18 -97 1 -116 10 -10 19 -25 20
-31 0 -7 4 -4 9 7 6 15 8 11 7 -17 -2 -38 -14 -47 -34 -27 -15 15 -53 18 -115
8 -105 -17 -144 -22 -177 -23 -19 -1 -36 -6 -38 -13 -5 -14 -90 -7 -110 9 -7
5 -63 8 -125 7 -97 -2 -120 -6 -160 -27 -27 -13 -48 -28 -48 -32 0 -5 -3 -15
-6 -23 -3 -9 2 -16 14 -19 15 -4 19 -12 15 -32 -3 -14 -10 -23 -15 -19 -6 3
-9 0 -6 -8 3 -8 22 -15 47 -17 23 -2 39 -7 36 -13 -4 -5 2 -9 12 -9 17 -1 17
-1 0 -14 -16 -13 -15 -14 20 -16 123 -5 188 -1 198 12 5 8 17 17 26 20 9 4 27
26 40 50 29 52 69 66 69 24 0 -25 50 -108 73 -123 15 -9 87 -10 87 -1 0 3 -13
9 -29 13 -16 3 -32 13 -35 22 -5 13 -4 14 8 4 24 -20 107 -24 155 -7 42 15 46
15 88 -5 44 -21 44 -22 38 -63 -15 -103 -13 -100 -65 -97 -14 1 -36 2 -50 3
-14 0 -27 3 -30 7 -10 14 -100 72 -100 64 0 -4 -7 1 -15 11 -13 17 -14 14 -8
-32 5 -47 4 -52 -14 -52 -10 0 -23 -4 -28 -9 -6 -5 -30 -11 -55 -14 -25 -3
-58 -8 -75 -11 -35 -7 -122 32 -117 52 7 34 -80 25 -124 -13 -16 -13 -41 -30
-56 -36 -15 -6 -28 -15 -28 -20 0 -5 -16 -8 -35 -7 -28 1 -36 6 -44 30 -6 16
-24 40 -41 55 -32 26 -32 26 -25 97 4 39 9 100 10 136 2 64 22 117 75 208 11
17 17 32 14 32 -4 0 0 7 7 16 11 13 10 17 -4 25 -9 6 -14 16 -10 25 4 12 0 14
-21 8 -21 -5 -26 -3 -26 11 0 14 3 15 15 5 13 -10 15 -9 15 9 0 12 -4 19 -10
16 -5 -3 -10 0 -10 9 0 8 -6 17 -12 20 -9 3 -7 9 7 20 11 9 33 27 48 41 22 20
32 23 42 15 9 -8 17 -7 28 4 8 8 30 18 49 21 28 5 44 1 84 -23 35 -22 59 -29
84 -27 51 4 52 4 46 13 -3 5 10 15 29 22 19 8 35 18 35 22 0 23 93 37 107 16z
m4516 -132 c49 -4 66 -2 61 6 -5 8 -2 9 12 3 10 -5 31 -9 46 -9 14 -1 24 -4
22 -8 -3 -4 12 -15 32 -24 31 -15 45 -16 109 -6 40 6 102 9 137 5 54 -5 73 -2
129 21 70 28 171 35 234 15 29 -9 30 -11 31 -71 1 -35 0 -55 -3 -45 -6 21 -23
23 -24 2 -2 -25 -4 -29 -23 -57 -10 -16 -25 -28 -32 -28 -8 0 -17 -8 -21 -17
-9 -27 -65 -83 -82 -83 -8 0 -23 -7 -33 -17 -25 -23 -101 -33 -117 -16 -6 7
-19 13 -27 13 -27 0 -27 -30 -1 -83 33 -66 43 -107 57 -232 17 -149 15 -142
49 -137 16 2 32 -1 35 -7 4 -6 -1 -11 -12 -11 -49 0 -138 -138 -127 -198 5
-28 9 -31 30 -26 15 4 25 2 25 -4 0 -6 2 -17 5 -24 3 -8 -6 -27 -20 -42 -14
-15 -25 -35 -26 -44 0 -24 -48 84 -60 137 -7 32 -7 47 2 55 9 8 10 7 6 -6 -3
-10 -2 -20 3 -23 14 -8 12 21 -1 43 -15 25 30 99 63 104 19 2 24 10 26 45 2
22 -4 58 -12 78 -9 21 -16 46 -16 56 0 10 -4 21 -10 24 -6 4 -7 -1 -4 -12 5
-15 4 -16 -5 -3 -6 8 -11 23 -11 33 0 9 -4 17 -10 17 -5 0 -10 9 -10 20 0 11
-4 20 -10 20 -5 0 -10 -6 -10 -14 0 -25 -36 -6 -53 27 -16 30 -17 30 -15 7 2
-14 -5 -36 -15 -50 -9 -13 -17 -19 -17 -12 0 9 -7 8 -26 -4 -15 -10 -23 -23
-19 -32 3 -8 -2 -20 -12 -27 -15 -11 -15 -15 -4 -29 19 -23 -1 -45 -36 -38
-18 3 -24 1 -19 -7 4 -6 12 -11 17 -11 15 0 35 -22 43 -47 4 -12 13 -27 21
-33 8 -7 15 -23 15 -36 0 -12 7 -29 15 -38 8 -8 15 -24 15 -35 0 -12 5 -21 10
-21 6 0 10 -9 10 -19 0 -11 7 -27 16 -36 22 -22 21 -137 -1 -171 -8 -13 -14
-33 -12 -46 1 -12 -4 -23 -10 -24 -25 -3 -25 -4 -13 -19 8 -10 9 -15 1 -15 -6
0 -10 -10 -8 -22 1 -16 -5 -23 -23 -28 -18 -4 -26 -14 -28 -33 -2 -19 -12 -31
-28 -37 -25 -10 -33 -30 -12 -30 7 0 -3 -15 -21 -34 -26 -27 -32 -40 -27 -59
4 -19 0 -28 -20 -41 -14 -10 -29 -27 -35 -39 -7 -18 -8 -16 -3 10 5 29 2 34
-20 43 -14 5 -38 15 -53 22 -16 7 -32 13 -38 13 -5 1 -21 5 -35 9 -14 4 -38 3
-53 -3 -19 -8 -33 -7 -53 4 -15 7 -34 11 -43 9 -9 -3 -3 2 12 11 25 14 28 21
25 58 -2 28 -8 43 -19 45 -12 2 -14 -5 -11 -32 4 -36 -4 -41 -89 -60 -14 -3
-36 -15 -49 -26 -27 -24 -85 -27 -94 -5 -3 8 -17 15 -32 15 -28 0 -28 3 -8 70
7 22 6 24 -9 11 -9 -7 -17 -18 -17 -24 0 -10 -50 -57 -62 -57 -4 0 -16 -9 -26
-20 -16 -18 -23 -19 -53 -8 -45 15 -55 30 -74 110 -15 67 -21 209 -6 158 6
-20 13 -25 36 -23 17 1 33 -4 40 -14 9 -12 24 -15 64 -11 29 3 56 11 60 17 4
7 18 13 30 14 32 2 44 31 39 94 -4 46 -10 58 -39 84 -50 44 -72 50 -159 44
-64 -5 -79 -3 -83 10 -4 8 -13 15 -22 15 -8 0 -15 8 -15 18 0 25 -29 82 -42
82 -6 0 -7 -18 -3 -47 5 -40 3 -52 -15 -70 -11 -13 -17 -23 -13 -23 4 -1 -2
-9 -14 -19 -12 -10 -19 -22 -15 -26 4 -5 -1 -6 -10 -2 -10 3 -19 0 -22 -9 -3
-9 -10 -12 -16 -9 -5 3 -7 0 -4 -8 3 -8 -2 -14 -11 -14 -11 0 -15 7 -13 21 2
12 10 20 18 18 8 -2 12 0 7 4 -4 4 3 19 16 33 14 14 29 44 34 66 6 22 12 46
14 53 4 15 -3 20 -64 46 -44 19 -40 4 6 -25 l32 -19 -33 3 c-17 1 -32 7 -32
12 -1 15 -40 59 -46 52 -3 -3 1 -16 9 -29 18 -29 30 -93 22 -118 -4 -11 -15
-20 -25 -20 -10 0 -20 -5 -22 -12 -3 -7 -12 -9 -22 -5 -11 4 -16 13 -12 22 3
9 0 15 -10 15 -11 0 -12 4 -4 19 13 25 13 27 -6 46 -10 9 -24 13 -38 10 -14
-4 -17 -3 -8 3 10 7 8 13 -6 30 -11 12 -27 22 -36 22 -9 0 -17 6 -17 13 -3 26
-5 34 -26 102 -12 39 -29 99 -37 134 -15 63 -15 63 11 97 21 28 32 34 65 34
21 0 54 -6 72 -14 35 -15 65 -14 109 3 34 13 34 17 0 34 l-26 14 20 18 c12 10
19 24 16 31 -3 9 2 14 16 14 12 0 21 5 21 10 0 6 3 9 8 9 22 -5 71 25 76 47 5
17 13 24 31 24 27 0 44 19 26 30 -9 5 -8 10 4 20 8 7 15 28 15 50 0 30 6 41
26 55 25 16 29 16 60 1 19 -8 34 -11 34 -6 0 6 10 5 25 -2 20 -9 38 -6 100 17
41 15 81 35 88 44 8 11 26 16 59 16 39 0 50 4 68 28 12 15 36 35 53 44 30 16
114 31 147 26 8 -1 46 -4 83 -7z m-2428 -68 c28 -6 54 -17 58 -25 5 -7 12 -11
17 -8 5 3 11 -3 14 -12 3 -10 28 -26 56 -36 28 -10 48 -22 45 -27 -6 -10 31
-24 44 -16 11 7 61 -13 61 -24 0 -4 -14 -6 -31 -5 -22 1 -33 -3 -36 -15 -2 -9
-20 -22 -39 -29 -19 -7 -34 -16 -34 -21 0 -17 -41 -31 -100 -35 -33 -2 -62 0
-65 5 -3 4 -32 6 -65 3 -46 -4 -61 -2 -64 8 -10 30 -13 129 -4 135 5 3 3 15
-6 28 -16 26 -25 66 -13 63 5 -1 13 6 19 16 11 20 34 19 143 -5z m500 -246 c6
2 12 -8 13 -21 3 -19 6 -21 14 -10 8 11 9 10 4 -3 -3 -10 1 -36 9 -59 16 -45
20 -109 7 -109 -5 0 -9 -14 -10 -31 -1 -35 -10 -49 -20 -32 -4 6 -27 13 -52
17 -25 3 -51 7 -57 8 -7 1 -13 5 -13 8 0 4 -17 8 -38 8 -20 0 -59 10 -85 21
l-48 21 17 25 c10 15 23 24 31 21 29 -12 153 61 135 79 -4 4 11 6 33 5 53 -4
65 -2 65 10 0 5 -8 6 -17 3 -12 -5 -15 -2 -10 10 4 11 1 17 -8 17 -13 0 -13 3
-3 20 11 17 14 18 18 4 3 -8 10 -14 15 -12z m-372 -97 c9 -20 17 -47 17 -60 0
-28 32 -64 58 -66 9 -1 26 -2 37 -3 23 -1 33 -42 16 -59 -8 -8 -11 -8 -11 1 0
9 -5 9 -22 0 -13 -7 -26 -17 -29 -21 -3 -5 -10 -8 -15 -8 -5 1 -23 -2 -40 -5
-18 -3 -41 -1 -53 5 -15 9 -26 8 -41 -1 -16 -10 -22 -10 -36 3 -14 15 -14 18
2 33 24 24 2 47 -23 23 -10 -8 -22 -17 -28 -19 -5 -1 -30 -24 -54 -50 -33 -36
-51 -48 -73 -48 -36 0 -58 20 -58 55 0 14 -6 41 -14 60 -22 52 -11 75 33 75
21 0 41 -3 45 -7 10 -11 68 -12 86 -3 28 14 92 22 85 11 -3 -6 0 -11 9 -11 8
0 21 -3 30 -6 13 -5 15 2 15 43 -1 27 2 59 5 71 11 33 40 27 59 -13z m-6133
-389 c0 -3 -14 -20 -30 -38 -17 -18 -26 -34 -20 -36 6 -2 -1 -12 -14 -23 -13
-11 -32 -41 -42 -67 -10 -26 -21 -51 -25 -57 -4 -5 -10 -27 -14 -48 -4 -20
-11 -40 -15 -42 -5 -3 -5 9 1 27 10 36 12 74 2 49 -4 -10 -7 -11 -13 -1 -13
21 -53 -23 -45 -49 3 -12 10 -21 14 -21 4 0 23 -14 42 -31 19 -17 53 -45 76
-62 23 -18 43 -39 43 -48 0 -22 26 -32 50 -19 24 13 40 13 40 0 0 -5 -8 -10
-18 -10 -10 0 -24 -6 -30 -12 -10 -10 -17 -10 -31 -1 -17 11 -17 8 2 -59 20
-67 20 -71 3 -103 -11 -20 -17 -50 -16 -76 3 -59 2 -71 -9 -65 -5 3 -28 -1
-52 -9 -24 -9 -58 -18 -76 -20 -30 -4 -32 -3 -23 20 7 17 4 27 -9 39 -10 9
-21 13 -24 9 -4 -3 -7 7 -7 23 -1 41 -21 63 -54 60 -15 -2 -32 -8 -39 -15 -6
-6 -20 -11 -32 -11 -11 -1 -33 -11 -49 -25 l-29 -23 18 -29 c24 -37 105 -133
130 -155 15 -12 17 -20 9 -28 -12 -12 -111 -10 -106 3 2 4 -11 20 -28 35 -16
14 -30 34 -30 44 0 10 -5 18 -11 18 -6 0 -8 8 -4 19 8 27 -27 61 -63 61 -16 0
-39 -9 -51 -19 -13 -11 -28 -22 -34 -24 -7 -2 -7 -8 -2 -18 5 -8 10 -20 11
-27 3 -17 15 -34 82 -111 28 -34 52 -69 52 -78 0 -21 -67 -83 -90 -83 -22 0
-35 16 -20 25 5 3 9 26 8 50 -1 24 -6 41 -10 39 -4 -3 -8 2 -8 11 0 16 -21 16
-82 -1 -11 -3 -21 4 -29 18 -17 33 -71 88 -81 82 -4 -3 -8 7 -8 23 -1 32 -24
68 -38 59 -13 -8 7 -64 36 -100 40 -51 39 -70 -8 -113 -23 -21 -46 -39 -50
-41 -4 -1 -13 12 -21 30 -24 59 -82 86 -76 36 1 -12 -3 -23 -10 -25 -18 -6
-21 29 -5 55 13 20 12 28 -10 80 -29 67 -25 95 21 147 16 19 39 55 50 80 11
26 39 67 62 93 22 26 52 67 66 92 88 156 110 189 150 228 73 70 132 95 251
107 79 8 113 8 145 -2 56 -17 68 -11 103 45 39 62 124 143 124 118z m228 -18
c-4 -22 13 -107 22 -113 5 -3 7 -12 4 -19 -3 -8 4 -16 15 -19 27 -7 29 -53 4
-60 -11 -3 -7 -5 10 -6 16 -1 27 -7 27 -15 0 -25 -28 -25 -54 -1 -21 20 -34
23 -75 20 -48 -4 -49 -3 -54 30 -3 18 -16 50 -29 71 -24 40 -27 94 -4 94 14 0
19 -37 6 -45 -16 -10 26 -85 47 -85 7 0 13 -9 13 -20 0 -25 14 -26 38 -2 13
13 17 33 16 92 0 41 1 78 3 83 7 12 14 8 11 -5z m843 -44 c38 -19 49 -18 49 7
0 18 4 20 48 13 26 -3 54 -12 62 -20 8 -7 18 -13 23 -13 4 -1 7 -3 7 -6 0 -3
0 -10 0 -16 0 -8 -20 -10 -60 -7 -37 3 -61 0 -63 -6 -3 -10 -75 -17 -186 -19
-35 0 -71 29 -71 59 0 33 131 39 191 8z m2576 -84 c-1 -11 2 -20 7 -19 5 0 14
-10 20 -23 16 -31 92 -71 140 -74 22 -1 59 6 82 16 23 10 46 15 50 12 4 -4 4
-1 0 6 -4 6 -2 12 4 12 14 0 40 25 40 39 0 6 4 11 9 11 11 0 7 -46 -7 -82 -7
-17 -21 -28 -41 -33 -19 -4 -29 -11 -24 -18 4 -6 0 -8 -10 -4 -10 3 -17 3 -17
-1 0 -4 -28 -8 -63 -9 -34 -2 -74 -6 -89 -9 -19 -4 -33 1 -47 15 -12 12 -26
21 -32 21 -22 0 -59 51 -65 91 -6 35 -4 41 15 46 11 3 21 9 21 14 0 5 2 9 5 9
3 0 4 -9 2 -20z m841 -664 c2 -77 1 -88 -12 -77 -12 10 -15 8 -18 -11 -2 -15
-10 -23 -23 -23 -29 -1 -45 -13 -45 -36 0 -10 -2 -19 -4 -19 -2 0 -13 -3 -23
-6 -15 -6 -16 -4 -5 7 14 15 16 39 3 39 -6 0 -13 -21 -17 -46 -11 -73 -22 -32
-26 91 l-3 109 40 22 c120 63 129 59 133 -50z m4060 -18 c2 -4 10 -15 18 -22
21 -22 17 -38 -7 -31 -19 6 -21 4 -16 -14 3 -11 1 -24 -5 -27 -5 -3 -7 -12 -4
-19 3 -8 -2 -19 -10 -25 -8 -7 -14 -18 -14 -25 0 -20 -78 -95 -99 -95 -11 0
-21 -5 -23 -12 -2 -6 -14 -12 -25 -13 -12 0 -27 -6 -35 -11 -7 -6 -48 -16 -92
-22 -73 -11 -81 -11 -111 8 -37 23 -69 71 -92 139 -8 25 -26 60 -39 77 -13 17
-20 34 -17 38 9 9 43 8 43 -2 0 -4 10 -12 22 -17 14 -6 26 -24 31 -46 8 -36 9
-37 48 -32 32 5 38 3 34 -9 -5 -11 2 -17 24 -20 37 -5 61 7 61 31 0 10 7 24
15 31 8 7 15 18 15 24 0 6 -5 4 -10 -4 -5 -8 -10 -10 -10 -4 0 7 -9 14 -20 17
-22 6 -27 26 -7 28 6 0 30 2 52 3 25 2 39 7 37 14 -1 8 6 10 21 7 17 -5 30 2
50 25 27 30 29 30 95 24 37 -4 69 -11 70 -16z m-5443 -91 c-4 -14 -1 -28 7
-34 22 -18 154 -25 231 -13 40 7 88 10 107 8 60 -5 -137 -48 -253 -55 -95 -5
-104 -4 -129 17 -34 26 -34 31 -2 69 31 37 47 40 39 8z m4332 1 c28 -37 83
-215 83 -270 0 -85 -121 -281 -153 -249 -6 6 -17 11 -25 11 -8 0 -44 14 -81
32 -78 37 -177 127 -201 183 -22 48 -45 180 -35 196 11 16 108 58 153 65 l38
6 53 -174 c29 -95 62 -203 74 -241 l21 -67 37 36 c46 45 85 115 99 178 9 40 8
55 -5 82 -16 33 -32 50 -41 41 -3 -2 4 -27 15 -56 12 -28 16 -51 11 -51 -6 0
-10 7 -10 15 0 21 -17 19 -30 -5 -6 -11 -17 -20 -25 -20 -8 0 -28 -14 -46 -31
-17 -17 -34 -27 -37 -24 -4 4 1 11 11 16 9 6 17 17 17 24 0 8 7 15 15 15 8 0
15 4 15 10 0 5 -6 7 -13 4 -20 -7 -45 18 -49 51 -2 25 2 32 27 45 17 9 30 23
30 34 0 10 8 24 18 30 16 9 24 5 53 -28 42 -48 43 -36 4 59 -27 63 -35 73 -60
79 -17 3 -35 4 -42 2 -27 -9 -152 -17 -145 -10 21 22 209 31 224 12z m-5189
-25 c69 -5 75 -8 100 -41 25 -33 27 -42 24 -119 -3 -93 22 -179 78 -278 17
-29 27 -56 22 -59 -9 -5 -48 14 -99 48 -15 11 -73 49 -128 85 -55 35 -101 66
-103 67 -2 1 2 29 9 61 12 57 11 61 -14 98 -21 30 -27 52 -27 91 0 59 6 68 40
59 14 -3 58 -8 98 -12z m-2944 -95 c16 -25 19 -98 5 -98 -5 0 -9 -5 -9 -10 0
-11 -41 -102 -49 -110 -3 -3 -7 -12 -8 -20 -3 -30 -28 -85 -43 -95 -8 -5 -28
-16 -44 -22 -23 -11 -27 -11 -23 0 4 10 -2 13 -18 9 -17 -3 -25 2 -30 17 -9
29 -35 27 -35 -3 0 -14 -10 -32 -22 -40 -12 -9 -17 -16 -11 -16 7 0 10 -7 7
-15 -4 -8 -1 -15 6 -15 22 0 4 -23 -19 -25 -22 -2 -23 0 -17 59 8 91 13 117
24 128 6 6 8 17 5 24 -3 8 0 14 6 14 6 0 11 18 11 41 0 28 -4 38 -12 33 -8 -5
-9 -2 -5 10 4 10 7 22 7 27 0 6 3 8 8 5 4 -2 13 7 19 20 10 22 10 24 -8 19
-22 -7 -24 3 -6 26 17 22 50 21 44 -2 -5 -20 36 -39 86 -39 21 0 28 -4 24 -14
-3 -7 0 -19 6 -25 6 -6 7 -11 3 -11 -5 0 -3 -7 4 -15 7 -8 23 -15 36 -15 18 0
22 4 17 18 -4 9 -12 22 -19 27 -20 16 -20 57 -1 98 20 42 40 47 61 15z m6929
-41 c17 -14 27 -33 27 -50 0 -18 4 -26 11 -22 6 4 8 13 5 21 -3 7 -1 16 5 20
6 3 3 12 -8 21 -20 16 -11 14 28 -6 28 -14 46 -65 51 -141 3 -45 3 -45 -47
-70 -41 -20 -74 -26 -183 -34 -128 -9 -136 -9 -205 15 -39 13 -82 33 -95 44
-21 18 -22 25 -16 77 5 43 10 55 21 51 11 -4 13 1 7 21 -6 27 -6 27 30 21 25
-5 36 -4 36 4 0 7 5 9 11 6 7 -5 5 -15 -6 -32 -9 -14 -14 -27 -11 -31 7 -7 9
-5 35 38 14 23 20 28 18 15 -1 -11 -6 -25 -10 -32 -12 -19 6 -23 54 -11 25 5
92 8 154 5 81 -4 103 -3 83 4 -16 6 -28 15 -28 20 0 6 -4 8 -9 4 -16 -9 -31
27 -20 47 13 24 31 23 62 -5z m-4275 -42 c48 -15 52 -19 63 -58 19 -67 17
-275 -2 -317 l-17 -35 2 37 c0 21 4 38 8 38 11 0 1 251 -11 282 -7 20 -21 30
-52 38 -22 6 -43 9 -46 6 -3 -3 0 -36 6 -73 6 -37 11 -81 11 -96 0 -22 4 -28
17 -25 11 2 18 12 18 27 0 36 22 37 39 2 18 -33 21 -55 7 -47 -5 3 -11 -9 -14
-27 -2 -17 -1 -33 4 -35 5 -2 9 -10 9 -18 0 -9 -4 -13 -9 -10 -5 3 -11 -3 -14
-14 -3 -11 -10 -20 -16 -20 -6 0 -8 6 -5 13 2 7 -2 21 -9 31 -13 18 -14 17
-12 -12 1 -17 8 -38 15 -47 9 -11 9 -15 1 -15 -15 0 -5 -60 20 -117 27 -63 43
-56 35 15 -7 71 10 49 20 -25 8 -61 -4 -73 -45 -44 -35 25 -87 174 -125 362
-34 163 -33 167 7 184 40 18 34 18 95 0z m-2333 -66 c-4 -5 -11 -7 -16 -4 -5
4 -9 -2 -9 -11 0 -16 2 -16 20 1 16 14 23 16 32 7 9 -9 9 -12 -2 -12 -9 0 -8
-5 6 -15 19 -14 19 -14 -1 -15 -11 -1 -14 -4 -7 -7 6 -2 12 -16 12 -29 0 -19
-5 -24 -24 -24 -14 0 -28 5 -31 10 -5 7 -11 8 -19 1 -6 -5 -27 -10 -46 -10
-149 0 -197 -7 -221 -31 -13 -14 -39 -35 -57 -48 l-33 -23 6 24 c4 13 7 31 9
40 3 21 35 57 51 57 7 0 16 7 19 16 5 13 2 15 -14 11 -19 -5 -19 -4 -3 23 23
40 87 57 136 36 20 -8 37 -20 37 -26 0 -6 -6 -8 -12 -4 -7 4 -9 3 -5 -1 10
-11 96 -6 119 6 10 5 18 21 18 35 0 22 2 23 20 14 11 -6 18 -15 15 -21z m4103
-121 c65 -2 68 -4 52 -28 -6 -10 -4 -21 9 -35 81 -91 -51 -159 -309 -159 -125
0 -165 9 -205 42 -26 22 -30 32 -31 78 0 30 3 54 8 54 4 0 8 10 8 21 0 18 3
19 15 9 11 -10 24 -9 61 4 46 15 70 14 59 -5 -8 -13 9 -11 22 2 14 14 64 19
84 8 19 -10 88 7 108 26 12 11 17 11 35 0 12 -8 49 -15 84 -17z m4701 -48 c47
0 54 -20 27 -74 -17 -34 -20 -46 -10 -42 9 3 14 0 13 -7 -1 -6 1 -21 5 -32 17
-45 93 -194 125 -245 19 -30 58 -100 87 -155 29 -55 56 -100 61 -100 45 2 141
19 150 27 12 10 86 4 119 -9 33 -12 9 -21 -46 -16 l-60 6 0 -36 c0 -31 4 -36
28 -41 28 -7 62 -56 38 -56 -7 0 -16 4 -21 8 -6 5 -34 19 -63 31 -56 23 -92
21 -93 -7 0 -9 -17 -44 -38 -77 -21 -33 -93 -151 -160 -262 l-122 -203 -46 0
c-67 0 -215 29 -234 46 -9 8 -22 13 -30 11 -8 -2 -10 -2 -6 1 5 2 1 13 -9 23
-9 10 -13 19 -8 19 11 1 -66 40 -78 40 -13 0 -9 -17 8 -34 8 -9 11 -16 5 -16
-5 0 -17 7 -25 15 -8 9 -28 20 -43 26 -25 8 -63 67 -63 97 0 19 50 54 68 50
11 -3 26 -2 33 3 22 14 -8 28 -47 23 -18 -2 -35 0 -38 5 -3 4 -16 6 -29 4 -31
-6 -52 39 -42 94 9 55 25 77 25 36 0 -45 13 -48 51 -12 19 18 38 28 48 24 11
-4 11 -1 -3 14 -14 16 -17 31 -14 66 6 49 28 82 66 96 18 7 20 12 11 26 -8 14
-6 30 8 67 24 65 59 90 131 94 105 5 157 16 160 34 4 19 -51 142 -59 133 -3
-3 -5 42 -4 99 1 98 3 107 31 147 38 55 41 60 50 84 7 19 8 19 11 -2 3 -18 11
-23 32 -23z m-2814 -85 c17 -13 43 -41 59 -63 24 -35 27 -46 21 -86 -4 -25
-11 -46 -16 -46 -5 0 -7 -12 -5 -27 2 -16 1 -19 -2 -8 l-4 20 -9 -20 c-8 -16
-8 -14 -4 8 3 15 1 27 -5 27 -5 0 -10 6 -10 14 0 7 -9 16 -20 19 -17 4 -20 0
-20 -23 0 -30 16 -49 23 -28 2 8 4 7 3 -2 -1 -9 -13 -16 -29 -18 -33 -4 -36
-21 -4 -23 l22 -2 -22 -4 c-20 -4 -27 -13 -25 -34 1 -3 -19 -26 -44 -50 -24
-24 -44 -52 -44 -62 0 -10 -9 -21 -20 -24 -27 -7 -25 -14 10 -42 29 -22 41
-61 19 -61 -5 0 -7 5 -4 11 8 11 -19 41 -47 51 -29 11 -52 -26 -44 -72 5 -33
3 -42 -13 -52 -16 -9 -17 -16 -9 -31 5 -11 8 -31 6 -46 -4 -26 -3 -26 49 -24
62 2 158 35 191 65 12 12 22 17 22 12 0 -20 -56 -62 -100 -77 -25 -8 -71 -18
-102 -22 -32 -4 -58 -12 -58 -17 0 -5 4 -7 9 -3 5 3 12 1 16 -5 3 -5 -2 -10
-11 -10 -10 0 -14 -3 -11 -6 3 -4 1 -16 -5 -28 -7 -11 -11 -24 -10 -28 1 -5
-3 -8 -8 -8 -5 0 -10 8 -10 19 0 10 -6 24 -14 31 -8 6 -13 17 -10 24 4 10 -17
17 -77 26 -46 6 -101 19 -123 27 -48 18 -98 66 -90 87 3 8 1 39 -5 68 -6 29
-16 87 -21 128 -5 41 -14 94 -18 118 -11 50 -8 53 63 67 47 10 50 13 55 44 3
23 11 35 23 37 11 1 20 4 21 6 1 2 13 18 25 36 14 20 29 31 37 28 8 -3 14 -2
14 3 0 10 214 36 227 28 15 -10 29 6 52 57 l21 48 27 -17 c16 -10 42 -28 58
-40z m-4712 -57 c-29 -29 -96 -99 -151 -155 -54 -57 -106 -103 -115 -103 -36
0 -50 30 -44 103 5 70 27 120 27 61 0 -17 6 -39 14 -49 12 -17 16 -17 34 -4
217 157 276 199 281 199 3 0 -18 -24 -46 -52z m5552 2 c32 -8 24 -8 -37 -5
-48 3 -78 1 -78 -5 0 -6 7 -10 15 -10 9 0 20 -11 25 -25 7 -18 16 -24 37 -23
15 1 36 -2 46 -7 16 -6 17 -4 11 19 -5 23 -3 26 19 26 34 0 43 -16 17 -30 -30
-16 -25 -28 17 -39 42 -12 51 -8 34 13 -19 23 -5 37 26 25 14 -5 28 -8 30 -6
6 7 -42 35 -78 45 -20 6 -26 10 -14 11 28 1 104 -35 111 -53 3 -8 7 -21 8 -29
1 -8 8 -22 15 -30 9 -12 10 -21 2 -36 -8 -15 -7 -23 4 -35 8 -8 15 -30 15 -49
0 -74 -79 -106 -285 -114 -127 -5 -147 -3 -215 18 -48 14 -85 33 -104 51 -28
29 -29 31 -22 106 9 96 21 121 71 149 46 25 165 43 165 24 0 -6 7 -11 15 -11
9 0 12 6 9 15 -5 12 4 15 47 14 30 0 72 -4 94 -9z m-2600 -486 c13 -6 14 -9 3
-16 -9 -6 -2 -8 20 -5 18 2 35 0 38 -4 2 -4 20 -5 39 -2 33 5 35 4 35 -21 0
-22 4 -26 28 -26 l27 1 -24 13 c-16 9 -20 16 -12 20 7 4 17 3 24 -2 13 -11 77
-26 77 -19 0 3 -17 13 -37 23 -26 12 -33 19 -21 22 35 7 118 -48 118 -79 0 -9
5 -19 11 -21 6 -2 15 -27 20 -56 13 -71 -6 -99 -98 -136 -170 -69 -457 -57
-556 23 -13 11 -17 28 -16 78 1 34 5 63 9 63 4 0 10 13 13 29 4 20 19 36 51
55 50 29 64 33 47 12 -10 -12 -6 -12 26 0 21 7 48 13 59 14 12 0 24 6 27 14 3
8 21 16 39 19 18 2 34 5 35 5 1 1 9 -1 18 -4z m1145 -110 c15 -23 25 -32 30
-24 5 8 16 3 37 -14 17 -14 35 -26 39 -26 5 0 24 -13 43 -28 31 -26 36 -38 62
-158 16 -71 29 -143 29 -160 0 -17 9 -41 19 -53 22 -25 36 -75 26 -91 -3 -5
-16 -10 -28 -10 -19 -1 -17 -5 17 -34 l38 -33 -23 -22 c-35 -33 -151 -89 -216
-105 -32 -8 -71 -19 -86 -25 -15 -6 -56 -11 -90 -11 -34 -1 -96 -2 -137 -4
-92 -3 -210 12 -230 30 -10 8 -30 11 -56 7 -31 -4 -55 1 -105 25 -35 16 -83
37 -106 48 -24 10 -43 22 -43 27 0 4 -5 5 -11 2 -10 -7 -7 35 10 125 3 19 4
95 1 169 l-5 134 40 18 c22 10 57 19 78 19 20 0 37 3 37 8 0 4 11 21 24 37 24
30 25 30 40 10 8 -11 16 -27 16 -36 0 -21 26 -32 38 -16 16 20 23 80 13 114
-7 24 -6 41 5 63 18 35 34 47 34 25 0 -9 4 -14 9 -11 12 8 71 -16 71 -29 0 -6
28 -31 63 -56 52 -37 59 -44 40 -47 -13 -2 -23 -8 -23 -13 0 -6 -8 -8 -19 -4
-13 4 -20 -1 -25 -17 -6 -21 -7 -21 -17 -5 -16 27 -30 20 -23 -10 6 -25 5 -26
-8 -15 -9 7 -18 9 -21 5 -7 -13 11 -53 27 -59 23 -9 76 18 76 38 0 10 6 18 13
18 21 0 40 -17 33 -29 -5 -7 1 -11 13 -11 17 0 21 -6 21 -30 0 -37 28 -97 49
-105 8 -3 21 1 27 9 6 9 16 16 23 16 14 0 81 -65 81 -78 0 -5 10 -17 22 -28
19 -16 21 -16 9 -1 -12 15 -12 22 0 43 12 23 18 25 49 20 19 -4 46 -9 60 -11
14 -2 46 -10 73 -18 53 -17 59 -10 33 41 -7 15 -16 51 -19 81 -4 30 -13 61
-20 70 -8 9 -20 37 -27 64 -14 52 -37 79 -27 31 4 -16 9 -39 13 -51 5 -18 2
-22 -15 -20 -15 1 -24 11 -30 32 -4 16 -14 29 -20 27 -7 -1 -10 2 -7 7 4 5 0
13 -8 18 -7 4 -15 17 -18 28 -2 11 -10 20 -18 21 -33 2 -38 5 -44 20 -3 8 -2
13 2 10 4 -3 14 5 21 16 11 18 11 20 -4 15 -13 -6 -15 -3 -9 15 6 20 5 21 -10
9 -9 -7 -16 -27 -16 -43 0 -34 17 -71 30 -63 4 3 6 -4 3 -15 -3 -11 -10 -23
-16 -27 -6 -4 -8 0 -4 10 3 9 0 18 -9 21 -8 3 -14 11 -14 18 0 7 -9 30 -20 51
-22 41 -25 51 -11 43 5 -3 12 1 15 10 3 8 10 12 16 9 5 -3 10 1 10 10 0 25 34
2 60 -41z m-4015 -259 c25 -25 55 -64 65 -87 18 -40 18 -64 1 -54 -4 3 -14 -6
-21 -19 -7 -14 -21 -25 -30 -25 -12 0 -17 -8 -17 -23 0 -13 -12 -36 -27 -52
-14 -15 -26 -36 -26 -47 0 -16 3 -17 22 -7 16 9 23 9 26 0 2 -6 16 -11 30 -11
42 -1 65 -24 60 -59 -2 -16 0 -27 4 -24 5 3 6 -12 3 -34 -4 -25 -3 -33 3 -25
12 18 25 -30 17 -61 -4 -15 -3 -18 3 -9 7 11 11 10 16 -4 6 -15 12 -12 44 19
21 20 42 37 47 37 6 0 32 23 59 50 52 53 77 61 115 34 17 -12 21 -23 17 -43
-3 -14 -3 -20 0 -13 3 6 10 10 15 7 5 -4 3 -12 -4 -19 -6 -8 -15 -12 -19 -9
-7 4 -12 -11 -9 -29 0 -4 -12 -5 -27 -2 -19 4 -34 0 -44 -10 -15 -14 -17 -14
-29 0 -11 14 -17 10 -51 -27 -20 -23 -35 -45 -32 -50 8 -13 -20 -89 -33 -89
-6 0 -19 -12 -28 -27 -9 -16 -31 -35 -48 -44 -22 -11 -33 -25 -38 -47 -8 -40
9 -57 37 -38 10 7 35 14 54 14 19 1 49 6 67 11 18 5 41 7 52 4 15 -4 23 1 29
17 8 21 8 21 22 -4 17 -32 29 -32 116 -2 38 14 110 32 159 41 50 8 114 21 144
27 l54 12 30 66 29 66 86 -9 c167 -18 327 -7 367 23 6 5 30 13 55 20 24 7 65
22 90 33 45 22 95 26 190 17 25 -3 47 -8 50 -12 3 -4 31 -9 61 -11 30 -2 62
-8 70 -13 16 -10 239 -13 239 -3 0 11 54 6 62 -6 5 -7 8 -6 8 1 0 15 162 17
171 2 4 -6 12 -7 20 -2 47 30 119 33 119 5 0 -5 12 -12 28 -16 25 -5 27 -9 24
-45 -2 -22 -8 -40 -12 -40 -18 0 -18 -74 0 -133 21 -66 27 -192 10 -202 -5 -3
-10 -28 -10 -56 0 -27 -4 -49 -9 -49 -5 0 -7 -18 -4 -41 4 -28 2 -44 -7 -49
-16 -10 -22 -82 -10 -130 7 -32 9 -33 15 -12 7 21 9 22 31 7 21 -14 24 -13 42
10 11 14 27 25 36 25 9 0 25 13 34 30 19 33 37 34 36 1 -1 -26 1 -26 28 -1 12
10 25 17 30 14 4 -3 8 -1 8 5 0 17 42 25 51 10 8 -12 10 -12 18 0 5 8 11 9 15
3 3 -6 0 -12 -6 -15 -7 -2 -9 -8 -5 -13 11 -11 37 23 37 48 0 10 7 18 15 18 9
0 14 -8 12 -21 -2 -17 4 -22 31 -24 18 -1 35 1 38 6 6 10 84 1 98 -12 5 -5 16
-3 24 3 12 10 12 7 -1 -23 -8 -20 -14 -48 -14 -64 0 -25 1 -27 12 -12 13 18
65 24 65 7 0 -5 19 -19 42 -30 32 -15 44 -17 50 -8 6 10 8 10 8 1 0 -16 31 -5
47 16 10 14 12 12 18 -10 5 -20 11 -25 26 -22 22 6 24 25 7 52 -7 11 -8 26 -3
37 5 11 9 27 9 36 2 35 21 22 24 -15 1 -24 -1 -36 -8 -32 -5 3 -10 -1 -10 -9
0 -9 7 -16 15 -16 9 0 20 -10 25 -22 7 -19 9 -19 9 -5 1 25 18 13 23 -16 4
-21 1 -23 -21 -19 l-25 5 20 -34 c15 -26 28 -35 53 -37 21 -2 31 0 27 7 -8 13
27 22 74 18 27 -1 35 2 35 15 0 9 4 20 8 25 12 11 27 -18 27 -54 0 -18 3 -33
6 -33 14 0 33 37 34 64 0 16 2 27 5 24 5 -5 11 -57 14 -133 1 -25 3 -27 15
-15 7 8 16 31 20 50 4 26 3 31 -5 20 -8 -11 -9 1 -5 45 3 41 11 64 23 73 15
11 19 11 21 -3 5 -23 54 -16 58 8 4 26 14 34 23 19 4 -8 20 -20 34 -27 26 -13
27 -13 27 12 0 19 4 24 16 19 11 -4 18 1 21 14 6 24 21 25 49 5 12 -8 24 -11
28 -8 10 10 86 12 86 2 0 -5 5 -9 12 -9 6 0 8 3 5 7 -8 7 34 32 46 26 14 -8 7
-23 -10 -23 -15 0 -16 -2 -3 -10 24 -15 29 -12 47 25 9 19 22 34 27 33 17 -4
66 33 66 48 0 19 17 18 24 -3 6 -14 12 -12 39 15 38 37 62 42 54 12 -3 -11 -1
-20 4 -20 5 0 10 7 10 15 1 8 2 18 3 23 6 19 16 103 21 165 3 46 2 67 -6 67
-8 0 -10 14 -6 40 3 27 1 40 -6 41 -7 0 -1 4 11 10 31 12 43 3 36 -27 -4 -14
-1 -31 7 -41 8 -8 19 -32 25 -52 7 -24 16 -36 27 -35 19 2 19 0 19 -69 -1 -26
8 -66 18 -90 11 -23 20 -34 20 -24 0 9 5 17 10 17 6 0 10 -4 10 -10 0 -5 7 -7
15 -4 8 4 15 1 15 -6 0 -7 7 -10 15 -6 10 4 15 -1 15 -15 0 -11 -7 -22 -15
-25 -9 -4 -15 -19 -15 -35 0 -22 5 -29 19 -29 11 0 23 -4 26 -10 3 -5 -2 -10
-12 -10 -15 0 -15 -2 -3 -9 8 -6 18 -7 22 -5 4 3 12 -6 18 -20 5 -15 15 -25
22 -24 7 2 17 -11 23 -28 14 -41 33 -64 50 -58 8 4 15 -3 17 -18 2 -15 10 -23
22 -23 11 0 21 -6 24 -13 3 -10 8 -9 23 4 17 15 19 15 25 0 3 -9 10 -13 15
-10 12 7 11 44 -1 44 -5 0 -10 7 -10 15 0 8 -17 22 -37 32 -63 29 -68 39 -37
68 22 20 25 30 20 57 -3 18 -3 28 2 22 4 -7 18 -14 32 -16 15 -2 24 -9 22 -17
-2 -9 4 -12 17 -8 11 3 25 -1 32 -9 6 -8 8 -14 3 -14 -5 0 -1 -5 9 -11 14 -8
17 -24 17 -83 0 -79 5 -86 57 -86 18 0 24 -4 19 -15 -3 -8 -2 -15 3 -15 5 0
11 9 14 21 8 30 28 19 55 -29 23 -41 49 -49 37 -11 -5 15 -1 19 18 19 38 0 55
-74 20 -83 -10 -3 7 -5 37 -6 42 0 51 2 38 10 -26 15 -24 49 2 42 11 -3 20
-11 20 -19 0 -8 6 -11 15 -8 8 4 15 2 15 -3 0 -14 74 -35 78 -23 5 15 42 12
43 -2 0 -10 2 -10 6 0 3 7 24 12 54 12 38 0 49 -4 49 -16 0 -9 8 -14 18 -13
43 4 47 0 49 -53 1 -36 -2 -47 -9 -37 -6 10 -7 7 -2 -11 8 -29 28 -50 47 -50
8 0 17 -14 21 -32 5 -23 9 -29 15 -20 7 11 10 10 15 -3 17 -45 8 -55 -46 -57
-29 -1 -71 -2 -93 -3 -22 -1 -76 -3 -120 -4 -44 -1 -123 -6 -175 -11 -99 -9
-389 -20 -665 -25 -823 -15 -915 -16 -915 -7 0 6 3 18 6 27 5 12 9 13 14 4 5
-7 15 -9 26 -4 11 5 22 7 27 7 4 -1 7 9 7 23 0 26 24 35 33 13 3 -7 6 -3 6 10
1 35 28 26 57 -19 17 -27 30 -39 40 -35 9 3 24 1 36 -5 11 -6 27 -7 36 -3 9 4
25 6 36 5 15 -2 17 2 12 23 -4 15 -2 26 4 26 5 0 10 7 10 15 0 8 -4 15 -8 15
-5 0 -7 14 -4 31 4 27 7 29 33 24 32 -7 38 7 15 38 -14 18 -90 25 -100 8 -6
-8 -64 -24 -96 -26 -30 -1 -59 -16 -64 -33 -6 -16 -20 -19 -117 -21 -14 -1
-35 -12 -48 -27 -19 -22 -21 -30 -12 -51 15 -33 14 -53 -4 -53 -10 0 -16 18
-21 63 -4 34 -9 56 -11 50 -3 -7 -11 -13 -19 -13 -8 0 -14 -5 -14 -11 0 -6 -9
-8 -20 -4 -17 5 -20 2 -20 -24 0 -35 -19 -42 -27 -11 -6 24 -13 25 -38 6 -17
-12 -17 -15 -3 -29 11 -12 26 -14 52 -10 33 5 50 -7 28 -21 -8 -5 -250 -12
-724 -22 -306 -6 -318 -6 -319 12 0 16 -2 16 -9 -3 -9 -22 -15 -23 -122 -24
-62 -1 -129 -2 -148 -4 -82 -5 -649 -19 -805 -19 -139 -1 -169 1 -167 13 2 7
-5 22 -14 32 -9 10 -16 31 -16 46 0 19 -10 37 -32 55 -41 36 -84 36 -121 2
-20 -18 -26 -21 -21 -8 6 17 6 17 -12 1 -10 -9 -32 -17 -48 -17 -37 0 -103 31
-128 59 -11 11 -23 21 -28 21 -5 0 -21 9 -36 20 -15 11 -50 26 -77 33 -39 9
-51 17 -53 33 -2 12 17 73 42 135 26 62 46 118 46 124 0 15 -47 -79 -77 -155
-40 -99 -50 -111 -87 -104 -17 3 -77 6 -133 6 -57 -1 -103 2 -103 5 0 3 8 11
17 18 14 10 15 16 5 28 -12 15 6 67 60 172 31 59 36 64 67 60 27 -4 73 26 82
53 2 6 35 36 74 65 98 74 97 113 -1 55 -18 -10 -36 -18 -40 -17 -24 4 -44 -3
-44 -15 0 -16 -21 -26 -53 -26 -11 0 -28 -7 -37 -15 -27 -24 -208 -34 -222
-12 -15 22 46 64 109 76 198 37 225 45 231 60 3 9 21 31 39 50 26 25 37 31 46
22 9 -9 16 -6 29 11 12 15 16 17 12 6 -3 -9 0 -34 7 -55 11 -34 13 -35 20 -16
10 28 -18 103 -40 104 -9 1 -23 2 -31 3 -8 0 -13 8 -12 16 13 56 14 80 2 80
-25 0 -65 -64 -59 -96 4 -22 -2 -34 -17 -34 -8 0 -12 -4 -9 -10 3 -6 -1 -7
-10 -4 -9 4 -26 2 -38 -3 -88 -41 -139 -54 -176 -48 -34 6 -40 4 -46 -15 -5
-16 -10 -19 -20 -10 -10 8 -20 8 -36 -1 -17 -9 -24 -9 -27 0 -6 17 -40 13 -46
-6 -5 -14 -17 -18 -60 -18 -45 0 -52 2 -43 14 10 11 8 13 -10 7 -12 -4 -24 -2
-28 4 -3 5 -21 10 -39 10 -17 0 -37 5 -44 12 -8 8 -43 11 -103 10 -95 -2 -129
7 -129 36 -1 19 -69 55 -91 48 -8 -3 -33 -7 -56 -10 -23 -2 -47 -7 -52 -10
-33 -21 -18 143 17 186 37 46 66 68 99 74 25 5 43 18 64 47 16 22 29 45 29 52
0 7 9 20 19 29 46 42 133 330 149 494 11 108 4 152 -33 205 -18 25 -19 51 -5
78 8 14 21 19 54 19 39 0 50 -6 91 -45z m6701 -294 c16 -5 55 -15 87 -22 32
-7 60 -16 63 -21 10 -16 -38 -167 -62 -193 -20 -21 -69 -34 -88 -22 -2 1 -12
-5 -22 -14 -11 -9 -28 -19 -38 -23 -31 -11 -13 -16 55 -17 86 -1 116 -7 123
-25 4 -11 1 -14 -12 -10 -9 2 -41 8 -69 11 -83 11 -64 -11 27 -31 69 -16 80
-21 80 -40 0 -16 -6 -21 -27 -22 -75 -2 -93 -27 -93 -131 -1 -43 -4 -48 -43
-75 -23 -15 -36 -22 -29 -15 14 15 16 33 3 25 -5 -4 -11 -2 -13 3 -1 4 -14 11
-28 15 -25 6 -25 6 -2 -5 22 -12 28 -24 14 -33 -10 -6 -73 21 -71 31 4 25 -2
34 -20 28 -11 -3 -22 -1 -26 5 -3 5 -17 10 -30 10 -25 0 -79 42 -68 53 3 4 0
13 -7 21 -11 14 -14 14 -27 1 -17 -18 -33 -19 -33 -4 0 5 4 8 8 5 5 -3 14 4
22 14 8 10 17 17 21 15 17 -11 16 25 -2 43 -26 29 -24 33 11 27 33 -6 74 10
65 26 -4 5 -15 9 -26 9 -12 0 -17 4 -13 11 4 7 -5 10 -27 9 -54 -3 -69 -1 -69
11 0 6 6 9 13 6 7 -2 40 0 72 6 44 8 54 12 37 16 -22 6 -22 7 8 18 29 11 32
10 27 -7 -6 -22 21 -36 37 -20 8 8 7 13 -3 19 -26 16 -7 43 39 56 25 7 67 22
93 34 27 11 55 21 62 21 8 0 17 5 20 10 8 13 -25 26 -34 13 -3 -5 -40 -20 -81
-32 -41 -12 -99 -38 -129 -57 l-53 -36 -22 21 c-12 12 -32 21 -44 21 -31 0
-27 13 11 30 44 21 40 34 -13 41 -42 6 -41 10 5 14 64 6 62 5 38 15 -29 12
-30 41 -2 58 51 32 107 57 163 73 74 21 85 21 122 10z m-7930 -476 c-3 -9 0
-15 8 -15 8 0 16 -4 18 -10 3 -9 125 -25 176 -23 12 1 22 -3 22 -8 0 -5 -8 -9
-17 -9 -20 0 -46 -47 -32 -56 5 -3 9 2 9 10 0 12 10 16 40 16 38 0 39 -1 28
-20 -7 -11 -21 -20 -30 -20 -10 0 -18 -4 -18 -10 0 -5 -7 -10 -15 -10 -8 0
-15 5 -15 10 0 20 -16 10 -17 -11 -2 -26 -8 -32 -31 -34 -30 -3 -62 -16 -62
-26 0 -5 -9 -9 -20 -9 -12 0 -20 -7 -21 -17 0 -16 -1 -16 -8 0 -6 17 -8 16
-20 -9 l-12 -27 -15 27 c-7 16 -11 33 -8 38 4 6 8 30 10 53 2 38 0 43 -19 44
-12 0 -57 3 -99 5 -45 2 -76 0 -72 -5 5 -9 -45 -33 -53 -26 -2 3 9 19 24 37
l28 33 -30 -7 c-60 -14 33 38 122 68 79 27 137 32 129 11z m7324 -449 c0 -14
34 -30 59 -26 9 1 12 -4 8 -14 -4 -11 -1 -16 12 -16 26 0 53 -33 45 -55 -5
-13 -4 -16 4 -11 7 4 12 2 12 -5 0 -7 3 -10 6 -6 6 6 -14 74 -28 93 -5 7 -2
17 6 23 12 10 18 7 30 -17 8 -16 20 -51 27 -78 6 -27 18 -59 25 -71 8 -12 14
-36 14 -53 0 -16 5 -30 10 -30 6 0 10 -11 10 -25 0 -28 -3 -29 -29 -15 -11 5
-22 27 -27 52 l-8 43 -4 -33 c-2 -19 1 -46 6 -62 7 -19 7 -31 -1 -39 -8 -8 -8
-11 1 -11 7 0 12 -6 12 -14 0 -21 20 -30 33 -17 8 8 8 14 -1 23 -16 16 -15 38
2 38 7 0 16 -12 19 -27 3 -16 9 -41 13 -57 5 -21 3 -32 -9 -41 -13 -10 -15
-21 -7 -74 5 -39 5 -73 -1 -88 -5 -13 -7 -29 -3 -34 3 -5 -12 -9 -33 -9 -30 0
-35 -3 -23 -11 11 -8 6 -9 -22 -5 -21 2 -38 1 -38 -5 0 -5 -11 -9 -25 -9 -14
0 -24 3 -24 8 3 19 -2 33 -10 27 -5 -3 -13 0 -16 6 -12 18 -35 143 -30 158 3
8 0 11 -9 8 -9 -4 -16 3 -20 19 -7 27 -33 32 -42 9 -4 -8 -2 -21 4 -28 21 -26
23 -55 5 -60 -16 -4 -15 -6 4 -12 12 -4 29 -18 38 -31 16 -26 8 -32 -15 -11
-7 6 -2 -9 13 -35 14 -26 21 -50 17 -53 -5 -3 -53 -6 -107 -7 -54 0 -136 -1
-182 -2 -89 -1 -86 -2 -109 54 -5 14 -15 38 -21 54 -6 15 -27 42 -46 58 -42
38 -38 68 6 37 l29 -20 1 23 c0 13 3 17 6 10 4 -10 8 -9 19 5 13 17 13 17 14
1 0 -25 20 -23 20 2 0 11 -4 20 -10 20 -5 0 -10 9 -10 20 0 11 -4 20 -10 20
-5 0 -10 -8 -10 -17 0 -15 -2 -14 -15 3 -13 17 -14 17 -15 2 0 -29 -17 -21
-30 15 -6 17 -15 39 -18 47 -10 21 -3 130 8 130 11 0 25 -40 21 -63 -1 -9 5
-20 13 -23 9 -3 14 -9 12 -13 -3 -4 -1 -13 3 -20 6 -9 11 -10 15 -2 4 6 2 11
-4 11 -8 0 -8 6 0 20 14 25 30 26 37 1 11 -44 54 -21 76 42 4 10 11 16 17 12
16 -10 50 14 51 38 l2 22 4 -22 c5 -25 19 -31 25 -11 2 6 10 -3 17 -20 18 -43
42 -43 35 1 -4 22 -3 28 4 18 7 -10 11 -10 17 -1 4 7 -1 13 -14 17 -12 3 -21
10 -21 15 0 5 5 6 10 3 10 -6 6 56 -6 93 -2 6 -1 19 3 28 4 12 7 13 14 3 4 -8
11 -10 15 -6 4 3 2 12 -3 19 -15 19 -26 71 -13 63 5 -3 10 -12 10 -18 1 -23
67 -147 75 -139 5 4 5 1 1 -5 -19 -34 34 -133 70 -133 17 0 7 30 -14 48 -14
10 -13 12 4 12 12 0 23 3 26 6 11 10 -4 42 -25 53 -16 9 -22 22 -23 47 0 20
-5 39 -11 42 -20 14 -21 39 -1 56 16 14 17 20 8 32 -10 11 -9 14 4 14 9 0 16
-6 16 -14z m-6352 -54 c2 -12 10 -22 18 -22 18 0 18 -34 0 -50 -8 -6 -12 -18
-10 -25 5 -11 -5 -13 -43 -10 -26 2 -56 6 -65 10 -20 8 -24 35 -8 51 7 7 4 19
-10 36 -11 15 -20 32 -20 40 0 10 2 10 10 -2 8 -12 10 -12 16 3 5 14 9 15 20
6 11 -9 15 -7 20 5 6 15 9 15 38 -2 17 -10 32 -28 34 -40z m435 -653 c42 -11
42 -20 9 -84 -26 -49 -15 -250 14 -280 16 -16 103 -19 425 -15 l146 2 74 -63
c41 -34 82 -67 92 -73 9 -6 17 -16 17 -22 0 -6 14 -26 30 -44 36 -41 39 -56 6
-34 -14 8 -35 14 -47 12 -49 -7 -69 -66 -86 -251 -5 -59 -16 -69 -37 -32 -13
22 -41 57 -81 102 -35 40 -79 52 -183 53 -64 0 -75 3 -103 28 -17 15 -61 43
-97 64 -37 20 -84 50 -104 67 -20 17 -42 31 -48 31 -6 0 -21 10 -34 23 -33 33
-89 74 -211 155 -60 41 -114 80 -118 88 -5 8 -25 14 -50 14 -54 1 -123 54
-113 87 16 50 87 94 246 154 82 31 182 38 253 18z m6335 -256 c0 -21 3 -49 7
-63 8 -23 7 -24 -8 -11 -12 9 -17 10 -17 2 0 -7 -14 -11 -36 -9 -36 3 -37 2
-41 -36 -2 -21 -10 -50 -17 -65 -10 -18 -12 -47 -9 -93 5 -57 10 -71 40 -104
20 -22 40 -51 45 -66 6 -17 19 -29 36 -33 31 -7 78 -42 69 -51 -3 -4 0 -13 8
-21 19 -19 19 -53 1 -53 -8 0 -21 7 -30 15 -8 8 -18 15 -22 15 -17 0 -151 74
-175 97 -14 13 -32 36 -40 51 -7 15 -21 37 -30 50 -19 25 -39 128 -43 225 -2
35 -6 70 -10 76 -4 7 2 32 13 56 23 50 27 51 173 53 l88 2 -2 -37z m-513 7 c3
-5 0 -10 -7 -11 -7 0 -3 -5 10 -11 20 -10 27 -25 23 -55 -1 -7 2 -13 7 -13 12
0 36 -37 46 -67 5 -16 3 -23 -5 -23 -7 0 -9 3 -6 7 4 3 -2 13 -14 21 -22 15
-39 8 -22 -9 6 -6 9 -18 6 -25 -3 -8 0 -21 7 -29 7 -8 9 -15 4 -16 -22 -3 -60
4 -70 12 -6 5 -14 6 -17 2 -4 -3 -7 16 -7 44 0 27 -3 77 -6 111 -6 53 -5 61
12 65 31 8 33 7 39 -3z m-4268 -319 c-2 -9 2 -22 9 -28 29 -27 4 -52 -79 -78
-44 -14 -85 -25 -90 -25 -18 0 43 58 74 70 16 7 29 16 29 21 0 8 -33 5 -48 -5
-4 -2 -14 -1 -22 4 -12 8 -9 14 16 36 42 37 96 55 107 36 5 -7 7 -21 4 -31z
m4861 -1 c20 -24 46 -43 67 -49 19 -5 64 -30 100 -55 36 -25 82 -50 103 -55
42 -12 95 -46 57 -37 -11 2 -47 7 -80 11 -99 11 -196 36 -263 68 l-63 30 6 51
c7 49 19 76 35 76 3 0 21 -18 38 -40z m2751 -249 c30 -28 58 -51 63 -51 4 0 8
-5 8 -11 0 -6 14 -22 31 -36 17 -15 28 -32 25 -40 -8 -20 15 -60 66 -114 24
-25 44 -56 45 -68 l2 -23 -19 24 c-32 38 -84 88 -93 88 -17 0 -98 94 -92 108
3 8 0 12 -7 9 -13 -4 -58 52 -58 72 0 5 -4 13 -10 16 -6 4 -7 -1 -3 -12 6 -16
5 -16 -10 -4 -9 7 -17 24 -17 37 0 13 -4 24 -9 24 -12 0 -23 29 -15 41 8 13
30 -2 93 -60z m-7474 -235 c11 -2 28 -5 37 -5 16 -1 20 -8 32 -63 6 -27 6 -27
-44 -23 -28 1 -56 8 -64 14 -7 6 -38 12 -70 12 -31 1 -56 5 -56 10 0 5 -7 6
-16 2 -31 -12 -35 20 -6 45 24 20 34 22 97 18 39 -3 79 -8 90 -10z"/>
<path d="M11914 7472 c-6 -4 -17 -24 -25 -45 -12 -33 -11 -39 1 -48 10 -5 11
-12 5 -16 -5 -5 -16 -18 -22 -30 -11 -19 -10 -24 5 -32 14 -8 15 -12 5 -22
-18 -18 -16 -39 2 -39 8 0 15 7 15 15 0 8 9 20 20 27 11 7 20 17 20 21 0 5 10
17 22 26 17 14 26 15 44 7 13 -6 24 -15 24 -20 0 -5 6 -3 14 3 14 12 86 11 86
-1 0 -5 -7 -8 -17 -8 -22 0 -8 -13 17 -15 12 -1 20 4 20 14 -1 34 -75 95 -89
73 -3 -6 -17 -12 -31 -15 -14 -2 -19 -2 -12 0 6 3 12 11 12 20 0 9 -6 13 -15
9 -20 -7 -19 3 3 27 17 20 16 20 -14 14 -16 -3 -36 -7 -43 -9 -7 -2 -15 5 -16
16 -5 25 -18 37 -31 28z"/>
<path d="M11680 6798 c-14 -6 -43 -12 -65 -14 -63 -6 -79 -9 -100 -21 -11 -6
-32 -13 -47 -17 -28 -6 -30 -17 -9 -55 8 -14 11 -38 8 -58 -4 -20 -1 -43 6
-54 16 -25 47 -25 47 1 0 13 7 20 20 20 11 0 20 -7 20 -15 0 -25 1 -30 13 -44
12 -14 44 -12 139 8 52 11 129 60 123 78 -2 7 10 15 28 19 17 3 48 24 70 46
37 37 38 40 23 62 -10 16 -28 26 -53 29 -21 3 -56 10 -78 16 -50 13 -112 13
-145 -1z"/>
<path d="M3015 6516 c-3 -9 -7 -23 -10 -31 -5 -18 11 -30 19 -13 3 7 3 -3 0
-22 -8 -51 52 -175 104 -217 l40 -32 -5 67 c-8 132 -13 151 -46 185 -17 18
-37 31 -44 29 -7 -2 -13 2 -13 8 0 6 -4 8 -10 5 -5 -3 -10 1 -10 9 0 21 -19
30 -25 12z"/>
<path d="M7856 4500 c16 -31 63 -70 86 -70 25 -1 48 -27 48 -56 0 -26 -4 -30
-29 -32 -22 -2 -31 3 -36 18 -4 13 -14 20 -23 18 -19 -4 -31 -88 -13 -88 6 0
11 -14 11 -32 0 -17 -3 -28 -7 -25 -10 11 -33 -14 -33 -37 0 -16 -2 -18 -9 -7
-11 18 -3 41 23 62 19 16 19 16 -7 21 -15 3 -30 1 -33 -3 -3 -5 -14 -9 -25 -9
-10 0 -19 -4 -19 -10 0 -20 66 -99 83 -99 9 -1 26 -6 37 -13 16 -10 23 -9 43
10 13 12 30 22 38 22 11 1 10 4 -4 14 -13 11 -15 19 -8 37 10 24 10 24 10 -5
1 -24 3 -27 16 -16 13 11 15 8 15 -14 0 -39 18 -31 26 12 7 34 8 35 14 12 4
-18 12 -24 27 -22 12 2 23 -4 27 -13 3 -9 10 -13 16 -10 5 3 10 0 10 -8 0 -12
-9 -14 -37 -10 -54 7 -115 -21 -111 -50 3 -19 9 -22 48 -23 60 0 91 16 123 65
15 22 38 48 52 57 26 17 35 37 13 29 -9 -4 -14 6 -15 27 -2 32 -18 57 -29 46
-3 -3 1 -20 10 -36 14 -27 14 -31 -4 -47 -27 -25 -64 -13 -118 39 -50 49 -51
65 -2 94 l31 19 -58 48 c-74 61 -101 71 -119 48 -12 -17 -13 -16 -14 9 0 20
-8 31 -32 42 -17 9 -32 16 -34 16 -1 0 4 -13 12 -30z"/>
<path d="M5027 3724 c-4 -4 -36 -6 -72 -6 -36 1 -65 -3 -65 -7 0 -12 -60 -20
-66 -9 -11 17 -24 7 -20 -16 5 -28 -13 -96 -26 -96 -4 0 -8 5 -8 11 0 8 -4 8
-12 2 -12 -8 -19 -9 -55 -5 -7 1 -13 10 -13 20 -1 10 -7 3 -15 -15 -11 -27
-20 -33 -43 -33 -35 0 -102 -26 -102 -40 0 -6 -7 -10 -15 -10 -25 0 -18 -46
10 -64 24 -16 27 -16 58 8 22 16 52 26 94 31 34 4 67 13 74 21 9 11 8 14 -4
14 -12 0 -13 4 -4 23 7 15 20 23 43 24 18 2 56 12 84 23 67 26 100 26 100 0 0
-11 5 -20 10 -20 6 0 10 5 10 10 0 19 52 60 75 60 13 0 28 7 35 15 7 8 21 15
31 15 24 0 35 20 18 31 -19 12 -29 11 -29 -2 0 -5 5 -7 10 -4 6 3 10 1 10 -5
0 -11 -41 -5 -72 12 -12 6 -18 5 -18 -2 0 -6 -5 -8 -10 -5 -6 4 -8 11 -5 16 7
10 2 12 -8 3z"/>
<path d="M6359 2896 c-21 -46 -38 -54 -51 -25 -7 19 -65 31 -72 15 -2 -6 -5
-1 -5 12 -1 12 -4 22 -7 22 -17 0 -42 -45 -48 -85 -6 -39 -26 -74 -26 -46 0 6
-7 11 -15 11 -8 0 -15 5 -15 11 0 8 -4 8 -14 0 -11 -9 -15 -9 -18 1 -4 10 -8
10 -22 -1 -9 -8 -14 -21 -11 -31 3 -10 2 -28 -3 -41 -5 -13 -7 -30 -5 -37 8
-20 23 -3 23 26 0 15 7 36 15 46 14 18 15 18 25 -8 5 -15 10 -33 11 -39 0 -7
4 -3 9 8 5 12 6 -1 3 -35 -3 -38 0 -61 9 -74 13 -17 15 -17 31 -1 16 15 17 15
17 -9 0 -34 13 -33 27 2 l11 27 1 -28 c2 -45 25 -27 36 29 5 27 15 55 22 62
16 17 17 26 1 16 -8 -5 -9 -2 -5 10 4 10 7 29 7 42 0 14 4 23 9 20 4 -3 6 6 3
20 -5 26 -5 26 22 9 14 -10 26 -22 26 -27 0 -20 -21 -47 -33 -42 -10 4 -12 -3
-9 -27 3 -17 8 -26 12 -20 4 7 11 2 18 -14 10 -22 9 -25 -8 -25 -11 0 -20 -7
-20 -15 0 -8 4 -15 10 -15 5 0 12 -11 16 -25 7 -27 34 -35 34 -10 0 8 6 15 13
15 7 0 18 20 25 44 10 37 16 45 39 49 26 4 25 4 -5 6 -19 0 -31 5 -27 11 3 6
-3 23 -14 39 -15 21 -18 30 -9 33 17 6 18 115 2 129 -10 8 -18 0 -35 -35z"/>
<path d="M5760 2783 c0 -10 -3 -36 -7 -57 -4 -29 -3 -37 6 -32 7 4 19 5 28 2
12 -5 13 -9 3 -22 -19 -22 1 -39 28 -25 15 8 23 8 27 0 4 -6 -2 -13 -14 -16
-22 -6 -19 -23 4 -23 9 0 16 15 20 38 3 20 10 44 16 52 5 8 13 25 18 37 6 11
14 24 20 27 6 4 8 13 4 21 -6 18 -59 20 -66 3 -4 -10 -6 -10 -6 0 -1 6 -7 12
-15 12 -8 0 -17 -6 -20 -12 -5 -10 -7 -10 -12 0 -9 18 -34 15 -34 -5z"/>
<path d="M9480 2784 c0 -10 -7 -14 -22 -12 -19 2 -24 -2 -26 -24 -4 -32 -5
-32 -33 -15 -17 10 -23 9 -26 -1 -3 -6 -10 -9 -15 -6 -7 4 -8 2 -4 -5 4 -6 13
-11 19 -10 32 4 67 -2 67 -12 0 -7 -11 -8 -30 -4 -20 4 -30 3 -30 -5 0 -7 13
-10 33 -8 26 2 32 7 31 26 0 12 4 22 9 22 5 0 15 7 22 16 10 14 13 13 29 -11
10 -15 15 -32 13 -39 -4 -9 3 -11 20 -8 18 3 24 1 19 -7 -5 -7 2 -11 20 -11
15 0 24 3 21 7 -4 3 2 16 13 28 23 24 14 39 -25 47 -11 2 -19 10 -17 16 2 12
-10 16 -35 13 -7 -1 -13 3 -13 9 0 5 -9 10 -20 10 -11 0 -20 -7 -20 -16z"/>
<path d="M10710 11989 c0 -8 34 -10 115 -7 87 3 115 1 115 -8 0 -17 89 -35
111 -23 10 5 24 9 31 8 7 0 3 -4 -9 -9 -31 -13 -29 -32 2 -24 21 5 25 3 25
-16 0 -17 -4 -21 -19 -17 -15 3 -21 -1 -23 -16 -2 -13 -13 -24 -28 -27 -14 -4
-24 -12 -22 -18 1 -7 -5 -12 -15 -12 -15 0 -15 -2 1 -19 10 -11 15 -24 12 -30
-3 -5 0 -12 6 -14 7 -3 -2 -6 -19 -6 -23 -1 -33 4 -33 14 0 13 -2 14 -14 3
-12 -11 -7 -15 27 -27 38 -13 39 -15 21 -28 -15 -11 -16 -15 -5 -22 11 -7 10
-10 -5 -14 -16 -4 -17 -5 -1 -6 21 -1 23 -21 2 -21 -8 0 -15 -4 -15 -10 0 -5
5 -9 11 -7 6 1 14 -4 16 -10 3 -7 -3 -13 -11 -13 -22 0 -33 -30 -15 -40 9 -6
5 -11 -17 -16 -16 -4 -37 -11 -48 -16 -15 -8 -16 -12 -5 -19 10 -6 8 -9 -8 -9
-13 0 -23 -5 -23 -11 0 -7 10 -9 26 -5 15 4 23 3 20 -2 -3 -5 -20 -12 -37 -16
-17 -3 -59 -19 -92 -35 -34 -15 -70 -31 -79 -34 -10 -4 -18 -11 -18 -17 0 -13
17 -9 115 31 38 16 73 25 78 20 6 -6 -100 -51 -180 -76 -8 -3 -13 -22 -13 -50
0 -40 2 -45 23 -42 18 2 22 -2 19 -23 -1 -14 -12 -33 -25 -44 -21 -18 -22 -24
-25 -255 -1 -139 1 -231 6 -223 5 8 13 12 18 10 4 -1 11 11 15 29 4 20 2 34
-5 37 -6 2 0 5 14 5 20 1 22 3 10 11 -12 8 -12 10 -1 10 7 0 24 11 37 25 19
21 32 25 77 25 29 0 58 -5 64 -11 12 -12 19 28 28 181 8 129 15 193 21 200 3
3 3 -20 0 -50 -2 -30 -8 -122 -11 -205 -3 -82 -8 -168 -10 -190 -5 -49 9 -80
20 -44 4 12 9 52 10 88 3 66 12 132 22 161 3 8 7 35 10 60 2 25 7 46 12 48 4
1 5 16 3 33 -5 33 20 69 47 69 9 0 29 7 45 15 15 8 35 15 43 15 8 0 12 4 9 9
-3 5 4 11 17 15 15 4 28 -1 42 -18 19 -22 20 -31 12 -137 -13 -190 -13 -229 1
-229 4 0 6 17 4 37 -3 24 0 40 10 47 8 6 18 29 22 51 15 80 75 175 110 175 23
0 101 48 101 62 0 10 42 13 185 13 l185 0 0 -60 c0 -33 -4 -98 -8 -145 -3 -47
-11 -141 -17 -210 -6 -69 -10 -155 -9 -191 1 -37 -1 -71 -5 -77 -7 -12 -86
-21 -86 -9 0 5 -9 6 -20 2 -10 -3 -30 1 -43 10 -13 8 -27 12 -30 8 -4 -3 -7 2
-7 12 0 10 -3 15 -6 12 -11 -10 -42 -299 -37 -334 l5 -33 229 0 c125 0 230 -4
233 -8 9 -15 -218 -22 -693 -22 -427 0 -507 -5 -389 -25 41 -7 56 -33 44 -73
-4 -13 -1 -22 9 -26 11 -4 863 -9 1039 -6 16 0 18 8 14 80 -2 44 1 80 5 80 5
0 7 6 4 13 -2 7 1 39 7 72 7 33 12 115 12 182 -1 66 2 119 7 116 4 -2 7 22 6
54 0 42 -3 52 -9 38 -6 -14 -9 -15 -9 -4 -1 8 4 20 9 25 6 6 13 40 17 77 5 54
3 67 -8 67 -12 0 -12 2 0 9 9 6 15 34 17 77 6 103 53 830 58 898 3 32 2 72 -1
88 l-6 29 -113 -2 c-104 -1 -131 -7 -104 -24 6 -3 10 -15 10 -26 0 -12 7 -19
20 -19 l21 0 -21 -22 c-11 -12 -20 -32 -20 -45 0 -13 -6 -23 -14 -23 -13 0
-26 -20 -26 -41 0 -5 7 -9 15 -9 16 0 16 -2 18 -47 1 -22 -4 -29 -21 -31 -26
-4 -30 -22 -4 -23 10 0 12 -3 5 -6 -7 -2 -13 -14 -13 -25 0 -20 1 -21 20 -3
20 18 20 17 20 -9 0 -25 -3 -27 -29 -21 -28 6 -45 -5 -46 -30 0 -28 -34 -53
-83 -64 -30 -6 -57 -9 -62 -6 -8 5 -131 16 -177 15 -12 0 -26 6 -30 14 -4 7
-30 21 -56 31 -29 11 -43 21 -36 25 8 6 6 11 -6 18 -20 11 -12 32 13 32 15 0
15 2 2 10 -13 8 -12 10 4 10 15 0 16 3 7 14 -15 18 5 56 29 56 13 0 13 1 0 10
-13 9 -13 10 0 11 8 1 0 4 -18 8 -18 3 -31 9 -30 12 2 4 -8 17 -22 29 l-25 21
33 -5 c20 -4 31 -2 27 4 -3 6 -12 10 -18 10 -7 0 -25 10 -40 23 -24 19 -27 27
-21 51 4 16 15 31 25 33 11 3 19 14 19 24 0 18 -14 19 -365 19 -264 0 -365 -3
-365 -11z"/>
<path d="M12376 11986 c3 -8 1 -17 -5 -21 -25 -15 -10 -33 26 -31 32 1 38 -3
43 -24 l7 -25 5 25 c10 46 8 -38 -2 -144 -11 -116 -16 -136 -35 -136 -33 0
-22 -48 18 -78 13 -10 15 -18 7 -32 -10 -19 -40 -290 -40 -367 0 -24 -4 -43
-9 -43 -5 0 -5 -17 0 -40 6 -24 6 -77 0 -128 -4 -48 -5 -91 -1 -95 4 -5 18 -3
31 3 15 9 119 15 318 21 163 4 364 10 446 14 83 3 341 8 575 11 324 4 421 3
410 -6 -13 -10 -12 -11 3 -6 10 3 21 6 23 6 3 0 2 5 -1 10 -10 16 4 48 23 54
18 6 28 46 11 46 -8 0 -13 -15 -10 -32 0 -5 -4 -8 -10 -8 -7 0 -10 20 -7 57
l3 57 -120 -2 c-134 -3 -546 -19 -700 -27 -95 -5 -182 -7 -660 -20 -110 -3
-213 -8 -228 -11 l-29 -6 7 88 c4 49 13 145 21 214 7 69 16 161 18 205 3 44
13 148 21 230 9 83 17 174 19 203 l3 52 -43 0 c-37 0 -44 -3 -44 -19 0 -28
-16 -34 -43 -16 -13 8 -27 12 -30 8 -4 -3 -7 1 -7 10 0 10 -4 17 -10 17 -5 0
-7 -6 -4 -14z"/>
<path d="M13862 11988 c6 -16 26 -26 73 -34 39 -6 39 -7 15 -17 -14 -5 -29 -9
-33 -8 -4 0 -1 -12 8 -29 13 -25 19 -29 35 -20 29 15 39 12 46 -15 7 -27 19
-33 27 -12 3 6 6 2 6 -11 1 -13 -3 -21 -8 -18 -5 4 -12 0 -14 -6 -4 -9 -6 -9
-6 -1 -1 14 -38 5 -44 -12 -3 -6 8 -24 24 -38 16 -14 29 -21 29 -16 0 5 7 9
15 9 21 0 19 -30 -2 -31 -15 0 -15 -2 -3 -7 19 -9 26 -89 11 -134 -5 -18 -15
-87 -21 -153 -6 -66 -13 -130 -15 -142 -4 -16 -1 -21 8 -17 13 5 30 115 44
279 2 28 10 91 18 140 8 50 17 119 20 154 4 36 13 74 21 85 8 11 14 31 14 43
0 21 -4 23 -54 23 -49 0 -55 -2 -59 -22 l-4 -23 -2 23 c-1 21 -5 22 -77 22
-54 0 -75 -3 -72 -12z"/>
<path d="M14290 11983 c-1 -10 -3 -75 -5 -145 l-4 -126 39 15 c33 13 40 21 40
44 0 15 -4 31 -10 34 -6 4 -3 16 6 31 9 13 14 27 10 31 -3 4 1 15 10 25 14 14
14 20 4 33 -11 13 -10 19 5 35 25 27 11 40 -46 40 -40 0 -49 -3 -49 -17z"/>
<path d="M14456 11978 c-5 -23 -26 -232 -26 -254 0 -7 -16 -15 -35 -18 -19 -4
-35 -12 -35 -18 0 -5 7 -8 15 -4 47 18 57 -32 30 -149 -9 -36 -14 -69 -11 -73
2 -4 1 -28 -4 -52 -4 -25 -11 -85 -14 -135 -4 -56 -12 -94 -20 -100 -19 -15
-20 -27 -1 -38 13 -7 15 -17 10 -46 -7 -37 -17 -114 -35 -276 -7 -62 -14 -92
-25 -98 -13 -7 -13 -10 -1 -22 11 -11 12 -23 4 -55 -6 -22 -15 -40 -20 -40 -6
0 -8 -6 -5 -14 3 -8 -5 -19 -19 -26 -13 -8 -23 -21 -22 -29 3 -18 -32 -16 -44
2 -4 6 -10 8 -14 4 -4 -4 3 -15 14 -26 28 -23 29 -51 2 -51 -11 0 -20 -4 -20
-9 0 -6 -12 -16 -27 -23 -30 -14 -34 -28 -48 -203 -6 -65 -4 -78 6 -67 7 6 21
12 31 12 10 0 18 4 18 8 0 5 19 6 43 3 l42 -6 -3 -65 c-2 -36 -10 -110 -19
-165 -8 -55 -16 -116 -18 -135 -1 -19 -3 -39 -4 -45 -2 -5 -4 -23 -4 -39 -2
-22 -8 -31 -28 -36 -41 -12 -99 -42 -99 -52 0 -5 9 -6 20 -3 11 4 20 2 20 -4
0 -6 -7 -11 -14 -11 -8 0 -27 -12 -43 -26 -20 -18 -24 -27 -15 -33 10 -6 10
-10 0 -18 -16 -13 -346 -24 -354 -12 -3 5 -17 9 -32 8 -24 0 -25 -1 -7 -9 14
-6 4 -9 -38 -9 -45 -1 -59 -5 -64 -18 -3 -10 -20 -29 -36 -43 -40 -34 -49
-112 -17 -149 l21 -24 245 -1 246 -1 22 28 c21 26 42 41 84 63 14 7 112 -87
112 -106 0 -5 -11 -12 -25 -16 -25 -6 -36 -34 -13 -34 9 0 9 -3 1 -11 -6 -6
-9 -18 -5 -27 4 -11 1 -14 -10 -9 -13 5 -16 -1 -14 -29 3 -29 0 -34 -18 -35
-18 -1 -18 -2 -3 -6 11 -3 29 5 44 19 23 21 25 22 34 5 6 -9 14 -15 20 -12 5
4 9 -1 9 -9 0 -9 -3 -15 -7 -15 -20 3 -24 -2 -13 -16 13 -15 5 -55 -11 -55 -6
0 -8 -9 -4 -19 3 -11 1 -22 -5 -26 -17 -10 -11 -24 18 -40 l27 -16 -32 5 c-19
3 -33 1 -33 -4 0 -6 5 -10 10 -10 6 0 10 -8 10 -17 0 -14 8 -18 40 -17 22 0
48 7 57 15 24 19 61 39 71 39 5 0 21 -11 36 -25 35 -33 62 -32 131 5 31 17 70
30 86 30 16 0 29 4 29 9 0 17 41 7 51 -11 6 -10 14 -16 19 -13 5 3 11 1 15 -5
10 -16 48 -12 42 5 -4 8 -2 17 3 20 6 4 10 0 10 -8 0 -10 7 -13 21 -10 12 3
24 0 29 -6 4 -7 36 -15 71 -18 35 -3 69 -9 74 -14 13 -9 133 -1 157 12 9 5 33
9 53 9 20 0 34 4 31 9 -3 5 1 14 9 21 8 7 15 19 15 26 0 8 5 14 10 14 6 0 10
20 10 45 0 35 -3 43 -15 39 -8 -4 -15 -1 -15 5 0 6 8 11 18 11 16 1 16 1 0 11
-20 11 -26 83 -8 94 6 4 9 14 8 23 -2 9 2 16 9 15 6 -1 17 4 23 12 10 13 8 15
-16 15 -16 0 -46 5 -67 11 -23 6 -43 7 -50 1 -7 -5 -32 -10 -57 -11 -24 -1
-49 -6 -55 -10 -17 -14 -63 -22 -69 -12 -3 4 -38 7 -77 4 -45 -2 -76 1 -85 8
-9 8 -42 10 -96 7 -78 -5 -138 8 -120 26 4 4 -4 5 -18 2 -41 -11 -184 -13
-202 -4 -13 6 -16 5 -12 -7 8 -20 -5 -19 -29 2 -20 18 -21 19 -74 21 -22 1
-33 7 -33 17 0 22 43 29 97 16 27 -7 77 -12 113 -12 164 0 156 -2 189 37 29
33 30 37 16 57 -22 31 -19 40 11 33 18 -5 25 -3 22 5 -6 17 30 52 43 43 8 -4
8 -9 -1 -14 -8 -5 -7 -17 6 -46 10 -21 18 -46 18 -54 1 -8 12 -16 26 -18 14
-2 35 -15 47 -30 22 -26 23 -26 95 -16 40 6 75 8 78 4 10 -13 60 -5 80 13 25
21 30 21 30 1 0 -13 7 -14 43 -8 49 9 144 12 170 6 9 -2 17 -11 17 -18 0 -24
18 -15 28 14 8 24 16 28 48 30 22 1 48 -2 59 -7 60 -25 96 -30 165 -24 41 3
81 9 89 13 7 4 30 4 49 -1 22 -5 41 -4 48 2 6 5 18 7 27 3 9 -3 25 4 39 18 13
13 28 23 33 23 6 0 11 13 13 29 2 18 0 26 -7 21 -6 -3 -11 -2 -11 2 0 5 9 14
19 20 11 7 21 24 23 39 2 15 10 30 18 32 13 5 13 3 1 -11 -8 -10 -11 -27 -7
-42 4 -14 3 -31 -1 -38 -19 -31 -5 -87 22 -87 13 0 15 53 15 380 0 331 -2 380
-15 380 -18 0 -96 -74 -99 -94 -1 -8 -9 -23 -18 -33 -22 -26 -31 -72 -17 -89
9 -11 4 -28 -22 -79 l-34 -65 -145 0 c-80 0 -224 -2 -320 -4 -149 -4 -166 -3
-112 6 60 10 63 12 58 35 -5 16 -2 22 6 21 9 -2 13 13 14 52 1 30 5 70 9 88 7
33 -2 41 -23 20 -9 -9 -12 -8 -12 8 0 28 15 46 36 44 32 -4 44 -1 44 11 0 8
-5 8 -15 -1 -13 -11 -15 -9 -13 12 2 20 7 24 23 21 19 -4 19 -4 2 10 -14 12
-16 20 -9 34 8 14 32 180 32 218 0 3 4 5 10 5 5 0 8 -6 6 -12 -3 -7 -7 -42
-10 -78 l-6 -66 35 -13 c41 -14 42 -18 14 -68 -18 -31 -19 -41 -9 -57 9 -15
10 -21 1 -24 -15 -5 -14 -27 2 -52 9 -16 9 -22 0 -28 -18 -11 12 -53 32 -45
12 4 15 -2 13 -23 -3 -51 2 -94 11 -94 5 0 15 21 22 46 8 26 20 49 27 51 7 3
10 13 7 24 -10 31 21 23 45 -11 17 -23 29 -30 56 -30 19 0 34 4 34 8 0 4 15
14 34 20 40 15 96 68 96 92 0 9 3 19 6 23 4 3 8 34 11 69 2 35 10 84 18 110 7
25 11 49 8 52 -3 3 -1 12 5 19 6 7 16 51 22 98 11 92 21 148 44 254 9 39 16
84 16 101 l0 31 -77 -3 c-88 -3 -126 3 -116 19 4 6 0 8 -10 4 -10 -3 -17 -2
-17 3 0 6 8 10 18 11 14 0 14 2 -3 9 -27 12 -14 14 156 26 l106 7 -13 -84 c-7
-46 -20 -130 -29 -186 -8 -57 -16 -108 -17 -115 -2 -9 12 -14 40 -16 l42 -3 0
273 0 274 -34 -4 c-34 -4 -34 -5 -41 -63 -4 -32 -10 -61 -14 -64 -4 -2 -4 23
1 57 4 34 6 63 4 65 -7 7 -423 -18 -453 -27 -17 -5 -21 -9 -10 -9 15 -1 18 -7
13 -28 -2 -16 -13 -81 -22 -145 -14 -91 -20 -115 -30 -107 -8 6 -44 8 -99 3
-86 -7 -87 -7 -100 -38 -8 -18 -34 -157 -60 -310 -50 -302 -50 -305 9 -307
l31 -1 -30 -10 c-16 -5 -140 -13 -275 -18 -503 -17 -487 -18 -462 13 7 8 14
29 16 48 3 19 5 34 6 34 1 0 4 18 5 40 17 192 40 348 55 370 4 6 8 25 8 42 1
34 18 96 33 123 5 8 15 29 23 46 7 16 32 46 55 66 42 36 180 94 190 80 10 -13
97 -31 121 -25 16 4 21 3 16 -5 -5 -8 7 -14 33 -18 22 -3 42 -13 45 -20 3 -8
12 -11 22 -7 15 5 15 7 0 15 -9 5 -16 13 -16 17 0 11 46 31 71 31 16 0 19 5
14 23 -4 14 -3 17 2 10 5 -7 8 -42 6 -77 -3 -64 6 -87 24 -63 9 11 16 39 41
169 l9 47 -161 -5 c-89 -2 -226 -6 -305 -9 -166 -6 -195 -2 -181 25 6 10 10
29 10 42 0 13 11 46 25 73 23 48 24 49 20 15 -8 -61 -13 -84 -20 -101 -10 -26
6 -29 91 -20 44 6 126 12 184 16 58 3 132 8 165 10 132 11 380 24 550 31 99 4
194 8 210 10 17 1 69 3 118 3 l87 1 0 470 c0 339 -3 470 -11 470 -7 0 -9 8 -5
20 3 11 9 29 12 40 6 20 2 20 -765 20 l-771 0 -4 -22z m535 -297 c-15 -10 42
-21 114 -21 85 -1 24 -23 -165 -60 -117 -23 -126 -24 -134 -5 -7 19 31 58 49
51 8 -3 17 -1 20 4 4 6 17 10 31 10 14 0 22 4 19 10 -3 5 7 12 22 16 15 3 33
7 38 9 16 4 21 -5 6 -14z m-714 -1182 c16 -16 -6 -79 -37 -106 l-25 -23 23 0
c20 0 22 -3 16 -22 -5 -13 -7 -34 -7 -48 2 -24 -1 -25 -43 -25 -24 0 -44 3
-44 7 0 4 -7 5 -15 2 -8 -4 -15 -1 -15 6 0 8 9 10 24 6 14 -3 28 -2 31 4 3 5
-2 10 -12 10 -15 0 -16 2 -3 10 9 6 10 10 3 10 -6 0 -15 -4 -18 -10 -9 -15
-25 -12 -25 5 0 8 5 15 11 15 7 0 10 12 7 30 -5 31 8 40 75 56 20 5 27 12 27
31 0 13 4 22 9 18 5 -3 12 -1 16 5 3 5 -1 10 -9 10 -9 0 -16 5 -16 10 0 13 13
13 27 -1z"/>
<path d="M13999 11196 c-2 -2 -101 -7 -219 -10 -118 -4 -305 -12 -415 -18
-198 -11 -228 -12 -397 -16 -56 -1 -88 -6 -88 -13 0 -8 41 -9 138 -5 75 3 288
8 472 11 346 5 632 15 639 21 2 2 1 10 -2 19 -5 11 -21 15 -65 15 -32 0 -61
-2 -63 -4z"/>
<path d="M11225 10835 c-4 -24 -6 -81 -3 -125 l3 -81 -40 -10 c-22 -6 -71 -19
-109 -30 -38 -12 -84 -21 -102 -22 -40 -2 -40 -2 -49 -184 l-7 -123 160 0 161
0 9 53 c6 28 16 79 22 112 47 246 53 322 26 337 -22 12 -46 61 -46 93 0 42
-18 28 -25 -20z"/>
<path d="M13883 10858 c-2 -5 -50 -8 -106 -9 -71 0 -95 -3 -79 -9 12 -5 29 -7
37 -4 8 4 15 1 15 -5 0 -8 -40 -11 -127 -10 -83 1 -116 4 -93 9 27 6 16 8 -47
9 -51 1 -83 -3 -85 -10 -2 -7 -68 -15 -178 -21 -137 -8 -183 -14 -212 -29 -46
-24 -54 -24 -61 0 -4 17 -14 18 -128 15 -159 -4 -321 -13 -324 -16 -2 -2 -5
-25 -6 -53 l-4 -50 205 0 c250 0 942 14 990 20 83 10 392 27 397 21 3 -3 -6
-10 -21 -15 -25 -10 -39 -27 -13 -18 6 2 19 1 28 -4 13 -7 18 -2 23 23 3 17 6
50 6 75 0 30 5 45 15 49 8 4 15 13 15 21 0 11 -9 14 -35 11 -19 -2 -35 -2 -35
2 0 8 -171 6 -177 -2z"/>
<path d="M12411 10823 c-14 -12 -27 -43 -38 -90 -17 -72 -17 -72 -52 -75 -20
-2 -35 -7 -33 -13 2 -5 16 -9 33 -7 l29 2 0 -75 c0 -69 9 -91 25 -65 4 6 11 8
16 5 12 -8 9 -24 24 159 9 113 16 161 26 167 8 5 9 9 3 9 -7 0 -21 -8 -33 -17z"/>
<path d="M14050 10630 c-31 -6 -25 -15 7 -11 6 1 10 -6 8 -16 -2 -10 -4 -21
-4 -25 -1 -5 -4 -7 -8 -5 -8 2 -13 -6 -13 -24 0 -5 4 -8 9 -4 5 3 12 1 15 -4
4 -5 2 -12 -4 -16 -5 -3 -10 -15 -10 -25 0 -14 -5 -18 -17 -13 -11 4 -14 3 -9
-5 4 -7 15 -12 24 -12 16 -1 16 -2 0 -14 -20 -15 -24 -36 -7 -36 6 0 9 -10 7
-22 -2 -19 -10 -23 -38 -24 -47 0 -91 22 -83 43 5 12 3 14 -6 8 -8 -4 -16 -2
-21 5 -4 7 -16 9 -29 5 -25 -8 -19 -25 9 -25 27 0 34 -18 16 -44 -16 -25 -12
-36 12 -36 10 0 12 7 8 26 -6 21 -4 25 11 22 35 -7 18 -68 -19 -68 -10 0 -17
-4 -13 -9 3 -5 1 -12 -4 -15 -4 -3 -25 10 -45 30 -34 33 -40 35 -73 27 -44
-10 -54 -30 -19 -39 14 -3 26 -10 26 -15 0 -5 10 -14 23 -19 22 -9 22 -9 -3
-9 -24 -1 -24 -2 8 -21 21 -13 42 -18 56 -14 24 6 50 -16 28 -24 -7 -2 -12 -8
-12 -13 0 -16 54 -9 80 11 27 21 50 26 50 11 0 -5 -6 -12 -12 -14 -10 -4 -10
-6 0 -6 6 -1 12 -7 12 -15 0 -8 7 -16 15 -20 11 -4 15 1 15 19 0 13 -4 27 -10
30 -16 10 -12 25 5 19 9 -4 16 2 19 18 12 60 41 399 35 397 -2 -1 -20 -5 -39
-9z"/>
<path d="M13060 10531 c-32 -9 -39 -40 -11 -48 33 -9 14 -23 -32 -24 -39 0
-40 -1 -17 -12 l25 -11 -30 -4 c-31 -4 -70 -41 -86 -80 -7 -18 -14 -22 -30
-17 -15 5 -22 2 -26 -14 -3 -12 -12 -21 -19 -21 -19 0 -18 -17 2 -24 9 -4 24
0 33 8 9 8 28 18 44 21 15 4 27 11 27 16 0 5 7 9 16 9 8 0 12 5 9 10 -9 15 13
40 35 40 9 0 42 -8 73 -19 32 -10 57 -14 57 -10 0 5 -4 9 -10 9 -5 0 -7 7 -4
15 4 9 0 15 -10 15 -9 0 -16 4 -16 9 0 14 22 26 42 23 12 -2 17 6 20 30 3 33
4 33 58 36 35 2 58 9 63 18 10 18 31 18 46 0 6 -7 25 -16 41 -20 24 -4 30 -11
30 -31 0 -15 4 -24 10 -20 5 3 7 12 4 20 -4 8 3 15 18 17 15 2 23 9 22 21 -1
9 4 17 12 17 8 0 14 4 14 9 0 11 -78 26 -87 17 -4 -3 -1 -6 6 -6 7 0 19 -7 28
-15 14 -14 13 -15 -13 -9 -16 4 -39 11 -52 15 -13 5 -46 9 -73 9 -39 0 -49 -3
-49 -16 0 -14 -8 -16 -52 -9 -29 4 -63 6 -75 6 -25 -1 -31 14 -10 22 18 8 -4
6 -33 -2z"/>
<path d="M12384 10476 c-3 -9 -16 -16 -28 -16 -11 0 -30 -7 -40 -15 -18 -13
-16 -15 21 -21 34 -5 41 -10 41 -30 0 -18 -4 -22 -17 -15 -9 5 -36 12 -60 16
-34 6 -42 4 -39 -6 3 -8 15 -16 29 -18 13 -1 27 -8 31 -15 13 -19 9 -86 -4
-86 -9 0 -9 -3 -1 -11 7 -7 8 -20 3 -34 -5 -13 -6 -32 -3 -43 2 -11 0 -23 -6
-26 -8 -5 -8 -13 0 -28 6 -11 8 -31 4 -45 -3 -13 -6 -54 -6 -90 -1 -42 -4 -61
-9 -52 -7 10 -12 11 -21 2 -8 -8 -6 -13 10 -18 25 -8 30 -55 6 -55 -8 0 -15
-7 -15 -15 0 -8 6 -15 13 -15 8 0 14 -14 15 -35 2 -32 1 -34 -20 -26 -17 6
-28 4 -41 -9 -21 -21 -8 -29 36 -24 24 2 27 -1 28 -29 2 -53 -4 -87 -25 -146
-9 -24 -16 -61 -16 -82 0 -21 -5 -41 -11 -45 -19 -11 -6 -124 16 -140 10 -7
23 -10 28 -7 6 4 34 8 61 9 28 1 51 3 51 4 0 9 244 9 323 -1 62 -7 107 -8 110
-3 4 5 48 9 97 9 50 1 105 6 124 13 24 8 38 9 47 1 7 -5 18 -9 26 -8 43 5 68
-2 68 -21 0 -13 5 -18 14 -14 8 3 12 12 9 20 -3 9 2 14 13 15 11 0 27 2 36 4
10 2 22 -3 26 -12 7 -12 14 -9 40 15 17 16 39 32 47 36 8 3 15 19 16 36 1 16
1 41 2 55 1 27 -29 66 -46 59 -12 -4 -376 -16 -447 -14 -19 0 -156 1 -305 3
l-270 2 -1 35 c0 19 4 44 9 55 10 19 13 37 21 135 2 25 8 45 13 45 4 0 11 -20
14 -45 5 -36 6 -39 7 -13 3 43 14 47 72 28 53 -18 95 -12 86 11 -3 8 1 14 9
14 8 0 15 4 15 9 0 11 -48 24 -60 16 -6 -4 -10 -1 -10 4 0 6 10 11 23 11 18 1
19 2 6 10 -20 12 -59 2 -59 -16 0 -10 -6 -11 -25 -4 -26 10 -47 -6 -25 -20 8
-5 5 -9 -9 -13 -22 -5 -41 16 -41 47 0 8 -6 17 -12 19 -10 4 -10 6 0 6 8 1 12
17 10 49 l-1 47 -8 -45 c-4 -27 -6 13 -3 99 2 78 8 150 13 160 14 26 31 185
20 192 -5 3 -9 36 -8 73 2 67 -5 93 -17 62z"/>
<path d="M14024 10122 c-6 -4 -10 -20 -10 -37 1 -19 -4 -29 -11 -27 -7 1 -13
-3 -13 -10 0 -6 -8 -20 -17 -31 -17 -18 -17 -19 2 -33 19 -14 19 -15 -3 -20
-12 -4 -22 -12 -22 -18 0 -7 -13 -22 -30 -34 -31 -24 -39 -47 -17 -55 9 -4 8
-8 -3 -18 -9 -8 -22 -22 -29 -31 -12 -16 -11 -18 8 -18 12 0 20 4 16 9 -9 15
33 23 52 11 15 -9 13 -10 -12 -7 -27 5 -28 4 -11 -9 14 -10 24 -11 39 -3 15 8
22 8 28 -2 10 -17 16 -2 23 61 30 275 30 285 10 272z"/>
<path d="M13459 10053 c-1 -5 -1 -16 0 -25 1 -10 -7 -18 -21 -20 -17 -2 -22
-9 -21 -25 2 -15 -6 -29 -23 -39 -17 -12 -24 -24 -21 -36 3 -10 1 -16 -4 -12
-5 3 -9 1 -9 -5 0 -5 5 -13 11 -16 6 -4 8 -13 5 -21 -4 -11 1 -13 19 -8 14 3
25 2 25 -4 0 -5 9 -12 20 -15 18 -5 24 3 22 24 -1 4 8 15 18 24 24 22 25 29 4
49 -8 9 -11 16 -5 16 18 0 12 27 -6 35 -16 6 -16 8 -3 18 19 15 21 67 3 67 -7
0 -14 -3 -14 -7z"/>
<path d="M10651 9833 c-1 -102 1 -118 17 -129 14 -9 19 -27 20 -70 2 -67 -3
-77 -29 -64 -16 9 -19 7 -19 -15 0 -18 5 -25 20 -25 21 0 27 -9 33 -48 6 -40
20 -44 144 -43 140 2 905 28 1080 37 l122 6 -1 72 c0 86 11 169 24 177 5 4 8
17 6 30 l-4 24 -12 -27 -12 -28 -263 0 c-351 0 -717 -11 -711 -22 3 -4 31 -9
62 -9 l57 -2 -70 -7 c-38 -4 -85 -11 -102 -15 -32 -7 -46 6 -23 20 23 14 6 23
-57 30 -86 9 -205 33 -216 44 -5 5 -10 28 -11 52 -3 46 -33 129 -46 129 -4 0
-8 -52 -9 -117z"/>
<path d="M13006 9654 c-3 -9 -12 -14 -20 -11 -7 3 -18 1 -23 -4 -15 -15 -129
-22 -155 -9 -21 10 -21 10 -6 -3 28 -22 10 -27 -34 -10 -21 8 -41 13 -44 10
-3 -3 12 -11 33 -18 32 -10 35 -13 18 -20 -11 -4 72 -6 184 -3 113 2 207 6
209 9 2 2 -9 15 -24 29 -29 25 -64 34 -64 17 0 -5 8 -11 18 -13 14 -3 13 -5
-6 -10 -12 -3 -20 -2 -16 3 3 5 -5 9 -16 9 -13 0 -24 8 -27 20 -6 24 -19 26
-27 4z"/>
<path d="M13735 9650 c-27 -13 -42 -15 -46 -8 -7 10 -33 8 -74 -7 -17 -6 -18
-5 -5 5 12 10 11 11 -10 6 -14 -3 -29 -6 -35 -6 -5 0 1 -7 15 -16 22 -13 22
-14 3 -9 -12 3 -24 1 -28 -5 -4 -7 46 -10 162 -10 176 1 233 6 233 22 0 5 -16
6 -36 2 -27 -5 -35 -4 -30 5 4 6 25 11 46 11 31 0 38 -3 34 -15 -4 -9 0 -15 9
-15 8 0 17 11 19 25 6 27 -6 43 -17 25 -4 -6 -11 -7 -17 -4 -21 13 -88 11 -88
-3 0 -18 -25 -17 -40 2 -16 19 -45 18 -95 -5z"/>
<path d="M15868 9264 c-4 -3 -102 -6 -219 -7 l-213 -2 -7 -27 c-4 -17 -3 -29
4 -32 8 -3 5 -11 -8 -23 -31 -28 -56 -72 -53 -92 2 -10 -3 -25 -11 -34 -18
-22 3 -77 29 -77 13 0 17 -6 13 -19 -3 -10 0 -28 6 -40 14 -25 61 -27 176 -10
39 6 106 12 151 14 44 1 94 6 111 9 21 5 42 2 64 -10 18 -9 45 -20 61 -25 l28
-8 0 192 c-1 162 -3 189 -14 175 -11 -15 -18 -16 -47 -7 -19 7 -38 16 -43 20
-12 10 -20 11 -28 3z"/>
<path d="M7715 9119 c-27 -5 -126 -11 -220 -14 -277 -9 -527 -17 -575 -19 -25
-1 -50 2 -57 7 -7 5 -19 -3 -33 -23 -20 -27 -21 -36 -12 -73 17 -66 26 -174
15 -180 -17 -11 -2 -61 23 -80 14 -10 39 -19 57 -19 18 -1 35 -5 38 -10 3 -5
13 -2 22 7 13 13 37 16 114 15 116 -1 119 -1 158 4 17 2 36 -1 42 -6 7 -6 21
-7 30 -2 26 11 46 12 303 17 129 3 247 8 263 12 17 5 33 3 43 -6 13 -11 14 -9
9 14 -4 15 -3 33 2 40 10 12 -1 286 -12 315 -5 14 -128 15 -210 1z"/>
<path d="M15175 8837 c-47 -15 -66 -17 -88 -9 -19 7 -47 8 -90 1 -34 -6 -82
-8 -106 -5 -36 5 -42 3 -37 -9 3 -8 1 -15 -5 -15 -5 0 -14 -11 -20 -24 -13
-29 -54 -49 -81 -40 -20 6 -51 -13 -43 -26 3 -5 -14 -11 -37 -14 -53 -6 -273
-19 -312 -17 -16 0 -35 -4 -41 -9 -6 -5 -16 -5 -25 0 -8 6 -29 10 -47 10 -17
0 -34 4 -37 9 -3 4 32 7 77 6 83 -2 169 11 151 23 -6 4 -10 17 -10 30 0 17 5
22 18 19 10 -3 18 -2 18 3 0 4 -24 10 -52 13 -42 4 -61 1 -91 -16 -29 -16 -40
-18 -49 -9 -15 15 -31 16 -22 0 5 -7 3 -8 -5 -4 -7 5 -29 5 -49 1 l-37 -7 25
-15 c14 -8 17 -12 7 -9 -10 3 -23 6 -28 6 -5 0 -9 7 -9 16 0 13 -8 14 -47 8
-27 -3 -54 -12 -61 -19 -11 -10 -3 -13 39 -18 65 -8 82 -22 37 -31 -30 -6 -31
-8 -14 -18 11 -6 41 -11 67 -12 26 -1 45 -4 42 -8 -7 -13 12 -9 25 4 9 9 15
10 20 2 7 -11 66 -34 88 -34 8 0 13 6 11 13 -1 6 5 12 13 12 8 0 14 -5 13 -12
-2 -7 15 -17 37 -23 36 -10 56 -30 30 -30 -25 0 -6 -20 28 -29 46 -14 52 -14
52 0 0 5 -4 8 -9 4 -6 -3 -15 3 -20 14 -16 29 -13 38 4 15 14 -18 14 -18 15
10 0 24 2 27 15 16 8 -7 17 -27 21 -46 5 -29 10 -34 33 -34 18 0 22 3 12 9
-11 7 -11 9 0 14 10 4 10 6 2 6 -7 1 -13 14 -13 29 0 26 3 29 34 28 25 -1 41
-9 56 -29 19 -23 19 -27 5 -27 -11 0 -15 -5 -12 -14 3 -8 1 -16 -5 -18 -11 -4
162 -40 442 -93 102 -20 217 -42 255 -50 39 -7 142 -26 230 -40 209 -34 318
-63 311 -81 -4 -11 6 -14 44 -14 l50 0 0 290 0 290 -32 -7 c-18 -3 -41 -13
-50 -21 -20 -16 -24 -42 -8 -42 6 0 10 -7 10 -15 0 -12 -15 -15 -75 -15 -72 0
-86 5 -66 26 5 5 7 21 4 36 -6 33 -45 45 -77 25 -18 -12 -28 -12 -71 0 -55 15
-96 17 -224 9 -50 -3 -93 0 -104 6 -45 24 -72 25 -132 5z"/>
<path d="M13798 8782 c-28 -29 -47 -42 -62 -42 -7 0 -17 -7 -20 -16 -5 -13
-15 -15 -42 -11 -24 4 -44 1 -60 -10 -27 -17 -33 -3 -9 21 8 8 15 17 15 21 0
10 -44 -6 -52 -19 -4 -7 -9 -4 -14 7 -8 21 -40 22 -48 1 -3 -8 -2 -12 3 -9 5
3 13 1 16 -5 4 -6 3 -10 -2 -9 -28 5 -44 -3 -41 -18 2 -12 14 -19 35 -20 24
-1 30 2 26 13 -3 9 2 14 16 14 12 0 21 -5 21 -11 0 -7 11 -8 33 -3 81 18 92
13 54 -22 -27 -25 -73 -38 -82 -23 -4 6 -19 7 -38 3 -18 -4 -54 -8 -82 -9 -72
-4 -70 -4 -59 -15 6 -6 56 -11 112 -12 l102 -2 -3 -29 -2 -30 135 -29 c119
-25 362 -77 645 -138 50 -11 232 -49 405 -85 355 -75 600 -129 676 -151 28 -8
116 -28 195 -44 79 -15 162 -33 184 -40 22 -6 56 -13 75 -17 19 -3 37 -9 38
-14 2 -5 10 -9 18 -9 11 0 14 20 14 98 l0 98 -77 17 c-43 10 -88 17 -101 17
-13 0 -55 6 -95 14 -40 8 -124 24 -187 35 -63 12 -137 26 -165 31 -27 6 -68
12 -90 14 -22 3 -76 12 -120 21 -122 24 -241 45 -340 60 -49 8 -128 23 -175
33 -47 10 -116 24 -155 31 -38 7 -135 26 -215 41 -80 16 -185 36 -235 44 -83
15 -152 30 -265 58 -41 11 -59 23 -60 40 0 3 10 4 22 0 14 -3 19 -1 14 6 -4 7
-2 10 7 6 8 -3 20 2 27 11 12 14 11 18 -1 26 -10 6 -4 9 21 10 29 0 31 2 15 9
-11 5 -14 9 -7 9 7 1 11 5 8 10 -7 10 50 9 60 -2 4 -4 -4 -11 -17 -16 -27 -10
-19 -15 41 -25 25 -4 31 -3 20 4 -8 5 -10 10 -4 10 5 0 15 -5 21 -11 6 -6 21
-9 34 -7 l24 3 -23 23 c-13 13 -30 21 -38 18 -18 -7 -46 3 -39 15 3 5 -6 11
-20 14 -14 3 -35 7 -48 10 -14 3 -30 -2 -39 -13z"/>
<path d="M10980 8765 c-11 -13 -11 -21 -2 -36 11 -16 9 -19 -8 -19 -11 0 -23
7 -27 16 -5 15 -7 15 -15 0 -6 -11 -4 -23 8 -39 10 -14 14 -16 11 -5 -4 11 -2
15 7 12 8 -3 11 -16 8 -34 l-4 -30 263 5 c145 3 278 8 294 10 17 2 95 6 175 9
107 3 139 1 123 -6 -22 -11 -30 -33 -15 -41 4 -2 41 0 82 4 41 5 111 12 155
14 124 9 167 13 173 20 4 3 -19 4 -51 2 -54 -4 -79 9 -38 20 23 6 33 37 21 68
-5 13 -7 25 -4 28 3 2 -5 7 -16 10 -13 3 -23 0 -27 -9 -3 -8 -10 -11 -17 -6
-13 9 -226 11 -226 2 0 -3 -32 -2 -71 3 -67 10 -98 6 -176 -18 -18 -6 -23 -3
-23 9 0 12 -7 16 -27 14 -16 -2 -32 -7 -36 -13 -6 -6 -10 -6 -14 3 -6 15 -63
16 -63 1 0 -8 -4 -8 -12 -1 -14 11 -68 17 -132 14 -31 -2 -37 -5 -32 -19 6
-15 4 -14 -14 2 -29 27 -250 35 -270 10z"/>
<path d="M12385 8770 c-14 -6 -15 -9 -5 -10 9 -1 6 -5 -8 -10 -20 -8 -21 -12
-10 -29 7 -11 19 -22 28 -25 8 -2 3 -4 -12 -5 -22 -1 -26 2 -21 16 5 13 2 15
-11 10 -11 -5 -27 3 -48 26 -19 19 -29 24 -25 14 4 -10 7 -21 7 -23 0 -2 7 -4
16 -4 8 0 12 -5 9 -10 -4 -6 -11 -7 -17 -4 -20 12 -58 13 -58 1 0 -16 55 -77
69 -77 6 0 10 5 9 12 -2 7 2 13 7 13 77 8 208 16 325 20 80 3 158 8 174 12
l30 5 -30 13 c-16 7 -33 10 -37 8 -4 -3 -14 1 -22 7 -10 9 -15 9 -15 1 0 -13
-46 6 -75 32 -17 16 -20 16 -35 1 -14 -14 -13 -17 9 -35 27 -22 23 -24 -14 -7
-14 6 -24 17 -21 24 7 19 -60 30 -79 14 -8 -7 -15 -20 -16 -29 0 -10 -2 -11
-6 -3 -2 6 -15 12 -28 12 -15 0 -26 7 -30 20 -7 21 -27 24 -60 10z"/>
<path d="M8823 546 c-63 -27 -80 -40 -86 -72 -5 -28 11 -44 24 -23 6 10 9 11
9 2 0 -7 8 -13 18 -12 10 0 12 3 5 6 -21 8 -15 29 7 29 12 0 19 -5 16 -12 -18
-48 142 13 166 62 15 33 48 42 70 20 8 -8 20 -11 27 -6 23 13 -20 23 -115 25
-73 2 -100 -1 -141 -19z"/>
</g>
</svg>
