<?xml version="1.0" standalone="no"?>
<!DOCTYPE svg PUBLIC "-//W3C//DTD SVG 20010904//EN"
 "http://www.w3.org/TR/2001/REC-SVG-20010904/DTD/svg10.dtd">
<svg version="1.0" xmlns="http://www.w3.org/2000/svg"
 width="719.000000pt" height="1280.000000pt" viewBox="0 0 719.000000 1280.000000"
 preserveAspectRatio="xMidYMid meet">
<metadata>
Created by potrace 1.16, written by Peter Selinger 2001-2019
</metadata>
<g transform="translate(0.000000,1280.000000) scale(0.100000,-0.100000)"
fill="#000000" stroke="none">
<path d="M0 12485 l0 -315 488 0 c268 0 504 -3 525 -7 l39 -6 -6 -157 c-3 -90
-10 -168 -17 -184 -7 -14 -28 -36 -46 -47 -19 -12 -41 -32 -50 -45 -17 -26
-45 -31 -60 -11 -6 6 -13 32 -17 57 -10 65 -18 70 -106 70 -86 0 -94 -5 -105
-62 -4 -22 -21 -52 -40 -73 -19 -19 -37 -45 -41 -57 -4 -13 -19 -39 -34 -58
-16 -19 -31 -46 -35 -58 -7 -24 -72 -61 -107 -62 -34 0 -18 -26 32 -51 50 -24
66 -48 33 -48 -37 0 -125 -21 -139 -32 -9 -7 -36 -9 -81 -5 -38 4 -74 2 -82
-3 -12 -8 -15 -42 -15 -173 -1 -155 -2 -164 -25 -195 -22 -30 -23 -32 -7 -64
33 -67 13 -117 -43 -104 -35 8 -43 -3 -48 -64 -3 -25 -7 -634 -9 -1352 -4
-1164 -3 -1307 11 -1319 21 -18 22 -148 0 -156 -13 -5 -15 -47 -15 -295 0
-186 4 -289 10 -289 13 0 13 -37 0 -45 -14 -8 -14 -4371 0 -4380 17 -11 60 26
60 51 0 17 6 24 20 24 11 0 20 -6 20 -12 0 -7 15 -20 33 -28 31 -15 52 -60 27
-60 -6 0 -8 -4 -5 -10 9 -15 35 -12 35 4 0 16 27 29 41 20 6 -3 9 -13 7 -22
-4 -22 36 -64 59 -60 10 2 24 12 31 23 12 19 13 18 9 -8 -2 -15 0 -27 4 -27
19 0 8 -30 -17 -47 -21 -13 -30 -14 -45 -5 -10 7 -33 12 -49 12 -18 0 -29 4
-25 10 3 6 18 10 33 10 l26 0 -22 22 c-20 20 -25 21 -44 9 -19 -12 -23 -11
-35 5 -11 15 -17 16 -33 6 -11 -6 -30 -12 -42 -13 -13 0 -17 -3 -10 -6 6 -2
10 -8 7 -13 -6 -9 -55 -1 -55 10 0 4 -9 10 -20 13 -19 5 -20 0 -20 -106 0 -95
2 -108 13 -93 13 18 15 18 51 1 32 -15 39 -16 47 -4 7 11 12 12 29 2 11 -7 34
-13 50 -13 20 0 29 -4 25 -11 -4 -6 -30 -9 -59 -8 -29 1 -58 -1 -64 -5 -7 -4
-17 -4 -22 -1 -5 3 -10 1 -10 -5 0 -6 6 -13 14 -16 19 -7 26 -40 13 -53 -18
-18 -37 -12 -37 10 0 20 -25 48 -43 49 -4 0 -7 -100 -6 -223 2 -214 3 -224 22
-233 21 -9 30 -43 20 -77 -3 -13 -10 -16 -24 -12 -19 6 -20 2 -18 -94 1 -56 7
-101 12 -101 5 0 21 -8 35 -19 29 -19 89 -24 109 -9 7 6 20 7 29 4 14 -5 14
-9 3 -22 -10 -13 -10 -17 2 -25 8 -5 17 -9 22 -9 4 0 7 -4 7 -10 0 -5 -11 -10
-25 -10 -18 0 -25 5 -25 20 0 19 -1 19 -20 2 -18 -15 -19 -18 -5 -28 20 -15
10 -22 -20 -16 -14 2 -25 11 -25 18 0 13 -4 16 -32 18 -6 1 -17 -17 -24 -39
-8 -25 -12 -31 -11 -15 1 16 -3 25 -13 25 -12 0 -16 -19 -18 -97 -3 -97 -3
-98 25 -122 15 -13 25 -28 20 -32 -4 -4 -13 -2 -19 4 -22 22 -28 12 -28 -48 0
-48 3 -60 16 -60 8 0 12 5 9 10 -3 6 1 13 10 16 12 5 13 9 5 14 -9 6 -9 13 1
29 14 22 29 28 29 11 0 -5 8 -6 17 -3 17 7 17 6 1 -11 -27 -26 -21 -39 8 -19
25 16 27 16 40 -2 14 -18 11 -35 -7 -35 -5 0 -9 8 -9 17 0 14 -3 13 -16 -6
-11 -16 -23 -21 -37 -17 -26 6 -76 -42 -56 -55 10 -6 10 -11 1 -22 -8 -9 -11
-55 -10 -139 2 -105 5 -123 16 -112 7 8 10 18 7 24 -3 5 1 10 9 10 9 0 16 -5
16 -11 0 -5 4 -7 10 -4 12 8 13 25 1 44 -8 12 -12 13 -25 1 -21 -16 -33 -5
-16 15 14 17 40 20 40 5 0 -5 5 -10 11 -10 6 0 9 6 6 13 -3 8 7 12 34 11 27
-2 43 3 52 15 18 26 47 23 47 -6 0 -19 -5 -23 -30 -23 -20 0 -30 -5 -30 -15 0
-8 -5 -15 -11 -15 -5 0 -7 -5 -3 -11 4 -8 9 -7 15 2 5 8 9 10 9 5 0 -6 6 -2
12 7 12 15 38 24 77 26 7 1 11 7 7 16 -7 18 5 20 22 3 10 -10 17 -10 32 0 23
14 30 15 30 3 0 -5 -9 -11 -20 -14 -11 -3 -20 -12 -20 -21 0 -18 15 -21 25 -6
4 7 11 8 18 2 7 -6 21 -12 32 -14 18 -3 16 -6 -10 -20 -17 -9 -38 -16 -45 -15
-8 1 -17 -2 -20 -8 -3 -6 13 -11 37 -13 36 -3 44 0 55 22 7 14 18 25 23 25 6
1 10 6 9 11 -1 6 -2 19 -2 30 -1 13 -9 20 -22 20 -17 0 -18 3 -8 25 6 14 18
25 25 25 8 0 12 4 9 9 -4 5 3 7 14 4 15 -4 19 -2 15 10 -4 9 -14 13 -26 10
-13 -4 -19 0 -19 10 0 20 22 35 28 19 2 -7 17 -19 33 -27 38 -20 37 -38 -4
-69 -17 -14 -26 -26 -19 -26 6 0 12 -9 12 -20 0 -27 18 -25 22 3 3 21 19 28
26 9 5 -16 -46 -62 -62 -56 -11 4 -16 1 -16 -10 0 -9 4 -15 9 -14 5 2 18 -8
29 -20 15 -17 27 -22 41 -17 12 3 21 3 21 -2 -1 -11 -40 -60 -40 -49 0 5 -7 3
-15 -4 -12 -10 -15 -9 -15 8 0 31 -11 52 -26 52 -16 0 -19 -16 -4 -25 11 -7
-19 -45 -37 -45 -7 0 -13 8 -13 18 -1 15 -2 15 -13 1 -7 -9 -17 -14 -24 -12
-7 3 -20 0 -30 -5 -13 -8 -21 -4 -36 14 -22 28 -16 57 10 52 13 -3 17 -12 15
-32 -3 -28 -3 -29 19 -14 31 20 35 38 10 38 -12 0 -21 4 -21 10 0 5 -10 14
-21 21 -18 9 -24 8 -31 -5 -5 -9 -18 -16 -28 -16 -23 0 -26 -10 -8 -28 17 -17
3 -25 -21 -12 -17 9 -21 8 -21 -5 0 -18 -16 -20 -23 -2 -3 7 -6 4 -6 -6 -1
-17 -3 -17 -23 -3 -16 11 -25 13 -35 4 -10 -8 -13 -7 -13 6 0 9 7 16 15 16 8
0 15 5 15 10 0 6 -9 10 -19 10 -11 0 -22 4 -26 10 -8 13 -35 1 -35 -16 0 -8
-6 -11 -15 -8 -13 5 -15 -10 -15 -105 0 -84 3 -111 13 -109 6 2 12 -2 12 -7 0
-5 -6 -9 -12 -7 -9 2 -13 -9 -13 -33 0 -19 5 -35 10 -35 6 0 10 -7 10 -15 0
-8 -4 -15 -10 -15 -6 0 -10 -113 -10 -320 l0 -320 3595 0 3595 0 0 401 c0 352
-2 400 -15 395 -9 -3 -15 0 -15 9 0 8 7 15 15 15 8 0 15 7 15 16 0 10 -5 12
-12 7 -20 -12 -48 -14 -48 -3 0 5 12 16 28 24 15 8 24 15 20 16 -4 0 -2 14 4
31 9 27 8 33 -6 41 -16 9 -16 11 -1 35 19 28 15 42 -5 18 -7 -8 -17 -15 -23
-15 -6 0 -1 11 12 23 14 16 19 30 15 42 -5 12 -4 16 4 11 8 -5 11 9 10 48 -1
38 -6 57 -16 61 -8 3 -12 11 -9 18 3 7 -1 21 -9 32 -8 10 -14 23 -14 28 0 15
23 2 26 -15 1 -9 7 -24 13 -35 8 -13 11 29 9 169 -1 150 -4 185 -15 181 -7 -3
-13 -1 -13 5 0 5 7 12 15 16 12 4 15 26 15 104 0 95 -1 99 -25 112 -17 9 -22
17 -16 23 7 7 16 6 26 -3 13 -11 15 -9 15 10 0 16 -4 20 -15 16 -8 -3 -15 -1
-15 5 0 5 7 12 15 15 20 8 22 159 3 168 -10 5 -10 7 0 12 9 4 12 76 12 306 l0
300 -24 -4 c-15 -3 -27 0 -30 8 -3 8 -17 14 -32 14 -16 0 -24 5 -21 13 4 13
24 14 75 4 l32 -7 -1 68 c-1 37 -4 57 -6 45 -3 -15 -12 -23 -24 -23 -13 0 -19
-7 -19 -24 0 -32 -16 -42 -23 -15 -4 14 -11 20 -21 16 -8 -3 -18 -2 -21 3 -4
6 8 10 25 10 24 0 31 4 27 14 -4 10 7 23 29 37 l35 21 -2 84 c-1 77 -3 83 -20
74 -30 -17 -61 -12 -57 8 3 12 13 17 41 17 l37 0 -1 252 c-1 180 -4 254 -12
257 -9 5 -9 8 0 12 10 4 13 75 13 303 l0 298 -40 18 c-21 10 -47 15 -58 13
-10 -3 -27 1 -37 8 -10 8 -33 14 -51 14 -18 0 -35 4 -38 8 -6 9 29 71 41 73
43 8 66 3 71 -13 2 -10 9 -18 14 -18 6 0 7 11 4 24 -4 16 0 30 10 40 14 15 14
16 -1 16 -9 0 -13 5 -10 10 11 17 44 11 55 -10 6 -11 17 -20 25 -20 12 0 15
15 15 69 l0 69 -35 6 c-19 4 -35 11 -35 16 0 6 16 10 35 10 38 0 47 19 21 46
-8 7 -16 19 -18 25 -3 9 -9 9 -25 0 -23 -12 -53 -5 -53 12 0 18 -31 46 -45 41
-7 -3 -18 4 -25 15 -16 32 -57 24 -64 -12 -4 -21 -10 -27 -23 -23 -10 3 -31 2
-48 -3 -25 -8 -19 -16 7 -12 4 0 5 -6 2 -13 -4 -11 -12 -12 -27 -7 -16 7 -21
16 -19 36 4 37 -14 56 -43 45 -12 -5 -32 -6 -44 -3 -19 5 -19 7 -6 34 8 15 15
35 15 45 0 13 6 15 36 9 30 -5 40 -2 57 15 18 20 21 21 29 6 11 -20 25 -20 43
-2 12 12 11 16 -10 30 -28 19 -30 25 -13 49 17 22 58 12 58 -14 0 -20 8 -23
34 -13 21 8 20 31 -1 37 -12 3 -8 7 15 12 17 4 32 13 32 19 0 6 8 1 18 -10 9
-12 29 -29 43 -38 28 -17 38 -12 52 27 4 9 13 17 22 17 13 0 15 18 15 110 0
87 -3 110 -14 110 -23 0 -27 29 -6 50 26 26 26 80 1 102 -35 30 -63 40 -93 34
-36 -7 -98 17 -98 38 0 9 -12 18 -27 21 -16 4 -36 10 -45 16 -25 13 -28 12
-28 -11 0 -11 -6 -20 -12 -20 -7 0 -4 -7 7 -16 17 -13 18 -16 5 -24 -19 -12
-34 -12 -46 0 -15 15 -84 15 -128 0 -31 -10 -46 -10 -77 0 -29 10 -48 10 -83
1 -64 -16 -106 -14 -106 4 0 14 18 20 49 15 15 -2 62 20 72 33 4 5 32 10 62
12 31 2 61 6 67 10 18 11 11 35 -12 45 -15 5 15 7 82 3 58 -3 112 -4 120 -4
87 6 132 2 149 -13 15 -14 34 -17 90 -14 l71 3 0 82 0 82 -27 -2 c-25 -2 -28
1 -26 26 2 33 -17 32 -32 -1 -12 -28 -65 -32 -65 -4 0 9 7 25 14 35 21 27 9
53 -35 72 -25 12 -39 25 -39 37 0 15 8 18 49 18 31 0 53 -5 61 -15 18 -22 22
-20 65 37 26 33 35 53 27 56 -14 4 -16 32 -2 32 7 0 10 212 10 615 0 403 -3
615 -10 615 -13 0 -13 37 0 45 6 4 10 105 10 269 l0 263 -42 -1 c-24 0 -126 3
-228 7 -223 9 -623 24 -890 33 -107 3 -217 8 -245 9 -27 2 -94 4 -147 4 -94 1
-97 2 -117 29 -11 16 -23 41 -27 56 -6 24 -4 26 18 22 14 -2 137 -7 274 -10
137 -4 303 -9 369 -12 69 -3 140 -1 167 5 32 8 61 8 95 0 60 -13 250 -25 546
-34 l227 -8 0 137 0 136 -122 0 c-68 0 -175 2 -238 5 -118 5 -627 21 -1053 34
-193 5 -240 10 -252 22 -19 19 -11 43 19 57 25 11 617 1 1076 -18 135 -6 318
-10 408 -10 l162 0 0 43 c0 24 -6 49 -12 55 -10 10 -10 17 0 32 6 11 12 42 12
68 l0 49 -327 7 c-181 4 -364 9 -408 11 -44 3 -354 10 -690 16 -601 11 -610
12 -633 33 -13 11 -28 30 -34 40 -10 19 -4 19 303 12 173 -3 544 -11 824 -16
540 -10 777 -17 862 -26 87 -9 91 -6 85 80 -3 48 -1 76 7 80 19 12 14 66 -6
67 -10 0 -29 2 -43 4 -14 2 -126 6 -250 9 -400 9 -654 18 -705 23 -27 3 -243
7 -478 9 -276 2 -449 7 -485 15 -31 6 -88 11 -127 10 -38 -1 -85 3 -102 8 -20
6 -35 6 -38 0 -4 -5 -15 -5 -27 2 -35 19 -5 26 119 27 63 0 119 4 124 9 6 6
-11 25 -42 49 -28 21 -60 48 -72 58 -23 22 -130 34 -242 29 -41 -2 -55 0 -45
7 12 8 10 10 -10 11 -18 1 -20 3 -7 6 10 3 24 -1 32 -7 8 -6 18 -9 23 -6 10 6
66 7 147 2 45 -2 82 4 146 24 76 24 98 27 177 22 83 -4 91 -3 108 17 18 21 25
21 154 16 249 -9 511 -15 1088 -21 l572 -7 0 174 0 175 -37 36 c-21 20 -52 43
-69 51 -17 9 -47 34 -67 56 -36 40 -45 65 -29 75 9 6 157 -17 185 -29 16 -7
17 2 17 104 l0 112 -87 -2 c-59 -2 -106 3 -142 14 -69 21 -90 21 -113 0 -17
-15 -26 -16 -90 -5 -78 14 -122 36 -183 95 -22 20 -56 42 -76 48 -46 14 -81
71 -58 94 13 13 26 13 104 -2 101 -19 138 -20 210 -5 28 6 123 11 211 11 89 1
176 4 193 7 l31 7 0 636 -1 636 -29 33 c-17 18 -41 37 -55 42 -15 6 -25 17
-25 30 0 17 6 20 45 20 31 0 47 -5 54 -17 7 -13 10 217 11 730 l0 747 -3595 0
-3595 0 0 -315z m3573 -325 c3 -3 7 -212 8 -465 1 -253 5 -494 9 -535 5 -55 3
-80 -6 -94 -10 -15 -12 -46 -7 -126 5 -92 4 -108 -11 -123 -22 -21 -45 -22
-74 -1 -20 13 -22 24 -22 94 0 44 5 91 12 105 10 22 8 30 -10 54 -18 24 -20
34 -11 63 5 18 9 103 8 188 -2 97 2 171 10 198 19 66 -8 123 -52 115 -13 -3
-49 4 -81 15 -57 19 -60 19 -121 2 -34 -10 -78 -25 -96 -34 -32 -15 -73 -19
-178 -17 -24 1 -62 -4 -84 -11 -32 -10 -41 -10 -45 0 -8 25 -63 13 -105 -23
-22 -19 -45 -35 -49 -35 -20 0 -68 32 -68 45 0 20 -32 35 -58 28 -13 -3 -33 2
-47 11 -22 14 -25 22 -20 49 9 48 -22 71 -117 86 -75 12 -78 12 -117 -13 -52
-33 -103 -33 -160 -1 -24 14 -45 24 -46 23 -14 -18 -25 -53 -25 -82 0 -20 -5
-36 -10 -36 -16 0 -29 -43 -18 -57 6 -7 8 -23 4 -36 -3 -13 1 -32 9 -44 9 -12
17 -56 20 -106 6 -77 4 -87 -13 -96 -11 -6 -31 -7 -48 -2 -26 7 -29 12 -30 47
0 21 5 73 12 114 7 44 9 81 4 90 -5 9 -7 26 -4 38 9 30 -34 56 -70 42 -15 -5
-50 -10 -77 -10 -27 0 -65 -7 -84 -15 l-35 -14 -25 39 c-14 22 -25 48 -25 59
0 11 -4 23 -10 26 -5 3 -10 21 -10 38 -1 76 -105 93 -205 32 -33 -19 -71 -35
-86 -35 -27 0 -105 56 -123 89 -5 9 -25 30 -44 48 l-36 31 -2 99 c-2 121 2
141 29 146 32 6 2434 3 2440 -3z m1187 1 c24 -6 35 -22 31 -48 -4 -24 -3 -67
3 -218 3 -82 8 -233 11 -335 10 -327 20 -532 31 -606 4 -31 0 -52 -16 -84 -20
-39 -20 -43 -5 -60 17 -18 36 -115 28 -137 -15 -38 -76 -35 -86 4 -12 49 -6
111 14 131 18 20 18 24 5 49 -8 16 -24 37 -35 47 -16 15 -20 27 -16 47 4 15 1
37 -5 48 -21 41 -89 21 -215 -62 -47 -31 -50 -35 -47 -71 2 -21 -2 -44 -9 -52
-7 -8 -9 -30 -6 -52 6 -48 -14 -64 -64 -53 -51 12 -80 33 -86 64 -5 25 -10 28
-34 25 -22 -4 -29 0 -31 16 -4 30 -32 31 -63 2 -22 -20 -38 -26 -76 -26 -26 0
-51 5 -54 11 -4 6 -26 9 -49 8 -64 -5 -86 7 -86 44 0 30 31 95 52 108 16 10
-1 47 -25 55 -27 8 -37 22 -37 52 0 14 -6 22 -18 22 -10 0 -23 5 -30 12 -16
16 14 37 55 38 32 0 53 17 37 29 -16 11 -62 85 -69 111 -10 33 -22 47 -56 64
-26 13 -34 13 -64 0 -32 -13 -36 -13 -55 8 -11 13 -23 33 -26 45 -4 13 -4 143
0 291 3 147 6 313 6 369 l0 102 33 4 c53 6 1030 5 1057 -2z m2264 2 l69 -6
-34 -16 c-23 -11 -35 -26 -41 -48 -5 -18 -17 -37 -28 -43 -34 -18 -51 -74 -44
-149 5 -55 4 -69 -11 -81 -13 -11 -21 -11 -36 -2 -18 11 -19 9 -19 -27 0 -44
-23 -61 -57 -42 -25 14 -74 25 -97 22 -10 -2 -34 -18 -52 -36 -27 -27 -34 -43
-34 -72 0 -68 -20 -115 -65 -158 -24 -22 -47 -53 -51 -70 -4 -16 -21 -46 -39
-66 -18 -20 -34 -41 -36 -46 -2 -5 -17 -16 -33 -24 -32 -15 -36 -21 -63 -92
-11 -31 -28 -54 -45 -63 -70 -36 -69 -74 3 -108 29 -14 45 -28 47 -43 5 -31
-31 -63 -72 -63 -28 0 -40 -8 -69 -44 -23 -27 -34 -50 -31 -62 4 -17 -5 -21
-66 -36 -49 -11 -81 -13 -102 -7 -36 10 -68 36 -68 55 0 7 -9 18 -19 24 -37
19 -69 11 -112 -30 -23 -22 -45 -40 -48 -40 -13 0 -27 17 -43 52 -10 20 -30
44 -46 52 -26 14 -37 31 -56 89 -5 17 -84 57 -112 57 -8 0 -27 8 -41 18 -23
14 -50 17 -178 16 -82 -1 -175 -5 -205 -10 -49 -9 -79 -7 -157 11 -47 11 -51
42 -58 504 -4 237 -7 436 -8 443 0 7 1 41 1 75 2 59 3 62 30 66 46 7 2052 7
2126 0z m-6343 -1443 c11 -14 22 -38 26 -55 l6 -29 18 42 c25 59 56 56 75 -8
7 -22 7 -48 1 -70 -6 -23 -5 -41 2 -52 13 -22 -7 -125 -27 -133 -8 -3 -27 6
-44 20 -23 20 -26 26 -14 31 28 11 29 59 2 117 -24 52 -46 80 -46 58 0 -6 -6
-8 -14 -5 -8 3 -16 -4 -20 -18 -10 -39 -39 -68 -71 -70 -16 -1 -47 -13 -68
-27 -38 -25 -39 -25 -90 -8 -33 11 -79 17 -126 15 -66 -1 -76 1 -92 21 -32 39
-20 61 32 61 32 0 24 39 -11 51 -33 12 -37 25 -17 54 11 14 22 17 53 12 21 -3
62 0 89 7 31 8 101 13 183 12 129 -2 134 -3 153 -26z m818 -284 c20 -24 3
-105 -34 -161 -37 -55 -115 -125 -140 -125 -9 0 -13 4 -10 10 4 6 -1 7 -11 3
-23 -9 -14 17 11 31 34 20 41 30 85 129 54 124 73 145 99 113z m1058 -71 c40
-2 75 0 78 6 4 5 18 3 36 -6 26 -14 29 -20 29 -65 0 -27 -5 -52 -11 -55 -17
-11 -160 -16 -177 -6 -9 5 -26 5 -38 1 -16 -7 -37 -2 -75 16 -43 21 -57 24
-76 15 -36 -17 -81 -12 -148 13 -75 29 -81 49 -21 69 35 12 60 13 119 6 61 -8
80 -6 103 6 19 10 43 14 69 10 22 -3 73 -7 112 -10z m4318 -49 c28 -12 30 -17
32 -67 1 -30 3 -65 3 -78 3 -36 -15 -45 -78 -43 -94 5 -115 4 -174 -9 -32 -6
-86 -9 -125 -5 -143 12 -203 22 -215 34 -18 18 -35 15 -41 -8 -4 -17 -14 -20
-59 -20 -48 0 -60 5 -120 48 -36 27 -74 56 -83 65 -9 10 -23 17 -30 17 -17 0
-65 43 -65 59 0 17 67 13 95 -5 19 -12 28 -13 45 -4 25 13 72 8 122 -14 11 -5
24 0 38 14 19 19 29 21 74 16 65 -8 58 -8 146 1 124 14 401 13 435 -1z m-4551
-115 c23 -10 77 -26 121 -36 129 -27 137 -29 148 -46 5 -9 7 -28 3 -43 -6 -24
-11 -27 -31 -22 -14 4 -25 2 -25 -4 0 -5 5 -10 11 -10 7 0 22 -11 35 -25 23
-25 23 -25 2 -25 -12 0 -32 -9 -44 -20 -20 -20 -27 -20 -105 -10 -46 5 -129
10 -184 11 -144 1 -149 4 -153 66 -2 37 3 62 18 89 11 21 20 44 20 51 0 16 17
25 60 34 59 11 82 10 124 -10z m-815 -197 c2 -11 -8 -27 -25 -40 -27 -22 -31
-35 -51 -167 -3 -23 -13 -41 -25 -48 -25 -14 -28 -10 -33 41 -6 56 -29 90 -61
90 -30 0 -40 21 -24 50 10 18 19 21 53 18 39 -3 42 -1 47 27 10 56 109 81 119
29z m809 -77 c6 -5 12 -17 12 -27 0 -16 11 -20 83 -26 45 -4 91 -7 101 -5 16
2 18 -2 12 -31 -9 -41 -15 -81 -20 -133 -4 -37 -6 -40 -32 -37 -16 2 -76 4
-134 6 -180 5 -208 18 -218 103 -5 53 -17 64 -71 69 -93 9 -147 13 -158 14 -7
0 -15 11 -19 25 -12 50 -1 52 224 51 114 0 213 -5 220 -9z m-360 -246 c18 -6
48 -23 67 -40 18 -16 43 -32 55 -36 12 -4 57 -31 100 -60 75 -51 320 -180 320
-169 0 4 7 1 15 -6 12 -10 16 -8 25 14 12 33 27 33 62 -1 l28 -26 60 18 c34
10 67 27 75 38 14 21 35 15 35 -9 0 -8 5 -12 10 -9 16 10 11 -7 -20 -64 -28
-52 -30 -71 -9 -71 6 0 36 -12 67 -26 207 -93 214 -98 155 -108 -21 -4 -63
-19 -93 -33 -98 -46 -179 -76 -237 -88 -17 -3 -37 -13 -44 -21 -6 -8 -19 -14
-28 -15 -9 0 2 -9 24 -20 22 -10 34 -19 26 -19 -8 0 -21 -7 -30 -15 -9 -8 -33
-29 -53 -46 l-38 -31 0 88 c0 84 2 92 35 147 19 31 30 57 26 57 -14 0 -67 -91
-86 -146 -12 -34 -19 -94 -22 -199 -6 -174 6 -241 63 -363 51 -109 56 -126 63
-227 l6 -90 46 -8 c38 -7 53 -5 85 11 46 24 78 55 105 100 18 30 39 43 39 23
0 -5 36 26 80 68 44 42 80 85 80 94 0 10 11 29 25 42 20 20 34 25 78 25 41 0
63 6 91 25 20 14 45 25 55 25 10 0 31 13 47 30 24 24 37 29 77 30 35 0 68 10
125 39 92 46 110 50 262 55 63 3 123 7 133 11 10 4 17 3 17 -4 0 -6 12 -11 28
-10 15 1 34 -1 43 -5 10 -4 20 -3 24 3 9 15 21 14 38 -4 12 -12 13 -22 5 -56
-9 -32 -8 -43 3 -49 10 -7 7 -13 -13 -29 -14 -12 -31 -35 -37 -53 l-12 -33 43
41 c24 23 56 44 71 48 38 9 44 32 17 62 -23 23 -23 24 -3 24 11 0 30 -11 43
-25 14 -15 35 -25 51 -25 18 0 35 -9 49 -27 24 -31 14 -40 -30 -25 -23 9 -33
7 -52 -7 -13 -10 -38 -26 -57 -35 -41 -22 -33 -30 45 -46 45 -9 70 -9 100 -1
21 6 54 11 72 11 18 0 35 6 38 13 5 14 74 11 74 -3 0 -4 -28 -13 -62 -20 -35
-7 -74 -17 -87 -22 -22 -8 -23 -10 -7 -21 16 -12 14 -15 -21 -40 -22 -15 -50
-26 -64 -26 -34 2 -136 -39 -152 -61 -7 -10 -38 -30 -69 -46 -40 -19 -62 -38
-77 -65 -16 -28 -26 -36 -41 -32 -23 6 -90 80 -90 99 0 8 -16 4 -45 -13 -45
-25 -47 -31 -18 -65 8 -9 13 -25 12 -35 -3 -20 18 -91 34 -111 12 -15 6 -23
-22 -25 -11 -1 -21 -4 -21 -8 0 -8 -60 -34 -80 -34 -20 -1 -210 -96 -283 -143
-32 -20 -85 -59 -117 -85 -50 -40 -60 -54 -61 -80 l-1 -32 -19 40 c-24 53 -24
115 2 175 24 56 51 79 162 139 42 24 77 44 77 46 0 2 -11 16 -24 30 -35 37
-39 77 -15 137 11 28 18 57 15 65 -7 18 -42 16 -106 -7 -30 -11 -69 -20 -87
-20 -18 0 -33 -4 -33 -10 0 -5 -6 -10 -14 -10 -7 0 -19 -6 -25 -13 -9 -11 -3
-16 29 -26 53 -16 52 -40 -2 -76 -23 -15 -59 -44 -80 -63 -21 -19 -48 -42 -60
-51 -13 -8 -49 -40 -80 -71 -31 -30 -72 -69 -91 -86 -18 -17 -43 -49 -54 -70
-23 -45 -48 -55 -56 -24 -4 18 -12 21 -39 19 -18 -2 -39 0 -45 4 -12 7 -80
-23 -92 -41 -3 -4 -35 -31 -71 -60 -102 -81 -121 -97 -189 -156 -45 -40 -80
-61 -117 -72 -30 -8 -54 -20 -54 -25 0 -5 5 -9 10 -9 6 0 10 -6 10 -14 0 -8 8
-28 18 -45 15 -27 15 -33 2 -41 -12 -7 -12 -12 3 -28 13 -14 38 -22 83 -27 63
-7 67 -9 176 -98 61 -51 125 -103 142 -117 96 -75 88 -63 92 -147 2 -42 8 -79
13 -82 15 -10 8 -275 -7 -294 -7 -8 -34 -18 -60 -22 -32 -4 -55 -15 -73 -33
-41 -43 -63 -58 -156 -108 -48 -25 -90 -49 -93 -53 -3 -3 -12 -7 -20 -9 -28
-6 -50 -35 -50 -64 0 -24 -6 -32 -34 -43 -18 -8 -36 -21 -39 -30 -6 -14 4 -19
57 -27 38 -6 26 -24 -24 -37 -27 -7 -50 -17 -50 -23 0 -5 4 -7 9 -4 18 11 160
16 187 6 41 -16 21 -27 -112 -65 -125 -35 -308 -65 -399 -65 -53 0 -55 1 -55
28 1 15 5 46 9 69 11 55 -13 243 -38 298 -26 60 -53 172 -54 225 0 45 43 235
68 294 54 132 83 297 92 512 5 127 4 132 -15 138 -13 4 -31 0 -47 -10 -28 -18
-128 -21 -330 -9 -110 6 -398 15 -658 19 -186 4 -206 10 -193 60 11 46 35 50
199 36 82 -6 221 -12 310 -11 89 0 209 0 267 -1 58 0 134 0 170 1 98 1 201 -9
236 -24 27 -11 36 -10 69 5 22 10 33 20 26 24 -6 4 -11 16 -11 27 0 11 -9 39
-20 61 -11 23 -20 46 -20 51 0 16 -28 37 -49 37 -12 0 -22 6 -23 13 0 6 -2 17
-2 23 -1 6 -7 18 -13 26 -9 11 -10 50 -4 159 4 79 10 151 12 159 3 13 -16 15
-128 18 -101 2 -134 6 -143 17 -7 8 -18 15 -25 15 -7 0 -16 7 -19 16 -4 11 5
20 32 32 29 13 67 17 177 17 l140 0 0 42 c0 25 7 49 17 60 9 10 27 30 40 44
30 33 78 210 124 458 15 85 21 99 56 137 21 23 60 69 86 103 26 34 73 94 104
134 31 40 73 86 92 101 20 15 34 31 31 37 -4 5 -2 17 3 26 8 14 -5 25 -87 70
-53 30 -103 58 -111 63 -8 5 -41 23 -73 40 -45 24 -62 28 -77 20 -25 -13 -30
-13 -30 3 0 14 -67 87 -80 87 -14 0 -20 31 -10 51 12 22 21 23 68 10z m-1296
-111 c15 -17 33 -30 40 -30 14 -1 71 -70 63 -78 -2 -2 -12 -1 -22 3 -10 4 -39
8 -66 10 -59 5 -137 56 -137 91 0 52 76 54 122 4z m173 -119 c3 -5 31 -19 62
-31 31 -12 64 -30 73 -41 10 -10 23 -19 30 -19 7 0 30 -14 52 -31 30 -25 38
-37 36 -58 -5 -46 -65 -41 -122 10 -32 28 -80 56 -163 97 -32 16 -39 34 -27
66 7 17 49 22 59 7z m653 -18 c16 -22 29 -28 58 -28 20 0 39 -5 41 -12 2 -6
-12 -27 -31 -46 -40 -41 -108 -58 -146 -37 -19 10 -20 14 -8 28 24 29 41 70
33 81 -7 12 11 41 25 41 5 0 17 -12 28 -27z m2064 -313 c-1 -14 -4 -38 -5 -53
-1 -15 -9 -32 -17 -37 -27 -17 2 -27 135 -49 134 -22 143 -22 265 9 46 12 223
6 278 -9 24 -7 22 -9 -23 -16 -27 -4 -83 -7 -122 -6 -75 2 -83 -2 -63 -38 8
-15 0 -25 -48 -57 -31 -21 -62 -45 -68 -53 -12 -16 -179 -21 -384 -11 -140 7
-136 8 -337 -41 -60 -14 -88 -17 -101 -10 -11 6 -22 8 -25 4 -3 -3 -85 -7
-182 -8 -148 -2 -175 0 -175 12 0 8 17 52 39 98 35 74 45 87 95 119 31 20 59
36 63 36 3 0 14 7 23 15 22 20 120 44 153 38 18 -4 34 0 46 11 17 15 24 14
105 -9 49 -14 114 -28 145 -31 55 -6 56 -6 71 25 16 33 95 91 120 88 10 -2 14
-11 12 -27z m-2568 5 c16 -17 12 -39 -12 -67 -22 -26 -102 -24 -132 2 -12 11
-26 17 -31 15 -13 -8 -22 16 -11 27 14 14 98 36 139 37 17 1 38 -6 47 -14z
m-17 -149 l28 -24 -17 -73 c-33 -146 -37 -173 -26 -187 6 -7 11 -42 11 -77 1
-48 4 -65 14 -65 31 0 63 -32 63 -64 0 -51 -22 -58 -189 -56 -229 3 -241 2
-241 -15 0 -9 -9 -15 -25 -15 -28 0 -31 11 -13 40 10 15 10 26 0 53 -7 18 -12
42 -12 53 0 23 28 104 41 121 6 6 12 40 14 75 2 35 4 68 4 74 2 26 56 35 142
25 120 -16 113 -18 104 32 -11 59 -8 88 12 109 22 25 57 23 90 -6z m1002 13
c52 -18 50 -73 -5 -146 -20 -27 -32 -33 -61 -33 -49 0 -62 21 -63 102 0 53 4
69 18 77 23 14 72 14 111 0z m2770 -294 c44 -22 115 -84 107 -93 -2 -2 -13 1
-24 7 -12 6 -29 11 -39 11 -10 0 10 -13 45 -30 81 -38 154 -89 146 -101 -3 -6
-25 1 -51 16 -53 29 -53 29 -53 10 0 -12 -17 -13 -102 -9 -71 4 -98 2 -87 -5
8 -5 58 -11 111 -12 75 -1 100 -5 119 -20 l24 -19 -35 0 -35 -1 48 -25 c26
-13 47 -26 47 -28 0 -3 -21 -3 -47 -1 -27 1 -53 -1 -59 -6 -20 -16 -186 -14
-211 2 -13 7 -23 19 -23 24 0 12 87 43 135 48 17 2 -4 5 -45 7 -88 3 -80 3
-105 -5 -14 -5 -16 -4 -6 3 18 13 -69 47 -98 37 -28 -8 -61 3 -61 20 0 17 -41
39 -87 50 -38 8 -44 25 -10 25 13 0 32 6 42 14 16 12 17 16 6 29 -14 17 -7 37
12 37 7 0 46 11 87 25 92 30 176 27 249 -10z m184 -392 c22 -2 45 -7 50 -12
14 -14 -3 -32 -24 -26 -10 4 -19 4 -19 1 0 -19 47 -78 85 -105 25 -18 43 -37
39 -42 -3 -5 16 -33 42 -62 48 -53 126 -199 145 -272 22 -79 82 -215 114 -255
6 -8 27 -51 45 -95 19 -44 49 -107 67 -139 19 -32 32 -60 30 -63 -2 -2 -26 24
-52 58 -46 58 -115 196 -115 230 0 8 -6 24 -14 35 -12 15 -17 16 -27 7 -15
-15 1 -115 32 -201 10 -29 19 -64 19 -78 0 -14 7 -38 15 -54 9 -17 11 -30 6
-30 -18 0 -65 76 -137 223 -40 84 -74 147 -74 140 0 -20 38 -175 54 -222 32
-89 15 -135 -55 -147 -19 -3 -39 -7 -45 -9 -13 -4 24 -160 50 -209 8 -16 20
-51 26 -78 10 -41 16 -48 36 -48 16 0 24 6 24 18 0 9 5 34 11 55 7 27 15 37
30 37 18 0 20 -4 14 -32 -4 -18 -12 -42 -18 -53 -15 -27 -17 -39 -23 -111 -6
-74 12 -90 51 -48 15 16 31 24 40 20 20 -7 20 38 1 76 -8 15 -12 36 -9 47 3
11 -2 30 -11 43 -15 21 -23 48 -10 36 19 -19 124 42 124 71 0 5 6 14 14 20 11
10 17 7 30 -11 9 -12 16 -34 16 -48 0 -32 42 -75 65 -67 16 7 18 20 16 130 -1
37 3 67 8 67 5 0 19 -16 31 -35 12 -19 27 -38 35 -42 7 -5 29 -29 49 -56 46
-61 49 -108 9 -134 -16 -10 -34 -26 -41 -35 -19 -26 -35 -22 -54 12 -9 17 -22
30 -28 30 -19 0 -23 -31 -5 -44 16 -12 16 -15 -9 -55 -30 -47 -64 -65 -141
-76 -27 -4 -57 -13 -65 -20 -16 -14 -102 -45 -124 -45 -16 0 -52 -38 -43 -46
3 -3 21 -1 39 5 37 11 263 53 413 76 55 9 123 19 150 24 57 9 113 -2 60 -12
-16 -4 -52 -9 -80 -13 -251 -32 -651 -121 -632 -140 3 -3 40 2 83 11 57 11 95
13 134 7 l55 -8 -46 -21 c-25 -11 -63 -26 -85 -33 -110 -34 -220 -83 -429
-189 -212 -108 -353 -171 -383 -171 -17 0 -15 -18 3 -36 13 -13 13 -17 1 -30
-18 -17 -30 -53 -22 -61 3 -4 19 8 35 26 30 34 43 34 61 1 9 -17 5 -22 -31
-40 -36 -19 -43 -20 -57 -7 -10 8 -25 17 -35 20 -22 8 -40 54 -32 84 4 18 1
23 -15 23 -16 0 -19 -5 -16 -22 15 -74 15 -91 -3 -131 -11 -23 -24 -55 -31
-72 -6 -16 -24 -46 -40 -65 l-30 -35 6 45 c3 25 13 70 21 100 8 30 18 70 23
88 4 19 16 43 27 54 18 21 18 21 -22 14 -22 -5 -46 -13 -54 -19 -12 -10 -13
-6 -7 28 4 22 15 58 23 80 27 72 27 90 -1 134 -64 101 -70 130 -71 336 0 179
-1 192 -22 225 -25 38 -29 70 -13 99 7 14 4 25 -16 47 -48 54 -101 129 -131
184 -66 121 -109 187 -150 231 -45 49 -52 72 -28 103 8 11 15 38 15 60 1 119
119 216 245 202 28 -3 67 -1 87 4 35 10 37 9 97 -51 56 -57 63 -61 93 -55 58
12 56 22 -15 94 -37 37 -67 71 -67 75 0 8 57 61 92 85 21 15 157 32 164 20 3
-4 -6 -27 -19 -50 -25 -46 -43 -106 -52 -178 -3 -25 -13 -74 -22 -110 -8 -36
-17 -110 -18 -165 -4 -131 -35 -267 -82 -351 -44 -80 -47 -131 -11 -193 25
-44 44 -55 34 -18 -21 70 -25 130 -12 165 8 21 23 62 35 92 34 91 51 184 50
277 0 66 6 108 24 168 14 44 27 103 30 130 11 100 89 277 115 261 8 -5 5 -297
-4 -406 l-5 -65 16 40 c9 22 19 48 22 58 10 31 30 18 39 -25 4 -24 7 -49 7
-55 0 -7 3 -13 8 -13 5 0 9 12 10 28 0 15 3 21 6 15 10 -25 21 -12 13 15 -42
139 -49 175 -51 262 -1 52 0 96 2 98 2 2 17 -1 32 -7 16 -6 37 -11 47 -11 11
0 23 -8 28 -17 17 -33 42 -198 47 -310 5 -118 12 -163 25 -163 5 0 22 19 37
43 40 59 59 56 54 -8 -1 -27 -8 -58 -13 -69 -13 -24 -1 -86 16 -86 16 0 26 22
26 56 0 15 6 24 15 24 8 0 15 6 15 14 0 18 27 29 36 14 4 -6 12 -33 18 -61 6
-28 17 -52 24 -55 16 -5 15 28 -3 71 -9 22 -15 68 -15 116 0 61 -7 100 -30
171 -17 51 -28 96 -24 101 3 5 14 9 25 9 23 0 24 13 5 43 -22 33 -9 77 25 89
16 5 29 13 29 17 0 4 -20 27 -45 51 -49 48 -57 70 -25 70 33 0 23 19 -40 80
-34 32 -60 67 -60 78 0 10 -22 40 -50 66 -27 26 -50 51 -50 55 0 5 -9 11 -20
14 -11 3 -20 12 -20 20 0 24 33 26 53 3 12 -13 34 -21 60 -23z m-3982 -23 c22
-12 25 -48 7 -72 -7 -9 -33 -33 -56 -52 l-44 -36 -222 0 c-241 0 -266 5 -266
55 0 43 25 47 260 42 120 -2 223 -1 228 2 5 3 13 16 17 29 4 13 16 27 28 32
29 11 26 11 48 0z m21 -399 c16 -6 73 -7 155 -2 170 10 236 5 252 -21 10 -16
9 -24 -4 -44 -27 -41 -57 -47 -231 -40 -88 3 -181 3 -207 0 -43 -6 -47 -9 -47
-35 0 -15 -5 -31 -12 -35 -6 -4 -55 -6 -107 -5 -109 2 -136 15 -112 52 20 33
2 40 -92 33 l-87 -7 0 -33 c0 -28 -4 -35 -27 -40 -37 -10 -57 7 -61 50 -3 30
-7 36 -25 36 -31 0 -67 27 -67 49 0 24 38 49 81 53 78 7 566 -1 591 -11z
m-528 -247 c21 -8 21 -58 0 -75 -11 -9 -14 -22 -10 -45 6 -27 2 -36 -25 -58
-36 -30 -55 -33 -81 -9 -34 30 -17 78 35 96 11 4 17 17 17 40 0 48 23 67 64
51z m5856 -275 c107 -5 260 -11 340 -13 308 -8 335 -10 364 -29 32 -21 31 -43
-4 -68 -23 -16 -42 -17 -235 -9 -115 5 -361 13 -545 20 -520 18 -461 11 -492
56 -15 21 -27 44 -28 51 0 13 249 10 600 -8z m-1720 -1439 c0 -6 -11 -22 -25
-35 -13 -14 -21 -25 -18 -25 4 0 -2 -7 -13 -15 -16 -12 -16 -14 -2 -9 17 6 17
4 2 -32 -9 -21 -29 -54 -45 -73 -16 -20 -29 -42 -29 -49 0 -8 -6 -12 -14 -9
-14 6 -32 -21 -21 -31 3 -3 5 1 5 8 0 7 2 11 5 8 9 -8 -16 -56 -31 -62 -8 -3
-18 3 -24 14 -22 41 -11 82 51 185 49 80 69 104 98 117 43 19 61 22 61 8z
m-2052 -74 c9 -5 -1 -19 -32 -44 l-45 -37 24 -26 c14 -14 23 -28 19 -31 -12
-13 17 -47 47 -53 38 -9 47 -1 25 24 -15 16 -15 19 -1 31 13 11 13 15 -6 31
-12 11 -31 19 -41 19 -24 0 -19 21 9 35 12 6 28 17 37 24 28 23 96 -3 128 -49
19 -27 32 -37 45 -34 20 6 107 -28 117 -45 9 -13 -61 -2 -96 16 -24 12 -31 11
-51 -2 -18 -11 -24 -25 -26 -60 -2 -40 1 -46 24 -57 14 -6 25 -15 25 -21 0 -5
7 -6 15 -3 10 3 18 -1 22 -12 4 -9 9 -19 12 -22 3 -3 11 -14 17 -25 7 -11 20
-19 29 -17 10 2 21 -2 26 -9 4 -7 20 -13 36 -14 54 -3 163 -30 163 -39 0 -19
-34 -46 -57 -46 -32 0 -116 21 -128 31 -5 5 -18 9 -29 9 -10 0 -44 12 -75 26
-31 14 -65 30 -76 34 -11 4 -33 13 -48 19 -56 22 -64 16 -69 -46 -3 -32 -8
-65 -12 -74 -6 -14 2 -18 56 -24 69 -8 88 -18 88 -45 0 -10 16 -27 35 -39 19
-11 35 -27 35 -36 0 -19 -9 -19 -32 2 -17 15 -18 15 -18 -3 0 -10 -3 -29 -6
-41 -5 -18 -2 -23 14 -23 27 0 37 -16 17 -28 -23 -12 -8 -41 19 -39 12 1 30
10 40 19 10 10 29 21 44 24 15 4 35 14 45 22 9 8 17 13 18 11 8 -45 2 -87 -16
-103 -28 -26 -163 -88 -183 -84 -10 2 -23 22 -32 50 -8 26 -25 55 -37 63 -13
9 -23 23 -23 31 0 8 -5 12 -11 8 -6 -3 -30 13 -54 36 l-42 42 -32 -39 c-21
-25 -31 -48 -31 -71 0 -41 -15 -34 -24 10 -7 32 -7 32 -22 13 -15 -20 -12 -61
5 -78 4 -4 20 -3 34 4 23 11 32 9 67 -15 23 -15 40 -32 37 -39 -6 -18 -87 -56
-132 -61 -22 -3 -50 -8 -62 -12 -20 -5 -25 0 -43 41 -14 33 -17 51 -10 60 12
15 3 26 -16 18 -8 -3 -14 0 -14 5 0 6 -20 39 -44 74 -60 87 -80 130 -130 276
-24 70 -65 186 -91 257 -48 132 -63 185 -51 185 4 0 46 -39 95 -87 49 -49 107
-103 130 -121 22 -18 41 -37 41 -43 0 -5 8 -17 19 -28 10 -10 23 -27 29 -37 6
-10 14 -16 18 -12 4 4 -5 25 -21 47 -39 57 -54 107 -55 178 0 75 15 88 85 77
30 -4 45 -3 45 5 0 6 7 11 16 11 8 0 13 -4 9 -9 -12 -21 15 -19 61 3 48 24 78
27 102 12z m4510 -278 c18 -18 15 -28 -8 -28 -10 0 -31 -5 -46 -12 -23 -11
-25 -16 -20 -47 4 -27 1 -40 -16 -58 -27 -29 -38 -29 -38 0 0 40 -12 65 -32
70 -21 6 -68 -11 -68 -24 0 -15 -34 -19 -49 -5 -9 7 -31 17 -48 21 -35 7 -55
26 -35 33 7 2 12 10 12 18 0 20 45 28 95 15 52 -13 105 -14 105 -3 0 27 124
44 148 20z m-348 -390 c17 -12 30 -30 30 -40 0 -11 7 -18 20 -18 11 0 20 5 20
10 0 6 -7 10 -15 10 -8 0 -15 5 -15 10 0 16 15 12 35 -10 10 -11 22 -20 27
-20 15 0 47 -43 48 -62 0 -10 5 -18 10 -18 16 0 -7 -37 -30 -50 -15 -8 -24 -4
-48 21 -32 34 -36 33 -80 -13 -24 -26 -40 -22 -44 10 -2 20 4 34 26 53 l30 26
-28 27 c-16 14 -41 26 -55 26 -14 0 -33 5 -41 10 -12 8 -12 12 5 29 26 26 69
26 105 -1z m-3652 -384 c20 -22 51 -50 67 -62 29 -21 29 -22 10 -34 -19 -11
-72 -63 -202 -199 -34 -35 -85 -86 -115 -112 -29 -26 -60 -54 -69 -62 -9 -8
-19 -15 -24 -15 -7 0 -88 -82 -86 -87 5 -17 -2 -33 -14 -33 -8 0 -15 -2 -15
-5 0 -14 30 -62 49 -79 28 -25 27 -40 -4 -54 -30 -14 -55 -16 -55 -4 0 4 -11
12 -25 19 -33 15 -33 0 0 -43 15 -19 21 -35 15 -39 -5 -3 -10 -15 -10 -25 0
-10 -7 -23 -16 -28 -9 -5 -17 -13 -17 -18 -1 -5 -12 -9 -24 -9 -12 -1 -43 -20
-68 -43 -25 -23 -53 -42 -61 -42 -8 0 -28 -14 -45 -31 -30 -31 -54 -34 -29 -4
8 10 9 15 1 15 -6 0 -11 -5 -11 -11 0 -20 -62 0 -89 29 -29 30 -73 39 -63 12
3 -8 11 -24 19 -35 20 -30 16 -51 -16 -78 -16 -13 -41 -43 -55 -65 -14 -23
-33 -42 -41 -42 -37 0 -75 79 -75 156 0 22 -5 46 -10 54 -8 12 -10 10 -10 -10
0 -15 -5 -31 -11 -37 -6 -6 -10 -29 -7 -51 2 -30 -1 -43 -14 -51 -28 -18 -42
-13 -56 19 -18 39 -42 40 -42 1 0 -30 -22 -57 -39 -46 -6 3 -20 -4 -31 -15
-24 -24 -21 -57 11 -124 11 -22 19 -43 19 -48 0 -4 -18 -17 -39 -28 -45 -23
-63 -12 -32 21 14 16 18 30 14 58 -8 63 -9 63 -49 46 -20 -8 -40 -12 -45 -9
-14 8 -11 30 6 44 9 7 15 29 15 54 0 29 8 53 25 76 19 25 22 36 12 42 -20 13
-47 9 -53 -7 -4 -8 -15 -15 -25 -15 -10 0 -19 -4 -19 -10 0 -5 -15 -10 -32
-10 -18 0 -50 -3 -71 -6 -31 -6 -36 -10 -32 -25 3 -10 1 -27 -4 -38 -6 -10
-12 -33 -13 -51 -2 -33 -40 -80 -64 -80 -8 0 -14 -9 -14 -20 0 -16 7 -20 33
-20 24 0 35 -6 43 -25 9 -19 9 -27 -1 -35 -10 -8 -16 -7 -22 5 -9 15 -13 14
-49 -6 -53 -30 -52 -29 -29 -45 15 -11 17 -18 9 -32 -17 -27 -42 -26 -55 1 -6
14 -20 29 -31 34 -18 8 -17 11 17 47 29 31 39 36 45 25 5 -7 12 -10 17 -6 4 5
1 12 -7 17 -10 6 -11 12 -3 22 16 20 24 90 11 105 -15 18 -24 16 -48 -9 -19
-21 -20 -21 -20 -2 0 11 11 31 25 44 14 13 25 31 25 40 0 24 65 86 115 110 49
24 158 44 191 36 14 -4 41 4 71 20 37 19 53 36 72 74 13 27 49 75 80 108 31
33 82 97 113 143 31 46 86 112 122 146 36 35 91 99 122 143 98 141 256 285
384 350 14 7 28 17 31 23 13 19 29 -3 17 -23 -15 -24 6 -50 65 -79 34 -17 44
-18 58 -8 9 6 52 39 95 73 44 33 93 68 109 77 28 14 30 14 33 -2 2 -9 20 -35
40 -57z m1387 -264 c24 -9 25 -11 11 -32 -21 -32 -63 -167 -69 -219 -5 -40
-15 -87 -37 -176 -4 -18 -5 -34 -2 -37 7 -7 71 95 72 114 0 8 11 37 25 64 14
27 25 55 25 61 0 7 7 18 15 25 8 7 15 25 15 41 0 16 4 29 9 29 10 0 22 31 26
65 1 11 3 23 4 28 2 14 156 8 177 -8 19 -14 19 -14 -2 -15 -27 0 -38 -24 -18
-40 16 -14 20 -45 4 -35 -6 4 -7 -5 -4 -23 4 -17 1 -32 -5 -36 -16 -11 -13
-26 4 -20 8 4 15 1 15 -5 0 -7 -7 -14 -15 -17 -8 -4 -15 -15 -15 -25 0 -10 -4
-19 -10 -19 -5 0 -10 -5 -10 -10 0 -6 -11 -27 -24 -48 -13 -20 -26 -53 -29
-72 -3 -19 -10 -53 -17 -75 -7 -22 -16 -74 -20 -115 -5 -41 -21 -106 -35 -145
-14 -38 -31 -83 -37 -100 -14 -38 -37 -65 -55 -65 -10 0 -12 -6 -8 -20 10 -33
-5 -110 -22 -110 -11 0 -14 -7 -11 -25 3 -13 1 -26 -4 -27 -6 -2 -4 -15 3 -31
11 -24 10 -30 -10 -51 -14 -15 -18 -25 -11 -28 8 -2 6 -13 -6 -34 -12 -20 -15
-37 -9 -50 4 -10 7 -23 6 -29 -2 -5 -9 -31 -15 -57 -7 -26 -9 -45 -5 -42 16
10 42 -13 45 -40 3 -26 -18 -37 -31 -16 -5 8 -11 7 -21 -1 -11 -9 -14 -8 -14
5 0 9 -4 16 -10 16 -15 0 -12 -16 6 -31 11 -9 15 -25 12 -51 -2 -21 -1 -38 2
-38 3 0 6 -34 6 -75 0 -51 -4 -76 -13 -79 -17 -7 -17 -28 0 -45 6 -6 13 -35
14 -64 5 -148 12 -264 16 -282 2 -11 0 -23 -5 -26 -6 -4 -2 -20 8 -40 32 -59
27 -168 -5 -112 -17 31 -23 6 -12 -53 8 -42 8 -60 0 -65 -6 -4 -8 -12 -5 -18
4 -6 7 -58 7 -116 0 -104 0 -105 25 -111 30 -8 37 -2 39 34 1 15 2 51 3 80 2
45 5 53 20 50 14 -3 19 -20 27 -88 9 -77 12 -85 34 -90 32 -7 38 -28 9 -32
-19 -2 -24 -11 -28 -43 -5 -37 -8 -41 -45 -49 -22 -4 -51 -14 -65 -21 -14 -7
-38 -15 -54 -19 -17 -4 -45 -21 -63 -37 -19 -16 -39 -29 -45 -29 -17 0 -48 31
-48 49 -1 9 -7 33 -14 53 -12 35 -12 37 7 40 13 2 21 12 23 30 2 20 -1 25 -12
21 -19 -7 -18 11 2 28 12 10 14 24 9 64 -5 46 -3 53 20 73 29 25 32 64 14 172
-6 36 -12 76 -14 90 -2 14 -7 135 -10 270 -3 135 -8 270 -10 300 -8 124 -5
540 4 610 9 70 49 254 84 395 19 73 35 445 19 445 -5 0 -15 19 -21 43 -6 23
-19 72 -30 109 -10 37 -15 72 -10 79 4 7 31 13 61 15 29 1 64 7 78 12 32 14
53 14 85 2z m1281 -13 c1 -1 23 -33 48 -72 25 -38 61 -91 80 -117 31 -43 33
-52 30 -105 -2 -32 -9 -87 -15 -123 -14 -83 -10 -106 19 -103 17 2 22 -2 22
-20 0 -17 9 -26 34 -35 37 -14 76 -2 146 44 21 14 47 24 57 22 20 -4 27 -46
13 -84 -6 -15 -5 -36 4 -61 17 -51 15 -86 -7 -107 -14 -15 -15 -21 -5 -33 10
-12 9 -18 -6 -29 -15 -10 -17 -20 -11 -51 10 -60 7 -114 -10 -160 -9 -23 -15
-59 -13 -80 2 -23 -2 -42 -11 -49 -19 -15 -22 -134 -4 -153 8 -7 12 -20 9 -27
-3 -7 -1 -16 4 -19 5 -3 7 -19 4 -35 -6 -27 -3 -29 36 -41 32 -10 46 -20 56
-44 15 -38 24 -154 12 -161 -5 -4 -6 -18 -2 -33 10 -40 12 -94 3 -112 -6 -11
-3 -21 7 -30 9 -8 13 -21 10 -35 -4 -13 -2 -26 4 -29 6 -3 9 -25 9 -48 -1 -24
4 -54 11 -67 8 -14 15 -55 17 -92 3 -56 1 -68 -12 -68 -21 0 -19 -29 2 -37 9
-4 25 -14 35 -22 17 -15 17 -16 1 -22 -15 -5 -13 -8 10 -24 15 -10 42 -21 59
-24 37 -8 49 -30 19 -38 -12 -3 -21 -10 -21 -15 0 -6 6 -8 14 -5 8 3 17 -1 20
-9 10 -25 7 -34 -10 -34 -9 0 -43 -21 -76 -46 -78 -59 -83 -60 -111 -31 -47
51 -56 250 -15 334 12 25 4 133 -12 163 -5 10 -10 35 -10 54 0 35 -12 47 -25
26 -11 -17 -23 -11 -29 16 -8 32 -1 41 19 24 21 -18 20 3 -10 130 -14 58 -43
193 -65 300 -22 107 -47 222 -55 255 -9 33 -20 120 -25 194 -9 130 -32 228
-65 271 -6 8 -22 40 -35 70 -14 30 -39 80 -57 110 -101 173 -135 263 -152 400
-6 47 -14 96 -18 109 -6 23 -5 24 33 17 21 -5 40 -9 40 -9z m-1683 -470 c-4
-50 -15 -93 -37 -140 -27 -59 -34 -67 -54 -64 -14 3 -26 -1 -29 -9 -4 -10 -9
-12 -18 -4 -9 7 -16 6 -25 -5 -7 -8 -19 -15 -26 -15 -8 0 -14 -4 -14 -10 0 -5
-11 -12 -25 -16 -14 -3 -23 -10 -20 -14 3 -5 1 -11 -5 -15 -6 -3 -19 -23 -29
-44 -11 -20 -33 -52 -49 -69 -48 -51 -122 -185 -122 -220 0 -17 -6 -35 -13
-39 -18 -11 -69 -95 -111 -182 -20 -41 -43 -82 -51 -91 -8 -9 -15 -21 -15 -27
0 -5 -9 -18 -20 -28 -11 -10 -20 -23 -20 -28 0 -6 -19 -36 -43 -66 -24 -31
-46 -64 -50 -73 -8 -21 11 -34 26 -19 15 15 37 14 37 -1 0 -6 -10 -22 -21 -35
-16 -16 -19 -26 -12 -35 14 -18 10 -48 -10 -78 -9 -14 -26 -47 -38 -75 -31
-70 -68 -123 -91 -130 -13 -5 -17 -12 -13 -25 4 -11 -5 -39 -19 -66 -14 -26
-23 -51 -20 -55 2 -4 0 -10 -6 -14 -15 -9 -12 -25 4 -25 29 0 26 -20 -10 -60
-20 -22 -34 -43 -32 -46 5 -4 64 30 93 54 31 25 65 43 65 34 0 -6 -9 -16 -21
-22 -16 -9 -18 -14 -8 -26 9 -11 8 -14 -4 -14 -8 0 -20 -6 -26 -14 -7 -8 -58
-34 -114 -57 -113 -48 -172 -56 -205 -26 -13 12 -22 15 -27 8 -11 -19 -25 -12
-25 14 0 32 -7 31 -42 -2 -32 -31 -37 -20 -8 17 11 14 20 31 20 38 0 14 20 17
20 3 0 -5 9 -7 20 -4 11 3 20 9 20 13 0 5 -8 6 -19 3 -22 -6 -35 11 -27 34 5
12 9 14 18 5 9 -9 16 -8 29 4 15 14 17 12 16 -33 -1 -67 15 -93 58 -93 28 0
36 4 41 24 3 13 17 34 32 47 32 28 15 36 -27 14 -27 -14 -31 -14 -31 0 0 8 18
24 39 35 90 46 137 123 151 252 19 167 50 278 109 394 17 34 42 103 55 155 30
111 80 240 138 347 55 103 69 122 169 222 73 73 101 93 195 140 166 83 181 94
210 153 21 39 28 72 32 130 4 74 5 77 23 61 15 -13 17 -27 12 -87z m2861 78
c16 -9 36 -13 43 -11 8 3 13 -2 13 -15 0 -18 -6 -20 -52 -20 -94 0 -135 -4
-149 -15 -8 -6 -31 -14 -51 -17 -34 -5 -38 -3 -58 30 -17 29 -18 38 -8 44 20
13 45 11 51 -4 5 -14 56 -15 78 -1 12 7 63 19 94 23 6 0 23 -6 39 -14z m-6105
-654 c2 -1 -2 -7 -8 -14 -13 -16 -5 -27 21 -27 11 0 27 -15 39 -35 13 -22 29
-35 42 -35 20 0 20 0 2 -14 -14 -10 -25 -11 -38 -4 -25 13 -34 2 -19 -22 7
-12 8 -21 2 -25 -6 -3 -10 -1 -10 4 0 6 -16 11 -35 11 -29 0 -36 4 -41 27 -4
14 -2 34 5 44 6 10 11 21 11 24 0 9 -76 5 -86 -5 -5 -5 -15 -6 -23 0 -12 7
-12 11 2 25 10 9 15 21 12 26 -12 19 6 25 62 23 32 -1 60 -3 62 -3z m197 -40
c19 -19 21 -25 11 -41 -16 -26 4 -50 27 -31 8 7 25 9 39 6 14 -4 28 -2 31 4
10 15 38 14 74 -5 18 -8 36 -13 42 -9 5 3 10 1 10 -4 0 -6 -16 -11 -35 -11
-21 0 -35 5 -35 12 0 7 -7 2 -16 -10 -8 -12 -23 -22 -33 -22 -10 0 -28 -12
-42 -26 -34 -37 -67 -48 -85 -29 -21 21 -86 21 -77 0 3 -9 -2 -22 -13 -30 -25
-19 -34 -19 -34 0 0 9 -7 18 -15 21 -25 10 -17 24 14 24 16 0 36 6 43 14 8 8
23 16 34 18 15 3 19 11 18 46 -1 41 17 59 29 30 3 -7 6 -1 6 13 1 24 -14 39
-39 39 -5 0 -15 -12 -22 -26 -7 -15 -17 -26 -23 -26 -9 1 -26 58 -19 65 2 2
22 3 45 2 28 -1 48 -8 65 -24z m872 -86 c4 -5 19 -29 32 -52 13 -24 28 -43 33
-43 5 0 7 -12 3 -27 -3 -16 -3 -22 0 -15 3 6 15 12 27 12 21 1 21 1 4 14 -24
19 -4 31 23 14 11 -7 20 -24 21 -38 1 -14 2 -55 3 -91 2 -44 10 -82 25 -115
29 -61 52 -135 45 -146 -3 -4 -11 -8 -17 -8 -7 0 -18 -10 -26 -21 -10 -18 -15
-19 -22 -8 -13 21 -11 29 10 29 20 0 37 32 26 50 -3 5 -18 10 -32 10 -20 0
-24 4 -18 18 18 43 18 52 -3 52 -12 0 -24 -5 -28 -11 -4 -7 -9 -8 -17 0 -7 7
-7 14 1 23 8 10 7 30 -3 73 -26 113 -32 132 -79 231 -25 54 -39 90 -31 79 8
-11 18 -24 23 -30z m-358 -34 c0 -6 8 -15 18 -20 9 -5 25 -30 34 -55 19 -51
11 -63 -10 -16 -21 47 -31 35 -14 -17 8 -27 17 -54 18 -60 6 -23 23 -14 26 13
l3 27 28 -28 c15 -15 27 -36 27 -47 0 -10 6 -29 14 -41 18 -28 34 -117 21
-117 -3 0 -14 -9 -25 -20 -15 -15 -18 -25 -12 -37 5 -9 7 -24 5 -33 -3 -11 3
-19 16 -23 12 -3 21 -11 21 -18 0 -7 -3 -9 -7 -6 -3 4 -15 0 -25 -9 -14 -14
-20 -15 -33 -4 -9 7 -15 20 -14 29 3 32 -1 47 -9 34 -6 -9 -17 -9 -47 2 l-40
14 42 -2 c23 -1 45 2 48 5 4 3 1 24 -5 47 -11 43 -38 65 -65 55 -11 -5 -18 0
-22 15 -6 24 -14 26 -31 9 -19 -19 -14 1 9 33 11 16 19 36 16 43 -3 8 -2 17 3
22 4 5 3 35 -3 67 -9 48 -15 61 -35 68 -17 7 -21 13 -14 22 5 6 9 30 7 52 -1
22 2 43 8 47 11 7 47 -32 47 -51z m-1397 -41 c6 -14 9 -30 9 -36 -1 -6 9 -16
23 -22 21 -10 27 -9 31 3 9 23 26 18 19 -5 -5 -17 -3 -19 14 -12 11 4 31 17
45 30 15 12 30 22 35 22 4 0 20 9 34 20 23 19 27 19 42 4 19 -19 16 -34 -10
-48 -11 -6 -27 -19 -36 -28 -8 -10 -35 -20 -58 -24 -25 -4 -47 -15 -56 -27
-12 -17 -17 -18 -29 -7 -13 10 -17 9 -22 -4 -3 -9 -11 -13 -17 -9 -5 3 -16 -3
-24 -13 -14 -18 -15 -18 -34 5 -26 31 -24 37 11 50 33 11 40 40 16 60 -16 14
-26 58 -18 80 5 13 6 13 10 0 3 -7 9 -25 15 -39z m5242 -72 c0 -26 4 -33 18
-31 15 1 17 -4 13 -23 -8 -29 12 -32 50 -7 21 13 32 14 54 6 15 -6 34 -7 41
-3 7 5 23 4 37 -1 16 -6 29 -6 38 1 9 8 18 8 33 0 25 -13 25 -14 4 -51 -18
-31 -29 -35 -52 -20 -12 8 -12 12 -2 25 12 14 10 15 -20 4 -18 -6 -28 -13 -21
-16 6 -2 12 -7 12 -11 0 -10 -89 -7 -112 3 -11 5 -28 1 -48 -14 -31 -22 -53
-20 -43 5 4 11 -2 15 -20 15 -31 0 -43 16 -27 35 8 9 10 28 6 47 -4 22 -1 37
10 50 24 25 29 23 29 -14z m-2740 -12 c19 -7 19 -8 -3 -20 l-24 -13 27 -17
c21 -14 32 -15 56 -7 27 9 29 8 29 -14 0 -27 41 -58 48 -36 5 14 42 15 42 0 0
-6 -9 -13 -20 -16 -11 -3 -20 -11 -20 -17 0 -7 -21 -12 -60 -12 -53 0 -60 2
-60 20 0 11 -7 27 -16 37 -13 14 -20 16 -40 7 -31 -15 -39 -6 -26 31 9 24 8
31 -6 36 -14 6 -11 10 13 20 17 7 32 12 35 11 3 -2 14 -6 25 -10z m-2012 -47
c-3 -15 -1 -35 5 -44 8 -16 11 -14 28 14 23 39 29 39 43 1 8 -25 15 -30 33
-26 50 10 138 16 137 9 -1 -15 -18 -48 -18 -37 -1 16 -89 6 -120 -13 -13 -8
-20 -10 -17 -4 4 7 -1 11 -13 11 -19 0 -20 -2 -9 -20 9 -15 10 -25 2 -37 -16
-26 -37 -29 -29 -4 5 15 2 21 -10 21 -8 0 -20 11 -25 25 -5 14 -15 23 -23 19
-7 -2 -28 2 -47 9 -32 14 -33 15 -12 26 17 9 21 18 16 36 -8 33 1 44 36 43 26
-1 28 -4 23 -29z m4379 9 c13 -7 28 -20 35 -28 11 -13 14 -12 19 8 6 20 12 23
47 20 23 -2 42 -9 45 -16 3 -9 -2 -13 -14 -10 -25 4 -66 -35 -58 -56 7 -19 25
-21 42 -4 16 16 37 -4 28 -27 -4 -12 -12 -14 -28 -9 -31 11 -78 7 -105 -7 -17
-9 -26 -9 -37 0 -11 9 -20 10 -36 1 -28 -15 -40 -5 -40 33 0 26 4 33 20 33 11
0 23 -8 26 -18 6 -19 29 -24 39 -8 3 6 15 10 26 10 10 0 19 7 19 15 0 8 -7 15
-15 15 -8 0 -15 6 -15 14 0 8 -7 16 -15 20 -8 3 -15 10 -15 16 0 13 6 13 32
-2z m-4480 -345 c9 -8 20 -32 23 -54 8 -49 31 -52 32 -3 1 37 26 74 50 74 21
0 15 -31 -7 -37 -20 -5 -28 -23 -10 -23 20 0 10 -59 -15 -88 -13 -16 -22 -32
-18 -36 3 -3 1 -6 -5 -6 -6 0 -20 12 -31 26 -13 17 -26 24 -36 20 -19 -7 -11
-26 11 -26 17 0 18 -12 2 -28 -19 -19 -37 -14 -44 13 -6 26 -18 32 -29 16 -3
-5 -1 -12 5 -16 17 -11 12 -45 -7 -45 -15 -1 -16 -2 -3 -9 24 -13 130 -21 130
-10 0 6 10 9 23 7 12 -2 21 -9 20 -15 -2 -7 4 -10 12 -7 9 4 15 0 15 -10 0
-19 -3 -20 -62 -1 -52 15 -66 8 -48 -26 8 -14 18 -19 31 -16 10 3 21 1 24 -3
8 -13 -28 -90 -42 -90 -6 0 -13 -6 -16 -12 -2 -7 -3 13 -2 45 1 52 0 58 -17
54 -10 -3 -18 0 -18 6 0 21 -33 47 -60 47 -38 0 -43 10 -19 36 14 15 20 31 16
44 -6 24 16 73 28 62 5 -4 5 1 2 11 -6 15 -3 17 12 12 31 -10 52 4 40 26 -5
11 -7 24 -4 29 3 6 -4 11 -17 12 -13 0 -27 2 -33 3 -5 2 -17 3 -25 4 -12 1
-12 4 3 15 23 18 68 17 89 -1z m5012 -63 c14 0 17 -5 12 -25 -4 -14 -2 -25 3
-25 5 0 16 -3 24 -6 19 -7 32 27 15 38 -9 5 -6 8 10 8 12 0 22 -6 22 -13 0
-32 155 -60 182 -33 14 14 16 13 21 -4 3 -13 -3 -24 -19 -35 -32 -21 -55 -20
-47 3 6 14 4 15 -9 4 -20 -16 -118 -29 -118 -15 0 5 -11 15 -25 21 -21 10 -28
8 -50 -14 -14 -14 -25 -32 -25 -40 0 -17 -24 -29 -40 -19 -9 5 -9 10 -1 18 17
17 13 24 -18 30 -25 5 -29 11 -33 49 -7 63 -1 71 41 64 20 -3 44 -6 55 -6z
m-4094 -150 c0 -34 7 -38 26 -12 13 16 15 16 29 -2 13 -17 12 -21 -9 -37 -13
-11 -29 -19 -34 -19 -10 0 -22 -23 -22 -42 0 -6 11 -8 26 -4 23 6 24 5 14 -14
-11 -21 -50 -28 -50 -9 0 5 -4 8 -10 4 -6 -4 -6 -15 0 -30 6 -16 6 -25 0 -25
-6 0 -15 11 -20 25 -5 14 -14 25 -21 25 -6 0 -9 -3 -7 -7 25 -51 33 -63 45
-63 7 0 18 -10 22 -22 9 -22 9 -22 17 -3 8 20 33 44 46 45 13 0 30 -41 23 -57
-5 -14 -7 -14 -20 3 -14 18 -15 18 -34 -5 -18 -24 -20 -24 -45 -8 -14 10 -26
22 -26 27 0 5 -11 21 -25 36 -14 15 -25 33 -25 40 0 7 -6 11 -14 8 -8 -3 -17
-1 -21 5 -8 14 -45 14 -45 1 0 -6 8 -13 18 -17 29 -10 41 -24 35 -39 -8 -21
-40 -17 -46 7 -7 25 -32 20 -32 -6 0 -10 -6 -20 -14 -23 -10 -3 -12 2 -7 21 3
14 -1 41 -9 61 -13 31 -19 35 -40 30 -27 -7 -33 4 -13 24 23 23 58 14 70 -19
9 -28 12 -29 27 -15 10 9 28 16 40 16 12 0 34 13 49 29 15 15 39 31 55 35 22
5 27 12 27 36 0 17 5 30 10 30 6 0 10 -13 10 -30z m-910 -269 c-5 -11 -7 -27
-3 -37 4 -10 0 -20 -10 -26 -22 -12 -21 -25 2 -33 12 -4 17 -12 14 -24 -3 -14
0 -19 13 -18 9 1 19 -4 21 -10 3 -8 -4 -13 -16 -13 -11 0 -26 -9 -33 -20 -13
-20 -38 -28 -38 -11 0 5 -7 11 -15 15 -10 3 -14 -1 -13 -12 4 -56 -2 -72 -28
-72 -14 0 -23 4 -19 10 3 6 -3 10 -14 10 -12 0 -21 6 -21 14 0 19 17 29 25 16
11 -17 25 -11 25 11 0 16 -4 19 -21 14 -19 -6 -20 -5 -9 14 8 16 17 20 35 15
26 -6 33 4 14 23 -14 14 -3 33 18 33 9 0 13 6 10 14 -3 8 1 17 9 20 17 7 19
52 2 59 -7 3 -1 6 14 6 15 1 30 6 33 11 11 18 16 10 5 -9z m2708 -198 c-38 -6
-35 -19 10 -43 73 -41 156 -97 160 -108 4 -14 -116 -52 -188 -59 -52 -5 -59
-2 -139 45 -46 28 -88 55 -94 61 -12 12 4 19 118 52 87 25 113 38 75 40 l-25
1 25 8 c14 4 39 8 55 8 30 -1 30 -1 3 -5z m-2454 -49 c10 -26 7 -34 -10 -27
-13 5 -15 2 -9 -15 4 -15 2 -22 -6 -22 -7 0 1 -12 19 -27 24 -21 34 -39 38
-70 5 -34 3 -43 -10 -43 -8 0 -17 4 -21 10 -3 5 -12 7 -19 4 -8 -3 -21 4 -29
16 -8 11 -21 20 -28 18 -20 -4 -32 -40 -17 -50 9 -5 7 -8 -8 -8 -12 0 -36 -3
-54 -7 -44 -8 -36 16 10 32 38 13 50 32 26 41 -11 4 -14 13 -11 25 4 12 2 18
-5 17 -7 -2 -16 7 -20 19 -7 17 -6 21 6 16 7 -3 14 -9 14 -14 0 -5 9 -9 20 -9
11 0 20 -5 20 -11 0 -5 4 -7 10 -4 5 3 20 -1 32 -9 50 -35 51 -13 2 37 -29 30
-33 37 -18 37 18 0 51 37 46 53 -4 14 16 7 22 -9z m489 -4 c6 -24 29 -26 47
-5 16 20 42 19 38 -1 -2 -8 -6 -14 -10 -12 -3 2 -18 -8 -31 -21 -26 -24 -50
-22 -40 4 3 8 0 15 -6 15 -21 0 -26 -5 -23 -23 2 -9 -4 -20 -12 -23 -21 -8
-21 -24 0 -24 8 0 12 -4 9 -10 -3 -5 -15 -10 -26 -10 -10 0 -19 -7 -19 -15 0
-9 9 -15 24 -15 13 0 27 -7 30 -16 5 -13 4 -14 -7 -6 -19 16 -79 20 -84 6 -2
-7 4 -11 14 -10 12 1 17 -5 15 -16 -2 -10 2 -18 8 -18 5 0 10 -7 10 -15 0 -20
-16 -19 -24 2 -6 14 -8 14 -22 -3 -14 -18 -15 -18 -9 3 5 17 3 22 -8 17 -19
-7 -32 43 -16 62 13 16 14 16 -25 32 -31 14 -46 8 -28 -10 17 -17 15 -58 -2
-58 -9 0 -12 -7 -9 -20 6 -23 14 -25 31 -8 6 6 15 8 19 3 5 -4 2 -10 -5 -12
-7 -3 -26 -16 -41 -29 -16 -13 -35 -24 -43 -24 -8 0 -19 -5 -26 -12 -9 -9 -12
-6 -12 15 0 15 0 29 1 33 0 3 -7 16 -16 30 -9 14 -14 28 -11 31 3 3 8 -2 12
-11 3 -9 15 -16 26 -16 16 0 18 -3 9 -13 -6 -8 -8 -17 -4 -20 18 -18 61 96 44
118 -15 18 -22 83 -10 90 19 12 34 -12 19 -31 -12 -14 -11 -16 10 -12 16 2 24
9 22 19 -3 23 24 43 45 34 43 -18 131 -7 118 15 -3 5 -2 10 3 10 5 0 12 -9 15
-20z m326 -49 c8 -5 12 -18 8 -30 -3 -12 -4 -21 -2 -21 2 0 10 -3 19 -6 13 -5
16 1 16 25 0 17 5 31 10 31 6 0 10 -8 8 -17 -2 -12 4 -18 17 -18 15 0 19 -6
17 -22 -3 -18 2 -23 17 -23 12 0 21 -4 21 -10 0 -5 9 -10 20 -10 26 0 25 13
-2 25 -11 6 -28 20 -36 33 -13 20 -13 22 6 22 13 0 19 -6 18 -17 0 -12 7 -19
22 -21 22 -3 26 -15 22 -59 -1 -17 3 -21 14 -17 24 9 19 -4 -6 -17 -18 -10
-24 -8 -39 12 -16 21 -19 22 -19 6 0 -11 -10 -27 -22 -36 -21 -18 -19 -41 5
-37 41 9 136 55 160 79 25 24 34 22 52 -13 19 -37 19 -70 0 -70 -17 0 -20 -16
-5 -25 6 -4 10 -15 8 -24 -2 -10 3 -26 11 -35 10 -12 11 -20 3 -28 -13 -13
-32 -2 -32 20 0 36 -14 43 -48 26 -31 -15 -43 -34 -22 -34 7 0 7 -6 0 -19 -8
-16 -6 -21 11 -26 19 -6 20 -7 2 -20 -14 -11 -15 -16 -6 -26 10 -10 17 -7 33
14 26 33 62 35 87 4 17 -21 66 -57 78 -57 3 0 5 7 5 15 0 8 5 15 10 15 13 0
13 -17 1 -24 -5 -4 -3 -20 6 -38 13 -25 14 -35 3 -51 -10 -17 -10 -19 4 -14
28 11 56 -14 56 -50 0 -21 5 -33 14 -33 23 0 27 40 5 58 -25 21 -24 32 5 60
27 25 46 13 20 -12 -8 -9 -12 -20 -9 -26 10 -16 25 -12 25 7 0 15 2 15 18 0
15 -13 19 -13 31 0 7 8 20 12 28 9 9 -4 13 -1 11 6 -3 7 -14 14 -26 16 -28 4
-28 16 1 34 43 28 57 29 67 5 9 -22 9 -22 9 -1 1 13 9 24 22 27 17 5 20 11 15
31 -5 21 -1 27 28 41 43 20 95 22 107 4 5 -8 4 -15 -1 -17 -6 -2 -10 -19 -10
-37 l0 -33 -30 14 c-16 9 -30 22 -30 30 0 8 -4 14 -10 14 -5 0 -10 -7 -10 -15
0 -8 -16 -30 -37 -48 -27 -25 -34 -39 -29 -53 6 -16 10 -15 33 15 l26 33 19
-23 c17 -22 19 -22 28 -7 6 9 16 15 23 12 7 -2 28 11 47 31 19 19 38 35 44 35
6 0 5 -5 -2 -12 -21 -21 -13 -27 21 -14 17 7 37 12 43 9 6 -2 17 3 24 12 8 10
9 15 1 15 -6 0 -11 6 -11 14 0 8 -7 16 -15 20 -12 4 -14 0 -9 -21 5 -18 4 -24
-5 -19 -6 4 -11 14 -11 22 0 8 -10 14 -25 14 -14 0 -25 5 -25 11 0 6 9 9 20 6
25 -6 36 9 19 29 -14 18 -6 29 16 20 11 -4 14 -13 10 -25 -5 -16 -1 -18 27
-17 26 1 32 -3 30 -17 -4 -21 24 -52 33 -37 3 5 1 10 -4 10 -6 0 -11 5 -11 10
0 6 9 10 19 10 10 0 22 7 25 16 8 22 -1 31 -16 16 -16 -16 -31 -15 -25 2 3 7
0 19 -6 25 -8 8 -8 14 1 23 9 9 12 9 12 -1 0 -8 6 -11 17 -7 11 5 23 -1 35
-16 12 -16 18 -18 17 -8 0 8 -6 23 -14 33 -7 11 -11 25 -9 32 3 7 -4 15 -16
18 -28 7 -23 41 8 45 19 3 22 -1 23 -30 1 -18 1 -38 0 -44 -2 -19 41 -25 53
-8 14 18 67 23 73 7 2 -7 -7 -15 -21 -19 -17 -4 -26 -13 -26 -25 0 -10 -7 -19
-15 -19 -8 0 -15 5 -15 12 0 9 -3 9 -12 0 -9 -9 -8 -16 5 -30 9 -10 17 -22 17
-25 0 -13 -35 -47 -47 -47 -7 0 -13 -5 -13 -11 0 -7 -10 -9 -27 -5 -17 5 -29
3 -35 -6 -8 -11 -11 -11 -15 1 -4 10 -12 6 -28 -13 -14 -16 -26 -23 -30 -17
-9 16 -25 13 -25 -3 0 -8 14 -22 31 -30 30 -15 34 -14 73 5 22 12 49 25 58 30
21 10 29 0 21 -29 -4 -17 -8 -19 -23 -10 -14 9 -22 9 -34 -1 -18 -15 -12 -33
8 -25 7 3 18 -2 25 -10 11 -13 6 -14 -35 -10 -27 3 -55 11 -64 19 -9 8 -26 15
-38 15 -11 0 -27 9 -35 21 -16 21 -31 11 -21 -14 4 -11 -2 -14 -30 -10 -28 3
-36 0 -36 -13 0 -13 6 -15 30 -10 23 4 30 2 30 -10 0 -11 -6 -13 -21 -9 -15 5
-19 4 -15 -4 4 -7 -1 -11 -13 -11 -12 0 -21 -7 -21 -15 0 -9 -9 -15 -24 -15
-13 0 -29 -7 -36 -15 -14 -17 -40 -20 -40 -5 0 18 -18 10 -23 -10 -3 -11 -1
-20 4 -20 5 0 9 -7 9 -15 0 -8 -7 -15 -15 -15 -9 0 -27 -7 -40 -16 -25 -16
-55 -13 -55 6 0 5 11 10 23 10 29 0 53 25 63 64 6 25 5 28 -10 23 -10 -4 -24
-7 -32 -7 -8 0 -14 -6 -14 -12 0 -7 -11 -14 -25 -14 -16 -1 -25 3 -25 13 0 10
6 13 16 9 14 -5 15 -4 5 8 -7 8 -10 19 -7 24 9 15 -49 9 -68 -7 -9 -7 -16 -20
-16 -27 0 -7 -13 -23 -30 -36 -16 -12 -30 -29 -30 -37 0 -11 -4 -9 -15 6 -15
21 -16 56 -2 69 10 10 -2 24 -19 24 -11 0 -14 -6 -9 -22 5 -17 4 -20 -4 -12
-6 6 -13 21 -16 33 -10 51 -17 61 -41 61 -20 0 -24 -4 -20 -18 5 -15 0 -17
-38 -14 -37 3 -43 7 -39 23 4 16 0 19 -23 17 -16 -1 -32 -7 -36 -13 -5 -6 -13
-4 -24 7 -13 13 -21 14 -40 6 -13 -6 -24 -15 -24 -20 0 -4 -9 -8 -19 -8 -11 0
-29 -12 -40 -27 -12 -14 -24 -23 -28 -20 -3 4 -1 12 5 19 7 9 7 18 -2 31 -18
23 -25 22 -36 -8 -6 -16 -14 -23 -25 -19 -17 7 -21 34 -5 34 6 0 10 7 10 15 0
8 -7 15 -15 15 -8 0 -15 5 -15 11 0 7 10 9 25 5 25 -6 36 8 13 17 -10 4 -10 7
0 18 10 11 16 11 32 1 26 -16 28 5 3 23 -16 12 -16 15 7 34 30 25 34 25 50 6
10 -12 9 -16 -4 -21 -18 -7 -22 -39 -6 -49 16 -10 12 -23 -10 -30 -11 -3 -20
-11 -20 -16 0 -14 43 -4 49 12 2 7 14 21 25 31 18 15 19 17 4 18 -21 0 -21 1
-7 37 l12 28 12 -40 c11 -36 15 -39 48 -41 20 0 37 3 37 8 0 4 5 8 11 8 6 0 9
-7 5 -15 -6 -16 14 -21 29 -6 6 5 20 12 33 16 17 5 22 2 23 -12 0 -10 3 -13 6
-5 2 6 8 10 12 7 5 -2 6 6 4 18 -3 16 -12 23 -34 24 -16 1 -29 -1 -29 -5 0 -4
-26 -7 -58 -7 l-57 0 -1 51 c-1 67 -10 82 -35 55 -23 -25 -29 -25 -54 -7 -21
15 -14 46 10 46 8 0 15 6 15 13 0 7 -14 12 -35 12 -21 0 -35 -5 -35 -12 0 -7
-4 -13 -10 -13 -5 0 -10 -4 -10 -10 0 -5 6 -10 14 -10 18 0 27 -23 15 -41 -8
-13 -13 -6 -10 14 1 9 -3 9 -23 1 -12 -5 -14 -10 -6 -19 8 -9 4 -11 -16 -7
l-26 5 17 -27 c22 -34 10 -49 -36 -44 -29 3 -35 8 -44 38 -5 19 -13 40 -17 45
-4 6 -3 17 3 25 13 22 11 27 -13 25 -16 -1 -22 -8 -20 -19 4 -21 -16 -48 -30
-40 -5 3 -16 0 -25 -8 -13 -11 -18 -9 -31 10 -8 12 -21 22 -28 22 -8 0 -14 5
-14 11 0 5 12 9 28 8 49 -4 67 1 79 20 17 27 6 55 -28 70 -16 7 -29 17 -29 23
0 7 5 6 14 -1 10 -9 15 -8 20 4 8 23 39 19 31 -4 -3 -10 1 -24 10 -31 12 -10
15 -10 15 4 0 12 6 15 24 10 18 -4 25 -1 29 16 7 26 -11 49 -33 43 -9 -3 -23
4 -31 13 -10 13 -10 16 -1 10 8 -5 21 -1 32 9 16 15 19 15 27 1 8 -14 12 -14
32 5 26 25 41 18 16 -7 -16 -16 -16 -19 -1 -29 20 -15 21 -29 2 -22 -10 4 -13
1 -10 -8 10 -26 54 -29 54 -4 0 6 -4 7 -10 4 -6 -3 -7 1 -4 10 3 8 23 23 43
32 20 9 37 17 39 18 1 1 0 10 -4 19 -5 13 -9 14 -20 5 -10 -8 -14 -8 -14 0 0
18 -20 12 -21 -6 0 -13 -3 -12 -10 5 -5 13 -18 26 -29 29 -22 6 -67 83 -47 83
6 0 18 -4 26 -9z m881 4 c0 -3 -7 -17 -16 -31 -19 -28 -11 -44 14 -27 10 6 16
21 14 37 -1 14 2 26 8 26 5 0 10 -4 10 -9 0 -5 3 -23 6 -40 5 -23 3 -31 -7
-31 -30 -1 -59 -38 -59 -74 0 -19 5 -38 10 -41 16 -10 0 -26 -20 -20 -12 4
-19 -1 -24 -17 -5 -20 -8 -21 -16 -7 -7 12 -4 28 9 55 14 27 16 41 8 46 -15 9
-27 1 -38 -30 -7 -19 -12 -23 -18 -13 -7 11 -12 10 -30 -1 -19 -11 -24 -11
-35 5 -17 22 -52 22 -65 0 -5 -10 -13 -15 -17 -10 -13 13 28 47 57 47 16 0 32
7 38 17 5 10 13 15 17 11 4 -4 1 -14 -5 -22 -9 -10 -9 -16 -1 -21 13 -8 50 22
50 41 0 8 11 16 25 20 30 7 32 19 6 41 -15 12 -16 19 -8 29 10 10 16 8 34 -8
l22 -21 7 27 c5 22 24 38 24 21z m-1060 -176 c0 -10 -10 -27 -22 -38 -18 -17
-19 -21 -6 -26 14 -6 14 -10 3 -32 -21 -39 -37 -45 -62 -21 -15 14 -28 18 -40
13 -17 -8 -17 -8 2 -13 32 -7 56 -33 49 -54 -4 -14 -1 -16 11 -11 13 4 16 1
13 -13 -2 -13 -11 -19 -28 -18 -14 0 -24 5 -23 12 2 6 -4 9 -12 6 -8 -3 -29 1
-46 10 -24 12 -35 13 -40 5 -13 -22 3 -39 42 -45 40 -7 50 -18 24 -28 -21 -8
-19 -44 3 -49 9 -2 6 -3 -8 -1 -14 1 -33 -5 -42 -13 -17 -15 -18 -14 -18 10 0
14 8 31 18 36 14 8 14 11 2 12 -8 1 -20 1 -26 0 -6 -1 -17 11 -24 26 -7 17
-14 23 -17 15 -3 -7 0 -19 7 -26 7 -10 8 -16 0 -21 -5 -3 -10 -1 -10 4 0 6 -9
11 -20 11 -11 0 -20 7 -20 15 0 19 41 66 52 59 4 -3 8 0 8 5 0 6 7 11 15 11 9
0 15 9 15 25 0 19 4 23 17 18 12 -5 15 -2 10 10 -3 8 -1 18 6 20 9 3 9 8 -1
18 -10 11 -16 11 -32 1 -11 -6 -31 -12 -44 -12 -14 0 -28 -4 -31 -10 -13 -21
-23 -11 -53 53 -3 5 5 4 17 -2 17 -10 22 -9 27 3 8 21 34 28 50 15 8 -7 29 -9
49 -6 28 5 35 2 40 -14 4 -10 13 -19 21 -19 8 0 14 -7 14 -16 0 -8 5 -12 10
-9 6 3 10 1 10 -4 0 -18 14 -12 28 10 8 12 9 18 3 15 -6 -4 -22 1 -36 10 -19
12 -23 19 -14 25 7 4 21 3 31 -2 12 -7 23 -5 38 8 24 21 26 33 5 33 -15 0 -21
21 -8 33 10 10 43 -24 43 -44z m-462 4 c14 -32 16 -53 3 -53 -15 0 -24 -41
-12 -53 8 -8 11 -8 11 1 0 19 17 14 44 -13 49 -49 44 -72 -17 -79 -14 -1 -33
-8 -41 -16 -12 -9 -16 -9 -16 -1 0 20 25 39 55 43 16 2 30 8 32 15 4 12 -2 13
-59 15 -29 0 -42 20 -33 49 4 11 2 19 -4 19 -6 0 -11 14 -11 31 0 26 -3 30
-22 27 -17 -2 -23 -10 -23 -28 0 -20 -5 -25 -22 -23 -13 2 -23 -3 -23 -9 0 -9
-4 -8 -12 1 -10 11 -10 14 0 18 6 3 12 13 12 24 0 12 7 19 20 19 11 0 20 5 20
11 0 5 5 7 10 4 6 -3 10 -1 10 4 0 15 27 14 33 -1 3 -9 7 -7 12 5 10 24 18 21
33 -10z m2282 -88 c7 -8 16 -13 20 -10 4 3 11 -3 15 -13 6 -16 8 -15 23 4 18
22 52 28 52 10 0 -6 -9 -26 -20 -43 -11 -19 -15 -33 -8 -33 6 0 16 -6 22 -14
6 -8 20 -16 31 -18 11 -2 23 -7 27 -13 4 -5 14 -2 26 8 10 9 24 17 31 17 7 0
-6 -18 -29 -39 -28 -26 -41 -45 -37 -55 4 -10 1 -16 -7 -16 -15 0 -41 -27 -41
-44 0 -19 -20 -22 -23 -3 -5 24 21 78 34 73 7 -3 14 7 17 22 6 30 -18 55 -43
46 -8 -4 -21 -7 -28 -7 -7 0 -11 -5 -9 -11 2 -6 16 -10 31 -8 39 4 32 -4 -29
-33 -55 -26 -78 -26 -73 0 2 8 -6 20 -16 28 -12 9 -19 26 -19 46 0 42 9 49 31
23 11 -12 22 -19 25 -16 3 4 4 -12 2 -35 -2 -23 1 -41 6 -41 5 0 9 5 9 11 0 5
5 7 10 4 6 -3 10 -2 10 4 0 5 -8 15 -17 21 -12 8 -14 13 -6 16 18 8 4 34 -23
45 -27 9 -32 46 -11 68 10 11 9 13 -5 8 -10 -4 -18 -2 -18 3 0 15 26 12 40 -5z
m2209 -42 c-14 -3 -23 -19 -29 -53 -1 -3 -8 -9 -16 -13 -18 -10 -18 -27 1 -27
8 0 22 11 31 25 9 14 21 25 27 25 5 0 16 8 23 18 10 14 15 15 26 4 11 -11 10
-15 -2 -23 -11 -8 -12 -12 -2 -16 13 -5 17 -33 4 -33 -4 0 -13 5 -20 12 -8 8
-12 9 -12 1 0 -6 -3 -18 -6 -27 -4 -11 2 -19 17 -25 l24 -9 -26 -10 c-34 -14
-42 -52 -18 -91 22 -37 8 -50 -22 -20 -29 29 -32 77 -8 108 18 22 18 26 4 40
-14 14 -17 14 -26 1 -8 -13 -11 -13 -20 3 -14 24 -35 21 -43 -5 l-6 -23 -13
25 c-17 31 -13 40 18 40 28 0 42 17 26 33 -6 6 -11 14 -11 19 0 8 56 26 80 26
11 0 11 -1 -1 -5z m-2418 -29 c19 -20 21 -27 10 -33 -7 -5 -10 -14 -7 -20 11
-17 26 -13 26 7 0 10 5 23 12 30 9 9 9 12 -2 12 -32 0 8 18 53 24 l48 6 -21
-29 c-19 -28 -20 -30 -3 -40 16 -9 14 -10 -9 -11 -18 0 -28 5 -28 15 0 8 -4
15 -10 15 -5 0 -10 -7 -10 -15 0 -8 -11 -24 -24 -36 -22 -19 -23 -22 -9 -50 8
-16 19 -29 25 -29 6 0 8 -11 4 -27 -5 -23 -4 -25 4 -10 6 9 17 17 24 17 7 0
20 16 29 35 17 35 31 43 42 25 4 -6 11 -8 16 -5 5 4 9 1 9 -4 0 -6 -7 -11 -15
-11 -13 0 -13 -3 -3 -20 15 -24 41 -26 58 -5 15 18 47 20 52 3 5 -13 -26 -48
-43 -48 -6 0 -8 7 -5 17 9 23 -4 10 -18 -19 -13 -25 -43 -39 -34 -16 4 8 -3
20 -14 27 -17 10 -20 9 -25 -8 -4 -16 -11 -19 -37 -15 -71 12 -76 14 -76 36 0
12 -6 29 -14 37 -16 18 -24 96 -12 124 12 26 -30 23 -44 -4 -14 -26 -5 -53 15
-45 8 3 15 1 15 -3 0 -5 -7 -12 -15 -15 -13 -5 -14 -10 -5 -27 11 -19 10 -20
-9 -9 -12 6 -21 17 -21 25 0 8 -6 15 -14 15 -16 0 -30 -27 -27 -52 1 -11 -4
-18 -13 -18 -9 0 -16 -7 -16 -15 0 -8 5 -15 10 -15 6 0 10 -4 10 -9 0 -12 -48
-23 -63 -14 -7 4 -20 6 -29 5 -10 -2 -18 2 -18 8 0 17 29 23 46 9 13 -10 17
-10 25 2 6 10 3 17 -11 23 -11 5 -20 18 -20 30 0 12 3 16 8 10 8 -13 42 -15
42 -2 0 4 14 22 30 40 29 30 41 78 20 78 -5 0 -10 -4 -10 -10 0 -5 -5 -10 -12
-10 -6 0 -22 -10 -35 -22 -27 -25 -44 -17 -20 10 10 10 17 23 17 28 0 20 21
29 73 31 47 1 58 -2 78 -23z m1109 -35 c7 -15 10 -34 7 -41 -2 -7 0 -24 5 -38
7 -17 5 -27 -4 -35 -15 -11 -48 -76 -48 -93 0 -13 -30 -23 -72 -24 -22 -1 -38
6 -54 25 -25 30 -36 35 -28 13 7 -18 -15 -31 -29 -17 -7 7 -5 16 8 31 10 11
15 23 11 27 -4 4 -11 1 -16 -7 -11 -17 -13 0 -4 25 6 14 9 13 30 -6 l24 -22 0
21 c0 12 9 26 20 32 11 6 20 21 20 33 -1 20 -2 21 -14 5 -7 -10 -18 -18 -24
-18 -6 0 -13 -6 -16 -12 -4 -7 -4 3 -1 22 7 43 19 57 38 41 12 -9 16 -8 22 6
5 10 7 21 7 26 -3 11 26 9 33 -3 3 -5 1 -10 -5 -10 -6 0 -8 -4 -5 -10 18 -29
73 5 61 37 -6 15 -8 15 -16 3 -11 -17 -25 -7 -17 13 9 24 54 8 67 -24z m2066
-93 c19 -14 13 -20 -29 -30 -33 -8 -31 -29 3 -34 17 -3 31 5 48 25 22 27 23
27 37 9 11 -15 18 -17 26 -9 8 8 5 14 -10 23 -12 6 -19 15 -15 21 3 5 1 16 -6
24 -13 16 3 30 26 21 10 -4 13 -13 9 -26 -7 -24 7 -26 25 -5 9 11 9 19 2 28
-8 10 -6 13 9 14 23 2 23 0 4 -36 -8 -16 -12 -31 -9 -34 3 -3 1 -14 -5 -25 -7
-13 -7 -22 1 -30 8 -8 8 -15 -1 -26 -10 -12 -16 -11 -38 10 -24 22 -51 24 -38
3 3 -5 -1 -6 -10 -3 -11 5 -14 2 -9 -10 9 -23 -22 -21 -58 5 -16 12 -33 32
-38 45 -10 26 -30 33 -30 10 0 -7 -7 -19 -15 -26 -8 -7 -15 -24 -15 -37 0 -20
-4 -24 -17 -18 -10 4 -28 7 -40 6 -28 -1 -29 10 -3 27 11 7 20 23 20 37 0 15
6 25 15 25 9 0 14 8 12 23 -1 17 3 22 20 22 13 0 28 6 35 13 14 14 38 16 38 3
0 -5 -7 -11 -15 -15 -19 -7 -20 -26 -1 -26 8 0 19 15 26 33 l12 32 8 -28 c5
-16 16 -35 26 -41z m-2576 -26 c0 -5 -4 -10 -10 -10 -5 0 -10 -4 -10 -10 0 -5
7 -7 15 -4 17 7 21 -11 5 -21 -15 -9 -12 -25 5 -25 8 0 15 -7 15 -15 0 -8 -7
-15 -15 -15 -8 0 -15 5 -15 12 0 9 -3 9 -12 0 -9 -9 -7 -16 7 -32 14 -15 16
-23 8 -28 -15 -10 -5 -94 11 -89 6 2 10 11 8 20 -2 11 6 15 33 14 22 -1 35 -6
35 -14 0 -7 5 -13 11 -13 5 0 7 4 4 10 -3 5 -1 19 5 30 6 11 7 20 2 20 -5 0
-9 13 -8 29 1 22 7 31 24 34 26 5 28 -1 6 -17 -18 -13 -9 -46 12 -46 8 0 14
-7 14 -15 0 -9 9 -15 24 -15 14 0 27 -4 31 -9 3 -5 -11 -9 -31 -8 -22 1 -39
-3 -41 -10 -3 -8 6 -13 24 -14 15 0 22 -3 15 -6 -7 -3 -19 -18 -27 -33 -10
-20 -20 -27 -34 -23 -10 2 -22 0 -25 -6 -8 -12 -47 -15 -45 -3 5 28 -3 52 -17
52 -12 0 -15 -7 -12 -25 5 -22 2 -25 -21 -24 -14 0 -20 3 -13 6 20 8 14 43 -8
43 -13 0 -20 -7 -20 -20 0 -17 -4 -18 -25 -10 -46 17 -86 52 -75 65 19 22 0
47 -31 43 -16 -3 -29 -2 -29 1 1 12 30 45 30 34 0 -11 27 -22 73 -29 31 -4 50
22 26 37 -11 7 -10 11 6 23 17 14 18 17 5 26 -13 9 -12 10 5 8 12 -2 21 4 23
14 2 11 -3 16 -15 14 -32 -5 -42 24 -17 48 17 18 74 22 74 6z m763 -7 c4 -3 2
-12 -4 -19 -6 -8 -9 -20 -6 -28 7 -18 -39 -59 -82 -74 -26 -9 -33 -9 -38 3 -7
19 -31 19 -78 -1 -42 -17 -50 -14 -40 15 6 20 83 51 126 51 10 0 30 13 46 30
26 27 61 38 76 23z m-1423 -83 c-14 -11 -29 -20 -34 -20 -4 0 -6 -6 -3 -13 9
-24 -17 -52 -50 -54 -32 -2 -46 11 -21 19 7 3 8 10 4 17 -6 10 -14 6 -30 -14
-19 -24 -25 -26 -44 -16 -18 10 -22 9 -22 -4 0 -34 -52 3 -70 51 -13 34 -12
44 4 44 8 0 17 -15 20 -35 8 -42 21 -45 31 -8 5 20 9 23 15 14 5 -9 14 -11 26
-6 11 5 25 7 31 6 8 -1 10 5 6 16 -6 15 -4 16 9 6 8 -7 18 -10 22 -6 14 15 36
10 42 -9 3 -11 9 -17 13 -12 9 14 54 43 66 43 6 0 -1 -8 -15 -19z m250 -30
c14 -19 14 -19 28 1 12 17 16 18 23 8 7 -12 11 -11 19 1 6 10 10 11 10 3 0 -7
9 -13 20 -13 31 0 24 -20 -10 -27 -24 -4 -28 -8 -19 -19 9 -11 8 -18 -2 -30
-14 -18 -22 -77 -9 -69 4 2 15 -4 24 -14 15 -17 15 -19 0 -32 -15 -12 -16 -11
-10 9 6 17 3 22 -11 23 -83 5 -104 11 -90 25 4 4 13 1 22 -6 19 -16 32 -5 16
14 -9 11 -8 15 4 20 19 7 19 17 -1 42 -15 18 -15 18 -10 0 7 -21 -11 -49 -26
-40 -5 3 -5 11 2 19 6 7 7 20 4 29 -6 16 -8 16 -25 0 -11 -9 -19 -25 -19 -36
0 -10 -7 -18 -16 -18 -13 0 -14 3 -5 13 8 10 7 17 -1 25 -9 9 -7 16 10 28 22
15 22 17 5 30 -17 12 -16 13 10 14 15 0 27 5 27 10 0 16 14 12 30 -10z m813
-95 c-3 -10 2 -15 17 -15 27 0 21 -25 -6 -26 -37 -2 -42 -4 -47 -24 -3 -13 0
-20 10 -20 10 0 12 -6 8 -21 -5 -15 -4 -19 4 -15 6 4 11 3 11 -3 0 -6 16 -13
36 -17 24 -4 34 -11 30 -20 -3 -8 1 -14 9 -14 8 0 15 -7 15 -15 0 -8 -4 -15
-10 -15 -5 0 -10 -9 -10 -21 0 -15 -5 -19 -15 -15 -9 3 -15 0 -15 -9 0 -20
-16 -19 -24 1 -4 10 -13 13 -26 9 -21 -7 -27 4 -10 21 15 15 -5 64 -25 64 -8
0 -15 -6 -15 -14 0 -15 -27 -30 -47 -27 -6 1 -15 -3 -18 -10 -5 -7 1 -10 16
-9 75 6 88 -11 22 -29 -26 -7 -41 -7 -50 1 -20 16 -16 46 7 53 27 9 26 36 -1
32 -27 -4 -40 -26 -32 -54 4 -19 1 -23 -16 -23 -12 0 -21 5 -21 10 0 6 -7 10
-15 10 -8 0 -15 -7 -15 -15 0 -8 -4 -15 -10 -15 -5 0 -10 5 -10 12 0 6 -3 8
-6 5 -4 -3 -15 -2 -25 3 -12 7 -19 6 -22 -3 -3 -9 -9 -9 -23 -1 -26 15 -33 39
-7 26 22 -12 36 -5 46 21 8 20 33 23 40 4 3 -8 19 -14 36 -15 22 0 28 3 24 14
-3 8 1 14 11 14 19 0 21 11 4 28 -7 7 -8 12 -2 12 6 0 15 -5 22 -12 6 -6 15
-8 19 -4 10 10 -34 46 -57 46 -21 0 -33 25 -25 51 9 29 28 23 21 -6 -6 -24 -4
-25 34 -25 33 0 40 3 40 19 0 22 20 40 20 19 1 -8 7 -5 16 7 12 16 17 17 23 6
11 -17 55 4 47 24 -5 15 3 27 15 19 4 -2 6 -11 2 -19z m-1435 -129 c4 -4 -1
-12 -11 -17 -19 -11 -14 -29 9 -29 9 0 30 -11 47 -24 18 -14 44 -28 60 -31 16
-4 27 -14 27 -24 0 -11 7 -7 25 14 27 33 31 30 14 -9 -7 -14 -19 -27 -28 -29
-12 -4 -11 -7 7 -12 31 -10 28 -40 -7 -64 -39 -28 -57 -27 -28 1 12 13 26 22
30 20 5 -1 0 9 -10 22 -22 31 -45 34 -41 5 2 -15 -4 -24 -19 -30 -17 -6 -23
-5 -23 6 0 8 4 15 10 15 11 0 11 88 -1 95 -4 3 -13 -3 -18 -12 -10 -17 -11
-17 -22 0 -8 13 -14 15 -29 7 -24 -13 -30 -13 -30 0 0 6 7 10 15 10 8 0 15 4
15 9 0 6 -16 7 -35 4 -28 -4 -35 -2 -35 11 0 9 8 16 20 16 11 0 20 5 20 10 0
9 -14 14 -32 11 -9 -1 -11 23 -3 31 8 8 64 3 73 -6z m-1728 -38 c17 -18 24
-20 39 -11 21 13 47 1 36 -17 -6 -9 -3 -9 14 -1 20 11 21 10 17 -31 -2 -24 1
-53 5 -65 10 -28 49 -32 49 -5 1 15 2 15 12 -2 17 -29 -12 -80 -53 -92 -18 -5
-34 -15 -37 -22 -5 -16 30 -16 47 1 11 10 13 9 8 -5 -5 -13 0 -16 20 -15 14 1
28 -4 30 -10 3 -8 -5 -13 -21 -13 -13 0 -28 -4 -31 -10 -11 -18 -27 -11 -22
10 3 11 1 20 -4 20 -5 0 -9 -4 -9 -10 0 -5 -7 -10 -15 -10 -9 0 -12 6 -9 15 4
8 1 15 -5 15 -15 0 -10 31 8 50 9 10 10 15 2 18 -6 2 -11 10 -11 18 0 8 -10
14 -24 14 -13 0 -29 7 -36 15 -11 13 -8 15 17 15 16 0 34 -5 41 -12 17 -17 28
-1 15 21 -8 13 -8 22 -1 29 6 6 7 15 3 22 -5 8 -12 5 -22 -9 -17 -25 -33 -27
-33 -5 0 8 -4 13 -9 9 -14 -8 -21 9 -11 25 6 9 3 18 -8 26 -22 16 -42 0 -42
-32 0 -13 -4 -24 -10 -24 -14 0 -9 51 8 78 17 27 17 27 42 0z m251 -94 c26
-28 39 -31 39 -9 0 8 4 15 9 15 14 0 26 -23 15 -27 -5 -2 -16 -8 -24 -13 -13
-9 -13 -11 0 -19 12 -9 12 -11 -3 -17 -24 -9 -21 -27 3 -21 11 3 23 1 26 -4 3
-5 10 -6 16 -3 8 5 9 1 5 -10 -4 -10 -7 -30 -8 -44 0 -22 -2 -24 -8 -8 -7 18
-9 17 -34 -6 -15 -14 -27 -33 -27 -42 0 -9 -4 -16 -10 -16 -5 0 -7 7 -3 17 5
13 2 15 -15 11 -28 -8 -29 8 -2 22 25 13 25 22 0 51 -19 22 -21 23 -30 7 -6
-10 -16 -18 -21 -18 -6 0 -2 15 9 34 11 19 17 38 12 42 -4 5 -4 18 0 29 8 19
9 19 9 -2 1 -25 31 -33 31 -9 0 21 -28 46 -44 40 -7 -3 -16 1 -19 9 -9 25 48
18 74 -9z m-236 -14 c4 -6 -6 -10 -24 -10 -30 0 -54 -21 -33 -28 7 -2 10 -8 7
-12 -3 -5 -12 -7 -20 -3 -9 3 -15 -1 -15 -11 0 -9 -4 -16 -10 -16 -5 0 -10 4
-10 8 0 5 -6 17 -14 28 -13 18 -14 17 -13 -16 2 -22 7 -34 15 -32 7 1 23 -9
36 -23 17 -18 27 -22 31 -14 4 6 10 7 14 2 3 -5 17 -6 31 -2 14 4 19 7 13 8
-18 1 -16 21 1 21 8 0 16 6 19 13 2 6 7 10 10 6 11 -9 -9 -64 -24 -64 -8 0
-18 -3 -24 -7 -5 -3 -27 -10 -47 -16 -37 -10 -38 -10 -32 14 5 20 2 24 -15 24
-12 0 -21 4 -21 9 0 18 -30 20 -76 6 -51 -15 -64 -13 -64 12 0 13 3 13 16 3
13 -11 16 -10 21 8 3 12 9 22 14 22 5 0 9 7 9 15 0 8 5 15 11 15 7 0 9 -10 7
-25 -3 -14 -1 -25 3 -25 5 0 9 10 9 23 0 12 11 32 24 45 l25 23 19 -21 c23
-25 42 -9 20 17 -11 14 -11 16 4 10 9 -3 22 1 28 8 12 15 42 7 55 -15z m645
-33 c0 -5 9 1 21 14 11 13 17 18 13 10 -5 -11 0 -13 22 -9 16 3 35 7 43 9 27
8 21 -36 -9 -62 -25 -22 -28 -29 -16 -38 11 -9 15 -6 20 14 4 15 13 25 24 25
10 0 24 6 31 13 11 10 13 6 7 -22 -6 -33 -5 -34 12 -18 10 10 21 15 23 12 3
-2 11 5 18 17 11 18 11 20 -3 15 -23 -9 -31 12 -10 28 28 21 47 19 39 -5 -7
-21 9 -28 21 -9 4 7 10 7 16 1 12 -12 -12 -54 -28 -48 -13 5 -48 -33 -39 -42
3 -4 9 -1 13 5 11 18 52 4 52 -18 0 -10 -5 -21 -11 -24 -5 -4 -14 -17 -19 -30
-5 -13 -20 -25 -37 -28 -29 -6 -113 19 -113 34 0 5 -7 9 -16 9 -8 0 -13 4 -10
9 3 5 16 7 29 4 20 -5 20 -4 7 10 -24 24 -60 31 -60 13 0 -19 -17 -21 -22 -4
-3 7 -9 8 -18 3 -11 -7 -10 -10 3 -20 8 -6 15 -20 14 -31 -2 -15 4 -19 31 -19
17 0 32 -1 32 -2 0 -14 -25 -51 -31 -47 -5 3 -9 0 -9 -5 0 -6 5 -11 11 -11 22
0 -2 -18 -31 -22 l-30 -5 20 34 c25 42 25 41 -6 35 -16 -3 -21 -7 -14 -12 8
-5 9 -10 2 -14 -6 -3 -13 -2 -16 3 -3 5 -16 7 -28 3 -19 -5 -21 -2 -15 25 6
31 -14 73 -35 73 -6 0 -6 -6 2 -15 7 -9 10 -19 6 -22 -4 -4 -18 7 -32 25 -14
18 -34 32 -45 32 -14 0 -19 7 -19 30 0 22 5 30 17 30 13 0 14 -3 5 -12 -15
-15 -16 -32 -1 -23 5 4 18 0 27 -8 44 -38 131 -23 116 19 -6 16 -5 17 7 7 24
-23 44 -15 45 17 1 30 -9 39 -21 20 -11 -18 -53 -11 -60 10 -5 15 -12 19 -26
15 -10 -4 -19 -2 -19 4 0 5 -2 16 -5 23 -4 11 3 13 30 10 24 -3 35 0 35 8 0 7
9 3 20 -10 11 -13 20 -27 20 -33z m486 -8 c-16 -19 -26 -43 -26 -62 0 -42 10
-78 20 -72 4 3 13 -2 20 -10 10 -12 7 -14 -19 -10 -33 4 -36 -2 -32 -57 1 -16
-3 -28 -8 -28 -6 0 -11 9 -11 21 0 11 -4 17 -10 14 -5 -3 -11 4 -11 17 -1 16
-3 18 -6 6 -6 -23 -45 -27 -63 -6 -18 21 -35 12 -43 -23 -6 -22 -3 -28 14 -32
28 -7 15 -27 -17 -27 -15 0 -23 -4 -19 -10 4 -6 11 -8 16 -5 5 4 9 -3 9 -14 0
-17 -4 -19 -22 -12 -13 5 -22 16 -20 24 1 9 -2 18 -7 22 -6 3 -8 12 -4 20 3 9
-1 15 -11 15 -9 0 -16 7 -16 16 0 12 6 15 26 10 25 -7 26 -5 21 23 -7 32 12
61 39 61 8 0 14 7 14 16 0 12 5 14 18 8 9 -4 32 -8 50 -8 34 1 43 -10 17 -20
-8 -3 -15 -11 -14 -18 0 -10 2 -10 6 0 7 17 21 15 26 -5 3 -13 5 -12 6 5 1 15
5 21 12 16 7 -4 9 -2 5 7 -3 8 -9 22 -12 32 -4 9 -15 17 -25 17 -10 0 -20 4
-23 9 -7 10 22 25 42 22 10 -2 11 2 3 18 -15 28 -14 31 12 31 12 0 29 5 37 10
29 19 32 10 6 -21z m941 -133 c0 -27 -4 -32 -19 -28 -19 5 -25 -12 -8 -23 6
-3 10 -14 10 -25 0 -10 7 -21 16 -24 11 -4 14 -1 9 13 -3 10 1 23 9 30 8 7 18
26 21 42 7 29 8 30 26 13 23 -21 25 -38 3 -30 -11 4 -10 -2 6 -24 13 -18 17
-30 9 -30 -8 0 -8 -4 1 -15 10 -12 10 -19 1 -28 -9 -9 -13 -7 -17 11 -8 30
-40 28 -60 -4 -14 -21 -15 -27 -4 -34 7 -4 9 -13 6 -19 -9 -13 -66 26 -66 46
0 7 -5 13 -10 13 -6 0 -8 -11 -4 -26 5 -18 1 -29 -12 -40 -18 -13 -18 -15 -1
-25 18 -10 23 -29 8 -29 -4 0 -20 11 -34 24 -24 22 -28 23 -36 8 -9 -16 -10
-16 -16 0 -4 10 0 24 9 34 16 15 15 17 -1 30 -15 12 -16 15 -3 23 9 7 19 6 27
-1 10 -8 13 -6 13 6 0 9 8 20 18 23 17 7 42 28 42 36 0 3 -9 7 -21 10 -21 6
-21 6 -2 27 13 13 26 18 37 14 13 -5 17 -2 16 12 -3 29 -1 34 13 28 8 -3 14
-20 14 -38z"/>
<path d="M2546 8125 c-3 -9 -10 -13 -16 -10 -6 4 -11 -8 -12 -27 -1 -18 -2
-42 -3 -53 -1 -11 -3 -41 -4 -67 -1 -52 -17 -65 -24 -20 -2 15 -3 -6 -3 -45 1
-40 4 -73 7 -73 8 0 55 36 104 80 22 20 72 56 111 81 46 30 76 58 86 80 21 43
15 49 -18 18 -24 -23 -84 -32 -123 -19 -8 3 -21 -8 -31 -25 -27 -48 -45 -39
-48 25 -3 58 -15 83 -26 55z"/>
<path d="M1973 8020 c3 -36 3 -54 0 -40 -9 49 -24 54 -54 18 -30 -35 -38 -92
-19 -128 12 -22 190 -114 190 -99 0 6 8 6 20 -1 14 -8 20 -8 20 0 0 6 -8 13
-17 17 -31 11 -53 35 -53 59 0 12 -7 29 -15 37 -8 8 -17 35 -21 59 -7 50 -22
94 -41 123 -12 18 -13 12 -10 -45z"/>
<path d="M4890 7257 c-6 -29 -22 -75 -36 -102 -21 -39 -27 -70 -31 -142 -4
-60 -2 -93 4 -93 6 0 13 19 17 42 4 24 24 79 46 124 29 61 39 95 41 140 4 97
-23 117 -41 31z"/>
<path d="M4853 6735 c-13 -19 -23 -46 -23 -60 0 -14 -4 -25 -9 -25 -6 0 -26
-30 -45 -67 -20 -38 -48 -81 -62 -98 -15 -16 -37 -47 -51 -68 -29 -46 -98
-114 -124 -122 -10 -4 -19 -11 -19 -17 0 -22 107 0 172 34 48 25 71 45 95 83
18 27 33 59 33 71 0 12 11 55 24 95 13 41 26 98 30 127 4 29 9 59 12 67 11 28
-11 15 -33 -20z"/>
</g>
</svg>
